<svg xmlns="http://www.w3.org/2000/svg" xmlns:xlink="http://www.w3.org/1999/xlink" width="500" zoomAndPan="magnify" viewBox="0 0 375 374.999991" height="500" preserveAspectRatio="xMidYMid meet" version="1.0"><defs><clipPath id="id1"><path d="M 93 0 L 331.078125 0 L 331.078125 325 L 93 325 Z M 93 0 " clip-rule="nonzero"/></clipPath><clipPath id="id2"><path d="M 43.828125 50 L 282 50 L 282 375 L 43.828125 375 Z M 43.828125 50 " clip-rule="nonzero"/></clipPath><clipPath id="id3"><path d="M 121.101562 205 L 202 205 L 202 262.328125 L 121.101562 262.328125 Z M 121.101562 205 " clip-rule="nonzero"/></clipPath><clipPath id="id4"><path d="M 121.101562 125.828125 L 203.601562 125.828125 L 203.601562 224 L 121.101562 224 Z M 121.101562 125.828125 " clip-rule="nonzero"/></clipPath></defs><g clip-path="url(#id1)"><path fill="rgb(58.039856%, 88.238525%, 89.408875%)" d="M 106.273438 0.101562 L 318.589844 0.101562 C 319.410156 0.101562 320.222656 0.183594 321.027344 0.34375 C 321.828125 0.503906 322.609375 0.738281 323.367188 1.054688 C 324.125 1.367188 324.84375 1.75 325.527344 2.207031 C 326.210938 2.664062 326.839844 3.179688 327.421875 3.761719 C 328 4.339844 328.519531 4.972656 328.972656 5.652344 C 329.429688 6.335938 329.8125 7.054688 330.128906 7.8125 C 330.441406 8.570312 330.679688 9.351562 330.839844 10.15625 C 331 10.960938 331.078125 11.773438 331.078125 12.59375 L 331.078125 312.433594 C 331.078125 313.253906 331 314.066406 330.839844 314.871094 C 330.679688 315.671875 330.441406 316.453125 330.128906 317.214844 C 329.8125 317.972656 329.429688 318.691406 328.972656 319.371094 C 328.519531 320.054688 328 320.6875 327.421875 321.265625 C 326.839844 321.847656 326.210938 322.363281 325.527344 322.820312 C 324.84375 323.277344 324.125 323.660156 323.367188 323.972656 C 322.609375 324.289062 321.828125 324.523438 321.027344 324.683594 C 320.222656 324.84375 319.410156 324.925781 318.589844 324.925781 L 106.273438 324.925781 C 105.453125 324.925781 104.640625 324.84375 103.835938 324.683594 C 103.03125 324.523438 102.253906 324.289062 101.496094 323.972656 C 100.738281 323.660156 100.015625 323.277344 99.335938 322.820312 C 98.652344 322.363281 98.023438 321.847656 97.441406 321.265625 C 96.863281 320.6875 96.34375 320.054688 95.890625 319.371094 C 95.433594 318.691406 95.050781 317.972656 94.734375 317.214844 C 94.421875 316.453125 94.183594 315.671875 94.023438 314.871094 C 93.863281 314.066406 93.785156 313.253906 93.785156 312.433594 L 93.785156 12.59375 C 93.785156 11.773438 93.863281 10.960938 94.023438 10.15625 C 94.183594 9.351562 94.421875 8.570312 94.734375 7.8125 C 95.050781 7.054688 95.433594 6.335938 95.890625 5.652344 C 96.34375 4.972656 96.863281 4.339844 97.441406 3.761719 C 98.023438 3.179688 98.652344 2.664062 99.335938 2.207031 C 100.015625 1.75 100.738281 1.367188 101.496094 1.054688 C 102.253906 0.738281 103.03125 0.503906 103.835938 0.34375 C 104.640625 0.183594 105.453125 0.101562 106.273438 0.101562 Z M 106.273438 0.101562 " fill-opacity="1" fill-rule="nonzero"/></g><g clip-path="url(#id2)"><path fill="rgb(81.959534%, 92.939758%, 94.509888%)" d="M 56.316406 50.074219 L 268.632812 50.074219 C 269.453125 50.074219 270.265625 50.15625 271.070312 50.316406 C 271.875 50.476562 272.652344 50.710938 273.410156 51.027344 C 274.167969 51.339844 274.890625 51.722656 275.570312 52.179688 C 276.253906 52.636719 276.882812 53.152344 277.464844 53.734375 C 278.042969 54.3125 278.5625 54.945312 279.015625 55.628906 C 279.472656 56.308594 279.855469 57.027344 280.171875 57.785156 C 280.484375 58.542969 280.722656 59.324219 280.882812 60.128906 C 281.042969 60.933594 281.121094 61.746094 281.121094 62.566406 L 281.121094 362.40625 C 281.121094 363.226562 281.042969 364.039062 280.882812 364.84375 C 280.722656 365.648438 280.484375 366.429688 280.171875 367.1875 C 279.855469 367.945312 279.472656 368.664062 279.015625 369.34375 C 278.5625 370.027344 278.042969 370.660156 277.464844 371.238281 C 276.882812 371.820312 276.253906 372.335938 275.570312 372.792969 C 274.890625 373.25 274.167969 373.632812 273.410156 373.945312 C 272.652344 374.261719 271.875 374.496094 271.070312 374.65625 C 270.265625 374.816406 269.453125 374.898438 268.632812 374.898438 L 56.316406 374.898438 C 55.496094 374.898438 54.683594 374.816406 53.878906 374.65625 C 53.078125 374.496094 52.296875 374.261719 51.539062 373.945312 C 50.78125 373.632812 50.058594 373.25 49.378906 372.792969 C 48.695312 372.335938 48.066406 371.820312 47.484375 371.238281 C 46.90625 370.660156 46.386719 370.027344 45.933594 369.34375 C 45.476562 368.664062 45.09375 367.945312 44.777344 367.1875 C 44.464844 366.429688 44.226562 365.648438 44.066406 364.84375 C 43.90625 364.039062 43.828125 363.226562 43.828125 362.40625 L 43.828125 62.566406 C 43.828125 61.746094 43.90625 60.933594 44.066406 60.128906 C 44.226562 59.324219 44.464844 58.542969 44.777344 57.785156 C 45.09375 57.027344 45.476562 56.308594 45.933594 55.628906 C 46.386719 54.945312 46.90625 54.3125 47.484375 53.734375 C 48.066406 53.152344 48.695312 52.636719 49.378906 52.179688 C 50.058594 51.722656 50.78125 51.339844 51.539062 51.027344 C 52.296875 50.710938 53.078125 50.476562 53.878906 50.316406 C 54.683594 50.15625 55.496094 50.074219 56.316406 50.074219 Z M 56.316406 50.074219 " fill-opacity="1" fill-rule="nonzero"/></g><path fill="rgb(17.649841%, 26.269531%, 33.729553%)" d="M 208.839844 202.648438 L 202.21875 196.023438 L 162.476562 156.265625 L 122.734375 196.019531 L 116.109375 202.648438 C 115.496094 203.261719 114.910156 203.898438 114.359375 204.566406 C 113.804688 205.230469 113.28125 205.921875 112.789062 206.636719 C 112.300781 207.351562 111.84375 208.089844 111.421875 208.84375 C 111 209.601562 110.613281 210.378906 110.261719 211.171875 C 109.914062 211.960938 109.601562 212.769531 109.324219 213.59375 C 109.050781 214.414062 108.8125 215.246094 108.613281 216.089844 C 108.414062 216.933594 108.253906 217.785156 108.136719 218.644531 C 108.015625 219.503906 107.9375 220.363281 107.894531 221.230469 C 107.855469 222.097656 107.855469 222.960938 107.894531 223.828125 C 107.9375 224.695312 108.015625 225.554688 108.136719 226.414062 C 108.257812 227.273438 108.414062 228.125 108.613281 228.96875 C 108.8125 229.8125 109.050781 230.644531 109.328125 231.464844 C 109.601562 232.289062 109.914062 233.09375 110.265625 233.886719 C 110.617188 234.679688 111.003906 235.453125 111.425781 236.210938 C 111.847656 236.96875 112.304688 237.703125 112.792969 238.417969 C 113.285156 239.132812 113.808594 239.824219 114.363281 240.492188 C 114.914062 241.15625 115.5 241.796875 116.113281 242.410156 C 116.726562 243.019531 117.367188 243.601562 118.035156 244.15625 C 118.703125 244.707031 119.394531 245.230469 120.109375 245.71875 C 120.824219 246.207031 121.5625 246.660156 122.320312 247.082031 C 123.078125 247.503906 123.851562 247.886719 124.644531 248.234375 C 125.4375 248.585938 126.246094 248.894531 127.070312 249.171875 C 127.890625 249.445312 128.722656 249.679688 129.566406 249.875 C 130.410156 250.074219 131.261719 250.230469 132.121094 250.347656 C 132.980469 250.464844 133.84375 250.542969 134.707031 250.582031 C 135.574219 250.621094 136.4375 250.617188 137.304688 250.574219 C 138.171875 250.535156 139.03125 250.453125 139.890625 250.328125 C 140.746094 250.207031 141.597656 250.046875 142.441406 249.847656 C 143.285156 249.644531 144.117188 249.40625 144.9375 249.128906 C 145.757812 248.851562 146.5625 248.535156 147.355469 248.183594 C 148.148438 247.832031 148.921875 247.441406 149.675781 247.019531 C 150.433594 246.59375 151.167969 246.136719 151.878906 245.644531 L 144.964844 265.234375 C 144.894531 265.429688 144.851562 265.632812 144.832031 265.839844 C 144.808594 266.046875 144.8125 266.253906 144.84375 266.460938 C 144.871094 266.667969 144.925781 266.867188 145 267.0625 C 145.078125 267.253906 145.175781 267.4375 145.296875 267.605469 C 145.417969 267.777344 145.554688 267.929688 145.714844 268.066406 C 145.871094 268.203125 146.042969 268.320312 146.226562 268.414062 C 146.410156 268.511719 146.605469 268.582031 146.808594 268.632812 C 147.011719 268.679688 147.214844 268.707031 147.425781 268.707031 L 177.488281 268.707031 C 177.699219 268.707031 177.902344 268.679688 178.109375 268.632812 C 178.3125 268.582031 178.503906 268.507812 178.691406 268.410156 C 178.878906 268.316406 179.046875 268.195312 179.207031 268.058594 C 179.363281 267.921875 179.503906 267.765625 179.621094 267.59375 C 179.742188 267.421875 179.839844 267.238281 179.917969 267.042969 C 179.992188 266.847656 180.042969 266.648438 180.070312 266.441406 C 180.097656 266.230469 180.101562 266.023438 180.078125 265.816406 C 180.054688 265.609375 180.007812 265.40625 179.9375 265.207031 L 172.71875 245.359375 C 173.425781 245.867188 174.15625 246.339844 174.910156 246.777344 C 175.664062 247.214844 176.433594 247.617188 177.226562 247.984375 C 178.015625 248.351562 178.820312 248.683594 179.640625 248.972656 C 180.460938 249.265625 181.292969 249.519531 182.140625 249.734375 C 182.984375 249.945312 183.835938 250.121094 184.695312 250.257812 C 185.558594 250.390625 186.421875 250.484375 187.292969 250.539062 C 188.160156 250.59375 189.03125 250.609375 189.902344 250.582031 C 190.773438 250.554688 191.640625 250.488281 192.503906 250.378906 C 193.371094 250.269531 194.226562 250.125 195.078125 249.9375 C 195.929688 249.746094 196.769531 249.519531 197.597656 249.253906 C 198.429688 248.988281 199.242188 248.683594 200.042969 248.34375 C 200.847656 248 201.628906 247.625 202.394531 247.207031 C 203.160156 246.792969 203.90625 246.34375 204.632812 245.859375 C 205.355469 245.375 206.054688 244.859375 206.730469 244.308594 C 207.40625 243.757812 208.058594 243.179688 208.679688 242.570312 C 209.300781 241.957031 209.894531 241.320312 210.457031 240.65625 C 211.019531 239.988281 211.550781 239.300781 212.046875 238.585938 C 212.546875 237.871094 213.011719 237.132812 213.441406 236.375 C 213.871094 235.617188 214.261719 234.84375 214.621094 234.046875 C 214.976562 233.253906 215.296875 232.441406 215.582031 231.617188 C 215.863281 230.792969 216.105469 229.957031 216.308594 229.109375 C 216.515625 228.265625 216.679688 227.410156 216.804688 226.546875 C 216.929688 225.683594 217.011719 224.816406 217.058594 223.949219 C 217.101562 223.078125 217.105469 222.207031 217.066406 221.335938 C 217.03125 220.464844 216.953125 219.597656 216.835938 218.734375 C 216.71875 217.871094 216.558594 217.015625 216.363281 216.167969 C 216.164062 215.316406 215.929688 214.480469 215.652344 213.652344 C 215.378906 212.828125 215.066406 212.015625 214.714844 211.21875 C 214.363281 210.417969 213.976562 209.640625 213.550781 208.878906 C 213.128906 208.117188 212.667969 207.378906 212.175781 206.660156 C 211.683594 205.941406 211.160156 205.246094 210.601562 204.574219 C 210.046875 203.90625 209.457031 203.261719 208.839844 202.648438 Z M 208.839844 202.648438 " fill-opacity="1" fill-rule="nonzero"/><path fill="rgb(58.039856%, 88.238525%, 89.408875%)" d="M 164.433594 137.335938 L 164.433594 182.835938 L 197.039062 195.304688 Z M 179.402344 176.765625 C 179.082031 176.976562 178.757812 176.976562 178.332031 176.976562 C 177.582031 176.976562 176.835938 176.550781 176.40625 175.910156 L 169.992188 164.191406 C 169.460938 163.125 169.78125 161.847656 170.847656 161.3125 C 171.917969 160.78125 173.199219 161.101562 173.734375 162.164062 L 180.148438 173.886719 C 180.789062 174.847656 180.363281 176.125 179.402344 176.765625 Z M 182.609375 184.4375 C 181.433594 184.4375 180.46875 183.476562 180.46875 182.304688 C 180.46875 181.132812 181.433594 180.171875 182.609375 180.171875 C 183.785156 180.171875 184.746094 181.132812 184.746094 182.304688 C 184.746094 183.476562 183.785156 184.4375 182.609375 184.4375 Z M 182.609375 184.4375 " fill-opacity="1" fill-rule="nonzero"/><path fill="rgb(58.039856%, 88.238525%, 89.408875%)" d="M 160.160156 137.335938 L 160.160156 182.625 L 127.660156 194.984375 Z M 160.160156 137.335938 " fill-opacity="1" fill-rule="nonzero"/><path fill="rgb(58.039856%, 88.238525%, 89.408875%)" d="M 160.160156 187.207031 L 160.160156 218 L 129.050781 199.035156 Z M 160.160156 187.207031 " fill-opacity="1" fill-rule="nonzero"/><path fill="rgb(58.039856%, 88.238525%, 89.408875%)" d="M 195.328125 199.140625 L 164.433594 218 L 164.433594 187.3125 Z M 195.328125 199.140625 " fill-opacity="1" fill-rule="nonzero"/><g clip-path="url(#id3)"><path fill="rgb(17.649841%, 26.269531%, 33.729553%)" d="M 201.636719 205.746094 C 201.316406 205.746094 200.78125 205.960938 200.03125 206.492188 L 164.007812 229.9375 C 163.472656 230.253906 162.832031 230.46875 162.191406 230.46875 C 161.546875 230.46875 160.90625 230.253906 160.371094 229.9375 L 123.921875 206.492188 C 123.171875 206.066406 122.636719 205.855469 122.316406 205.855469 C 121.78125 205.855469 121.890625 206.492188 122.746094 207.773438 L 160.695312 261.582031 C 161.015625 262.117188 161.441406 262.328125 161.976562 262.328125 C 162.402344 262.328125 162.832031 262.117188 163.257812 261.582031 L 201.207031 207.773438 C 202.0625 206.492188 202.171875 205.746094 201.636719 205.746094 Z M 160.160156 253.273438 L 136.425781 219.601562 L 158.234375 233.558594 C 158.769531 233.984375 159.519531 234.199219 160.160156 234.410156 Z M 164.433594 252.417969 L 164.433594 234.410156 C 165.183594 234.199219 165.824219 233.878906 166.464844 233.558594 L 187.3125 219.917969 Z M 164.433594 252.417969 " fill-opacity="1" fill-rule="nonzero"/></g><path fill="rgb(58.039856%, 88.238525%, 89.408875%)" d="M 187.3125 219.917969 L 164.433594 252.417969 L 164.433594 234.410156 C 165.183594 234.199219 165.824219 233.878906 166.464844 233.558594 Z M 187.3125 219.917969 " fill-opacity="1" fill-rule="nonzero"/><path fill="rgb(58.039856%, 88.238525%, 89.408875%)" d="M 160.160156 234.410156 L 160.160156 253.273438 L 136.425781 219.601562 L 158.234375 233.558594 C 158.875 233.984375 159.519531 234.199219 160.160156 234.410156 Z M 160.160156 234.410156 " fill-opacity="1" fill-rule="nonzero"/><path fill="rgb(17.649841%, 26.269531%, 33.729553%)" d="M 153.746094 161.207031 C 152.675781 160.671875 151.394531 160.992188 150.859375 162.058594 L 144.445312 173.78125 C 143.910156 174.847656 144.230469 176.125 145.300781 176.65625 C 145.621094 176.871094 145.941406 176.871094 146.371094 176.871094 C 147.117188 176.871094 147.867188 176.445312 148.292969 175.804688 L 154.707031 164.082031 C 155.136719 163.125 154.707031 161.847656 153.746094 161.207031 Z M 153.746094 161.207031 " fill-opacity="1" fill-rule="nonzero"/><path fill="rgb(17.649841%, 26.269531%, 33.729553%)" d="M 144.125 182.304688 C 144.125 182.585938 144.070312 182.859375 143.960938 183.121094 C 143.851562 183.382812 143.699219 183.613281 143.5 183.8125 C 143.296875 184.011719 143.066406 184.164062 142.804688 184.273438 C 142.542969 184.382812 142.269531 184.4375 141.988281 184.4375 C 141.703125 184.4375 141.429688 184.382812 141.167969 184.273438 C 140.90625 184.164062 140.675781 184.011719 140.472656 183.8125 C 140.273438 183.613281 140.121094 183.382812 140.011719 183.121094 C 139.902344 182.859375 139.847656 182.585938 139.847656 182.304688 C 139.847656 182.023438 139.902344 181.75 140.011719 181.488281 C 140.121094 181.226562 140.273438 180.996094 140.472656 180.796875 C 140.675781 180.597656 140.90625 180.445312 141.167969 180.335938 C 141.429688 180.226562 141.703125 180.171875 141.988281 180.171875 C 142.269531 180.171875 142.542969 180.226562 142.804688 180.335938 C 143.066406 180.445312 143.296875 180.597656 143.5 180.796875 C 143.699219 180.996094 143.851562 181.226562 143.960938 181.488281 C 144.070312 181.75 144.125 182.023438 144.125 182.304688 Z M 144.125 182.304688 " fill-opacity="1" fill-rule="nonzero"/><path fill="rgb(17.649841%, 26.269531%, 33.729553%)" d="M 179.402344 176.765625 C 179.082031 176.976562 178.757812 176.976562 178.332031 176.976562 C 177.582031 176.976562 176.835938 176.550781 176.40625 175.910156 L 169.992188 164.191406 C 169.460938 163.125 169.78125 161.847656 170.847656 161.3125 C 171.917969 160.78125 173.199219 161.101562 173.734375 162.164062 L 180.148438 173.886719 C 180.789062 174.847656 180.363281 176.125 179.402344 176.765625 Z M 179.402344 176.765625 " fill-opacity="1" fill-rule="nonzero"/><path fill="rgb(17.649841%, 26.269531%, 33.729553%)" d="M 184.746094 182.304688 C 184.746094 182.585938 184.691406 182.859375 184.582031 183.121094 C 184.472656 183.382812 184.320312 183.613281 184.121094 183.8125 C 183.917969 184.011719 183.6875 184.164062 183.425781 184.273438 C 183.164062 184.382812 182.890625 184.4375 182.609375 184.4375 C 182.324219 184.4375 182.050781 184.382812 181.789062 184.273438 C 181.527344 184.164062 181.296875 184.011719 181.097656 183.8125 C 180.894531 183.613281 180.742188 183.382812 180.632812 183.121094 C 180.523438 182.859375 180.46875 182.585938 180.46875 182.304688 C 180.46875 182.023438 180.523438 181.75 180.632812 181.488281 C 180.742188 181.226562 180.894531 180.996094 181.097656 180.796875 C 181.296875 180.597656 181.527344 180.445312 181.789062 180.335938 C 182.050781 180.226562 182.324219 180.171875 182.609375 180.171875 C 182.890625 180.171875 183.164062 180.226562 183.425781 180.335938 C 183.6875 180.445312 183.917969 180.597656 184.121094 180.796875 C 184.320312 180.996094 184.472656 181.226562 184.582031 181.488281 C 184.691406 181.75 184.746094 182.023438 184.746094 182.304688 Z M 184.746094 182.304688 " fill-opacity="1" fill-rule="nonzero"/><path fill="rgb(96.078491%, 100%, 100%)" d="M 160.800781 133.820312 L 160.160156 143.730469 L 132.898438 193.8125 L 125.953125 196.691406 Z M 160.800781 133.820312 " fill-opacity="0.298" fill-rule="nonzero"/><path fill="rgb(96.078491%, 100%, 100%)" d="M 197.039062 195.304688 L 191.90625 194.132812 L 164.433594 143.730469 L 164.433594 137.335938 Z M 197.039062 195.304688 " fill-opacity="0.298" fill-rule="nonzero"/><path fill="rgb(5.879211%, 25.878906%, 23.529053%)" d="M 160.160156 178.363281 L 160.160156 182.625 L 127.660156 194.984375 L 130.761719 189.550781 Z M 160.160156 178.363281 " fill-opacity="0.298" fill-rule="nonzero"/><path fill="rgb(5.879211%, 25.878906%, 23.529053%)" d="M 197.039062 195.304688 L 164.433594 182.835938 L 164.433594 178.574219 L 194.046875 189.871094 Z M 197.039062 195.304688 " fill-opacity="0.298" fill-rule="nonzero"/><path fill="rgb(5.879211%, 25.878906%, 23.529053%)" d="M 191.695312 201.484375 L 191.054688 201.804688 L 164.433594 218 L 164.433594 213.738281 L 186.777344 200.207031 Z M 191.695312 201.484375 " fill-opacity="0.298" fill-rule="nonzero"/><path fill="rgb(83.918762%, 94.898987%, 94.898987%)" d="M 160.160156 187.207031 L 160.160156 191.46875 L 137.710938 200.101562 L 132.898438 201.378906 L 129.050781 199.035156 L 133.328125 197.4375 L 139.847656 194.984375 Z M 160.160156 187.207031 " fill-opacity="0.298" fill-rule="nonzero"/><path fill="rgb(5.879211%, 25.878906%, 23.529053%)" d="M 160.160156 213.738281 L 160.160156 218 L 132.898438 201.378906 L 137.710938 200.101562 Z M 160.160156 213.738281 " fill-opacity="0.298" fill-rule="nonzero"/><path fill="rgb(5.879211%, 25.878906%, 23.529053%)" d="M 160.160156 249.011719 L 160.160156 253.273438 L 136.425781 219.601562 L 141.878906 223.117188 Z M 160.160156 249.011719 " fill-opacity="0.298" fill-rule="nonzero"/><path fill="rgb(5.879211%, 25.878906%, 23.529053%)" d="M 187.3125 219.917969 L 164.433594 252.417969 L 164.433594 248.15625 L 181.753906 223.542969 Z M 187.3125 219.917969 " fill-opacity="0.298" fill-rule="nonzero"/><path fill="rgb(83.918762%, 94.898987%, 94.898987%)" d="M 195.328125 199.140625 L 191.265625 201.699219 L 186.777344 200.207031 L 164.433594 191.574219 L 164.433594 187.3125 L 192.976562 198.289062 Z M 195.328125 199.140625 " fill-opacity="0.298" fill-rule="nonzero"/><path fill="rgb(96.078491%, 100%, 100%)" d="M 187.3125 219.917969 L 181.753906 227.804688 L 166.464844 237.820312 C 165.824219 238.246094 165.183594 238.460938 164.433594 238.671875 L 164.433594 234.410156 C 165.183594 234.199219 165.824219 233.878906 166.464844 233.558594 Z M 187.3125 219.917969 " fill-opacity="0.298" fill-rule="nonzero"/><path fill="rgb(96.078491%, 100%, 100%)" d="M 160.160156 234.410156 L 160.160156 238.671875 C 159.519531 238.460938 158.769531 238.246094 158.234375 237.820312 L 141.878906 227.378906 L 136.425781 219.601562 L 158.234375 233.558594 C 158.875 233.984375 159.519531 234.199219 160.160156 234.410156 Z M 160.160156 234.410156 " fill-opacity="0.298" fill-rule="nonzero"/><g clip-path="url(#id4)"><path fill="rgb(17.649841%, 26.269531%, 33.729553%)" d="M 202.917969 197.011719 L 163.367188 126.574219 C 163.046875 126.148438 162.617188 125.828125 162.296875 125.828125 C 161.871094 125.828125 161.546875 126.148438 161.226562 126.574219 L 121.675781 197.011719 C 121.140625 198.074219 121.460938 199.355469 122.425781 199.992188 L 160.480469 223.222656 C 161.015625 223.542969 161.65625 223.648438 162.296875 223.648438 C 162.9375 223.648438 163.578125 223.542969 164.113281 223.222656 L 202.171875 199.992188 C 203.132812 199.355469 203.558594 198.074219 202.917969 197.011719 Z M 160.160156 218 L 129.050781 199.035156 L 160.160156 187.207031 Z M 160.160156 182.625 L 127.660156 194.984375 L 160.160156 137.335938 Z M 164.433594 218 L 164.433594 187.3125 L 195.328125 199.140625 Z M 164.433594 182.835938 L 164.433594 137.335938 L 197.039062 195.304688 Z M 164.433594 182.835938 " fill-opacity="1" fill-rule="nonzero"/></g></svg>