<svg xmlns="http://www.w3.org/2000/svg" xmlns:xlink="http://www.w3.org/1999/xlink" width="500" zoomAndPan="magnify" viewBox="0 0 375 374.999991" height="500" preserveAspectRatio="xMidYMid meet" version="1.0"><path fill="rgb(17.649841%, 26.269531%, 33.729553%)" d="M 78.976562 204.757812 C 57.917969 204.757812 40.953125 221.722656 40.953125 242.785156 C 40.953125 263.847656 57.917969 280.8125 78.976562 280.8125 C 100.039062 280.8125 117.003906 263.847656 117.003906 242.785156 C 117.003906 221.722656 100.039062 204.757812 78.976562 204.757812 Z M 95.066406 253.898438 C 93.894531 254.484375 92.140625 255.070312 91.847656 255.65625 C 91.554688 255.949219 90.679688 257.703125 90.09375 258.875 C 88.339844 262.96875 85.707031 269.109375 78.976562 269.109375 C 72.25 269.109375 69.617188 262.96875 67.863281 258.875 C 67.277344 257.703125 66.691406 255.949219 66.109375 255.65625 C 65.816406 255.363281 64.058594 254.484375 62.890625 253.898438 C 58.792969 252.144531 52.652344 249.511719 52.652344 242.785156 C 52.652344 236.058594 58.792969 233.425781 62.890625 231.667969 C 64.058594 231.085938 65.816406 230.5 66.109375 229.914062 C 66.398438 229.621094 67.277344 227.867188 67.863281 226.695312 C 69.617188 222.601562 72.542969 216.457031 78.976562 216.457031 C 85.707031 216.457031 88.339844 222.601562 90.09375 226.695312 C 90.679688 227.867188 91.261719 229.621094 91.847656 229.914062 C 92.140625 230.207031 93.894531 231.085938 95.066406 231.667969 C 99.160156 233.425781 105.304688 236.351562 105.304688 242.785156 C 105.304688 249.21875 99.160156 252.144531 95.066406 253.898438 Z M 95.066406 253.898438 " fill-opacity="1" fill-rule="nonzero"/><path fill="rgb(17.649841%, 26.269531%, 33.729553%)" d="M 83.660156 238.105469 C 81.902344 236.351562 80.734375 233.71875 79.5625 231.378906 C 79.5625 231.085938 79.269531 230.792969 78.976562 230.207031 C 78.6875 230.5 78.6875 231.085938 78.394531 231.378906 C 77.222656 233.71875 76.054688 236.351562 74.296875 238.105469 C 72.542969 239.859375 69.910156 241.03125 67.570312 242.199219 C 67.277344 242.199219 66.984375 242.492188 66.398438 242.785156 C 66.691406 243.078125 67.277344 243.078125 67.570312 243.371094 C 69.910156 244.539062 72.542969 245.710938 74.296875 247.464844 C 76.054688 249.21875 77.222656 251.851562 78.394531 254.191406 C 78.394531 254.484375 78.6875 254.777344 78.976562 255.363281 C 79.269531 255.070312 79.269531 254.484375 79.5625 254.191406 C 80.734375 251.851562 81.902344 249.21875 83.660156 247.464844 C 85.414062 245.710938 88.046875 244.539062 90.386719 243.371094 C 90.679688 243.371094 90.972656 243.078125 91.554688 242.785156 C 91.261719 242.492188 90.679688 242.492188 90.386719 242.199219 C 88.046875 241.324219 85.414062 240.152344 83.660156 238.105469 Z M 83.660156 238.105469 " fill-opacity="1" fill-rule="nonzero"/><path fill="rgb(17.649841%, 26.269531%, 33.729553%)" d="M 231.085938 339.605469 C 230.792969 342.53125 228.453125 345.164062 225.234375 345.164062 L 155.03125 345.164062 C 151.8125 345.164062 149.179688 342.53125 149.179688 339.3125 C 149.179688 336.097656 151.8125 333.464844 155.03125 333.464844 L 225.234375 333.464844 C 225.527344 333.464844 225.820312 333.464844 226.113281 333.464844 C 222.015625 327.90625 217.921875 322.054688 214.117188 315.914062 L 155.03125 315.914062 C 151.8125 315.914062 149.179688 313.28125 149.179688 310.0625 C 149.179688 306.84375 151.8125 304.210938 155.03125 304.210938 L 207.390625 304.210938 C 204.464844 298.65625 201.832031 292.804688 199.199219 286.660156 L 155.03125 286.660156 C 151.8125 286.660156 149.179688 284.027344 149.179688 280.8125 C 149.179688 277.59375 151.8125 274.960938 155.03125 274.960938 L 195.105469 274.960938 C 193.351562 269.402344 191.59375 263.554688 190.132812 257.410156 L 155.03125 257.410156 C 151.8125 257.410156 149.179688 254.777344 149.179688 251.558594 C 149.179688 248.34375 151.8125 245.710938 155.03125 245.710938 L 187.5 245.710938 C 187.5 245.710938 187.5 245.710938 187.5 245.417969 C 186.621094 239.566406 187.5 233.425781 190.425781 228.160156 L 155.03125 228.160156 C 151.8125 228.160156 149.179688 225.527344 149.179688 222.308594 C 149.179688 219.089844 151.8125 216.457031 155.03125 216.457031 L 204.464844 216.457031 C 206.804688 215.582031 209.144531 214.996094 211.777344 214.996094 C 222.308594 214.410156 232.253906 212.949219 241.613281 210.609375 C 252.144531 208.269531 261.214844 204.757812 269.109375 200.664062 L 269.109375 29.25 C 269.109375 13.164062 255.949219 0 239.859375 0 L 29.25 0 C 13.164062 0 0 13.164062 0 29.25 L 0 345.164062 C 0 361.253906 13.164062 374.414062 29.25 374.414062 L 239.859375 374.414062 C 246.585938 374.414062 253.023438 372.074219 257.996094 368.273438 C 257.996094 368.273438 257.996094 368.273438 257.703125 367.980469 C 249.511719 360.375 240.152344 351.015625 231.085938 339.605469 Z M 225.234375 198.90625 L 155.03125 198.90625 C 151.8125 198.90625 149.179688 196.277344 149.179688 193.058594 C 149.179688 189.839844 151.8125 187.207031 155.03125 187.207031 L 225.234375 187.207031 C 228.453125 187.207031 231.085938 189.839844 231.085938 193.058594 C 231.085938 196.277344 228.453125 198.90625 225.234375 198.90625 Z M 52.652344 46.800781 C 52.652344 40.367188 57.917969 35.101562 64.351562 35.101562 L 204.757812 35.101562 C 211.195312 35.101562 216.457031 40.367188 216.457031 46.800781 L 216.457031 64.351562 C 216.457031 70.789062 211.195312 76.054688 204.757812 76.054688 L 64.351562 76.054688 C 57.917969 76.054688 52.652344 70.789062 52.652344 64.351562 Z M 193.058594 128.707031 C 196.273438 128.707031 198.90625 131.339844 198.90625 134.554688 C 198.90625 137.773438 196.273438 140.40625 193.058594 140.40625 L 76.054688 140.40625 C 72.835938 140.40625 70.203125 137.773438 70.203125 134.554688 C 70.203125 131.339844 72.835938 128.707031 76.054688 128.707031 Z M 99.453125 105.304688 C 99.453125 102.085938 102.085938 99.453125 105.304688 99.453125 L 163.804688 99.453125 C 167.023438 99.453125 169.65625 102.085938 169.65625 105.304688 C 169.65625 108.523438 167.023438 111.15625 163.804688 111.15625 L 105.304688 111.15625 C 102.085938 111.15625 99.453125 108.523438 99.453125 105.304688 Z M 43.875 157.957031 L 225.234375 157.957031 C 228.453125 157.957031 231.085938 160.589844 231.085938 163.808594 C 231.085938 167.023438 228.453125 169.65625 225.234375 169.65625 L 43.875 169.65625 C 40.660156 169.65625 38.027344 167.023438 38.027344 163.808594 C 38.027344 160.589844 40.660156 157.957031 43.875 157.957031 Z M 111.15625 339.3125 C 111.15625 344.285156 105.011719 346.917969 101.5 343.703125 C 101.5 343.703125 78.976562 323.8125 78.976562 323.8125 L 56.453125 343.703125 C 52.652344 346.917969 46.800781 344.285156 46.800781 339.3125 C 46.800781 339.3125 46.800781 294.851562 46.800781 294.851562 C 50.605469 297.191406 54.40625 298.945312 58.503906 300.410156 L 58.503906 326.152344 L 75.175781 311.523438 C 77.515625 309.476562 80.734375 309.769531 83.074219 311.523438 C 83.074219 311.523438 99.746094 326.152344 99.746094 326.152344 L 99.746094 300.410156 C 103.839844 298.945312 107.9375 297.191406 111.445312 294.851562 L 111.445312 339.3125 Z M 78.976562 292.511719 C 51.480469 292.511719 29.25 270.28125 29.25 242.785156 C 29.25 215.289062 51.480469 193.058594 78.976562 193.058594 C 106.472656 193.058594 128.707031 215.289062 128.707031 242.785156 C 128.707031 270.28125 106.472656 292.511719 78.976562 292.511719 Z M 78.976562 292.511719 " fill-opacity="1" fill-rule="nonzero"/><path fill="rgb(17.649841%, 26.269531%, 33.729553%)" d="M 371.199219 231.960938 C 368.566406 228.746094 364.761719 226.695312 360.667969 226.402344 C 349.550781 225.820312 339.019531 224.0625 328.78125 221.722656 C 313.28125 218.214844 300.703125 212.949219 289.878906 205.636719 C 287.832031 204.171875 285.199219 204.171875 283.445312 205.636719 C 272.621094 212.949219 260.042969 218.214844 244.539062 221.722656 C 234.300781 224.0625 223.769531 225.527344 212.65625 226.402344 C 208.5625 226.695312 204.757812 228.746094 202.125 231.960938 C 199.492188 235.179688 198.617188 239.273438 199.199219 243.371094 C 210.609375 311.523438 256.824219 351.890625 279.054688 371.199219 C 283.445312 375 289.878906 375 294.265625 371.199219 C 316.496094 351.890625 362.714844 311.523438 374.121094 243.371094 C 375 239.566406 373.828125 235.179688 371.199219 231.960938 Z M 286.660156 362.421875 C 265.601562 343.992188 221.429688 305.382812 210.609375 241.324219 C 210.316406 239.566406 211.484375 238.105469 213.242188 238.105469 C 224.941406 237.226562 236.347656 235.765625 246.878906 233.132812 C 262.089844 229.621094 275.253906 224.355469 286.367188 217.335938 C 297.484375 224.355469 310.648438 229.621094 325.859375 233.132812 C 336.679688 235.765625 348.089844 237.226562 359.496094 238.105469 C 361.25 238.105469 362.421875 239.859375 362.128906 241.324219 C 351.890625 305.675781 307.722656 343.992188 286.660156 362.421875 Z M 286.660156 362.421875 " fill-opacity="1" fill-rule="nonzero"/><path fill="rgb(17.649841%, 26.269531%, 33.729553%)" d="M 323.519531 259.164062 L 279.933594 301.871094 L 261.503906 283.738281 C 259.164062 281.394531 255.363281 281.394531 253.316406 283.738281 C 250.976562 286.078125 250.976562 289.878906 253.316406 291.925781 C 253.316406 291.925781 275.839844 314.15625 275.839844 314.15625 C 277.886719 316.207031 281.980469 316.207031 284.027344 314.15625 L 331.707031 267.355469 C 334.046875 265.015625 334.046875 261.503906 331.707031 259.164062 C 329.660156 256.824219 325.859375 256.824219 323.519531 259.164062 Z M 323.519531 259.164062 " fill-opacity="1" fill-rule="nonzero"/></svg>