<svg xmlns="http://www.w3.org/2000/svg" xmlns:xlink="http://www.w3.org/1999/xlink" width="500" zoomAndPan="magnify" viewBox="0 0 375 374.999991" height="500" preserveAspectRatio="xMidYMid meet" version="1.0"><defs><clipPath id="id1"><path d="M 46 8.203125 L 329 8.203125 L 329 324 L 46 324 Z M 46 8.203125 " clip-rule="nonzero"/></clipPath><clipPath id="id2"><path d="M 169 331 L 207 331 L 207 366.703125 L 169 366.703125 Z M 169 331 " clip-rule="nonzero"/></clipPath></defs><path fill="rgb(17.649841%, 26.269531%, 33.729553%)" d="M 107.992188 98.414062 L 107.992188 154.53125 L 132.3125 154.53125 L 111.988281 97.878906 C 110.699219 98.261719 109.339844 98.453125 107.992188 98.414062 " fill-opacity="1" fill-rule="nonzero"/><path fill="rgb(17.649841%, 26.269531%, 33.729553%)" d="M 104.839844 97.90625 L 104.699219 97.863281 L 104.550781 97.820312 L 104.449219 97.78125 C 104.335938 97.734375 104.230469 97.6875 104.136719 97.636719 C 103.75 97.453125 103.40625 97.246094 103.074219 97.023438 C 103.007812 96.976562 102.945312 96.929688 102.878906 96.886719 L 82.199219 154.53125 L 106.449219 154.53125 L 106.449219 98.273438 C 106.101562 98.21875 105.757812 98.148438 105.417969 98.0625 C 105.226562 98.015625 105.03125 97.964844 104.839844 97.90625 " fill-opacity="1" fill-rule="nonzero"/><path fill="rgb(17.649841%, 26.269531%, 33.729553%)" d="M 242.707031 154.53125 L 266.949219 154.53125 L 266.949219 98.417969 C 265.632812 98.394531 264.316406 98.160156 263.074219 97.75 L 242.707031 154.53125 " fill-opacity="1" fill-rule="nonzero"/><g clip-path="url(#id1)"><path fill="rgb(17.649841%, 26.269531%, 33.729553%)" d="M 300.257812 155.910156 C 299.65625 158.910156 297.441406 161.667969 294.070312 163.953125 C 292.910156 164.734375 291.539062 165.136719 290.140625 165.136719 L 287.96875 165.136719 C 287.773438 168.636719 278.800781 171.449219 267.757812 171.449219 C 256.714844 171.449219 247.742188 168.636719 247.546875 165.136719 L 245.378906 165.136719 C 243.980469 165.136719 242.609375 164.734375 241.449219 163.953125 C 238.078125 161.667969 235.863281 158.910156 235.257812 155.910156 C 235.113281 155.195312 235.667969 154.53125 236.398438 154.53125 L 241.066406 154.53125 L 261.636719 97.1875 C 260.578125 96.714844 259.582031 96.144531 258.65625 95.492188 C 257.375 94.589844 256.199219 93.570312 255.140625 92.457031 C 254.609375 91.902344 254.105469 91.328125 253.621094 90.726562 C 253.378906 90.429688 253.140625 90.125 252.90625 89.8125 L 252.5625 89.332031 L 252.390625 89.085938 C 252.371094 89.050781 252.351562 89.023438 252.328125 88.992188 C 251.941406 88.519531 251.539062 88.0625 251.113281 87.636719 C 250.675781 87.207031 250.214844 86.804688 249.742188 86.433594 C 248.777344 85.699219 247.746094 85.0625 246.636719 84.578125 C 245.523438 84.09375 244.347656 83.738281 243.136719 83.488281 C 241.921875 83.242188 240.660156 83.125 239.382812 83.105469 C 238.109375 83.078125 236.8125 83.148438 235.519531 83.3125 C 234.222656 83.476562 232.925781 83.710938 231.640625 84.019531 C 231 84.171875 230.359375 84.347656 229.730469 84.535156 C 229.105469 84.726562 228.472656 84.9375 227.894531 85.152344 C 227.835938 85.175781 227.726562 85.21875 227.761719 85.203125 L 227.515625 85.308594 L 227.027344 85.523438 L 226.054688 85.949219 L 224.105469 86.804688 L 223.015625 87.269531 L 198.5625 100.027344 L 197.28125 102.890625 L 197.3125 102.890625 C 197.253906 103.023438 197.183594 103.152344 197.109375 103.277344 L 197.101562 103.296875 L 197.097656 103.300781 C 196.253906 104.761719 194.507812 105.929688 192.304688 106.527344 L 192.304688 226.550781 C 194.710938 227.203125 196.574219 228.539062 197.3125 230.183594 L 197.972656 230.183594 C 199.433594 230.183594 199.261719 231.644531 199.261719 231.644531 C 200.03125 239.445312 205.949219 241.417969 205.949219 241.417969 L 208.460938 241.417969 C 209.039062 241.417969 209.570312 241.726562 209.855469 242.226562 C 211.027344 244.285156 215.410156 249.800781 229.839844 253.289062 C 229.925781 253.308594 230.019531 253.320312 230.109375 253.328125 C 230.136719 253.332031 230.167969 253.335938 230.203125 253.335938 C 232.210938 253.539062 232.085938 256.515625 230.070312 256.535156 C 230.039062 256.535156 230.011719 256.535156 229.980469 256.535156 L 147.9375 256.535156 C 147.910156 256.535156 147.878906 256.535156 147.851562 256.535156 C 145.835938 256.515625 145.710938 253.539062 147.714844 253.335938 C 147.753906 253.335938 147.785156 253.332031 147.8125 253.328125 C 147.902344 253.320312 147.996094 253.308594 148.082031 253.289062 C 162.511719 249.800781 166.890625 244.285156 168.066406 242.226562 C 168.351562 241.726562 168.878906 241.417969 169.457031 241.417969 L 171.972656 241.417969 C 171.972656 241.417969 177.886719 239.445312 178.660156 231.644531 C 178.660156 231.644531 178.488281 230.183594 179.945312 230.183594 L 180.609375 230.183594 C 181.347656 228.539062 183.207031 227.203125 185.613281 226.550781 L 185.613281 106.527344 C 183.335938 105.910156 181.554688 104.679688 180.742188 103.152344 L 180.738281 103.152344 L 180.683594 103.035156 C 180.660156 102.988281 180.632812 102.9375 180.609375 102.890625 L 180.617188 102.890625 L 180.058594 101.671875 L 152.453125 87.269531 L 151.363281 86.804688 L 149.414062 85.949219 L 148.441406 85.523438 L 147.957031 85.308594 L 147.710938 85.203125 C 147.742188 85.21875 147.636719 85.175781 147.574219 85.152344 C 146.996094 84.9375 146.367188 84.726562 145.738281 84.535156 C 145.109375 84.347656 144.472656 84.171875 143.828125 84.019531 C 142.542969 83.710938 141.246094 83.476562 139.953125 83.3125 C 138.65625 83.148438 137.363281 83.078125 136.085938 83.105469 C 134.8125 83.125 133.550781 83.242188 132.332031 83.488281 C 131.117188 83.738281 129.945312 84.09375 128.835938 84.578125 C 127.722656 85.0625 126.695312 85.699219 125.730469 86.433594 C 125.253906 86.804688 124.792969 87.207031 124.355469 87.636719 C 123.929688 88.0625 123.527344 88.519531 123.144531 88.992188 C 123.121094 89.023438 123.101562 89.050781 123.078125 89.085938 L 122.90625 89.332031 L 122.5625 89.8125 C 122.328125 90.125 122.09375 90.429688 121.851562 90.726562 C 121.367188 91.328125 120.859375 91.902344 120.332031 92.457031 C 119.265625 93.570312 118.09375 94.589844 116.8125 95.492188 C 115.773438 96.226562 114.640625 96.859375 113.4375 97.355469 L 133.949219 154.53125 L 138.617188 154.53125 C 139.34375 154.53125 139.898438 155.195312 139.753906 155.910156 C 139.148438 158.910156 136.9375 161.667969 133.5625 163.953125 C 132.40625 164.734375 131.03125 165.136719 129.636719 165.136719 L 127.464844 165.136719 C 127.269531 168.636719 118.296875 171.449219 107.253906 171.449219 C 96.210938 171.449219 87.238281 168.636719 87.042969 165.136719 L 84.875 165.136719 C 83.476562 165.136719 82.101562 164.734375 80.945312 163.953125 C 77.574219 161.667969 75.359375 158.910156 74.753906 155.910156 C 74.613281 155.195312 75.164062 154.53125 75.894531 154.53125 L 80.5625 154.53125 L 101.605469 95.863281 C 101.492188 95.757812 101.375 95.652344 101.261719 95.542969 C 100.710938 95.011719 100.21875 94.433594 99.765625 93.832031 C 99.3125 93.234375 98.910156 92.605469 98.554688 91.957031 C 98.191406 91.3125 97.867188 90.652344 97.597656 89.976562 C 97.320312 89.300781 97.082031 88.617188 96.886719 87.925781 C 96.683594 87.234375 96.523438 86.53125 96.390625 85.832031 C 96.710938 86.472656 97.015625 87.109375 97.371094 87.722656 C 97.714844 88.335938 98.089844 88.929688 98.476562 89.507812 C 99.261719 90.652344 100.144531 91.707031 101.125 92.625 C 101.609375 93.085938 102.132812 93.5 102.667969 93.878906 C 103.199219 94.253906 103.757812 94.582031 104.324219 94.84375 C 104.609375 94.972656 104.894531 95.089844 105.160156 95.175781 C 105.226562 95.195312 105.292969 95.214844 105.34375 95.226562 C 105.355469 95.230469 105.34375 95.222656 105.363281 95.230469 C 105.4375 95.25 105.277344 95.203125 105.296875 95.210938 L 105.304688 95.210938 L 105.316406 95.214844 L 105.347656 95.214844 L 105.460938 95.234375 C 105.617188 95.257812 105.773438 95.277344 105.925781 95.292969 C 106.546875 95.359375 107.160156 95.355469 107.765625 95.300781 C 108.371094 95.253906 108.964844 95.140625 109.546875 94.972656 C 110.132812 94.8125 110.699219 94.585938 111.253906 94.332031 C 111.804688 94.066406 112.34375 93.761719 112.863281 93.414062 C 113.378906 93.070312 113.882812 92.683594 114.367188 92.28125 C 115.34375 91.464844 116.230469 90.527344 117.0625 89.53125 C 117.476562 89.03125 117.871094 88.515625 118.246094 87.984375 C 118.429688 87.722656 118.613281 87.453125 118.785156 87.1875 L 119.035156 86.78125 L 119.152344 86.589844 L 119.246094 86.421875 L 119.289062 86.34375 L 119.390625 86.207031 C 119.859375 85.5625 120.359375 84.941406 120.902344 84.34375 C 121.445312 83.75 122.027344 83.1875 122.644531 82.660156 C 123.878906 81.601562 125.269531 80.722656 126.734375 80.023438 C 128.199219 79.324219 129.742188 78.8125 131.300781 78.488281 C 132.863281 78.160156 134.4375 77.996094 135.996094 77.964844 C 137.550781 77.945312 139.09375 78.050781 140.609375 78.253906 C 142.128906 78.453125 143.617188 78.765625 145.078125 79.164062 C 145.6875 79.328125 146.289062 79.511719 146.886719 79.707031 L 146.886719 79.703125 L 146.929688 79.71875 C 147.039062 79.757812 147.144531 79.785156 147.253906 79.824219 C 147.589844 79.933594 147.921875 80.054688 148.257812 80.179688 C 148.640625 80.320312 149.023438 80.472656 149.417969 80.644531 C 149.519531 80.691406 149.578125 80.714844 149.769531 80.804688 L 150.007812 80.921875 L 150.214844 81.023438 L 175.121094 90.917969 L 173.585938 87.566406 L 184.777344 80.921875 C 184.738281 80.574219 184.714844 80.21875 184.714844 79.855469 C 184.714844 76.550781 186.414062 73.875 188.511719 73.875 C 190.605469 73.875 192.304688 76.550781 192.304688 79.855469 C 192.304688 80.082031 192.296875 80.308594 192.277344 80.53125 L 204.128906 87.566406 L 203.128906 89.8125 L 225.257812 81.023438 L 225.460938 80.921875 L 225.703125 80.804688 C 225.890625 80.714844 225.949219 80.691406 226.054688 80.644531 C 226.445312 80.472656 226.828125 80.320312 227.210938 80.179688 L 227.214844 80.179688 L 227.210938 80.179688 C 227.546875 80.054688 227.878906 79.933594 228.214844 79.824219 C 228.324219 79.785156 228.429688 79.757812 228.535156 79.71875 L 228.585938 79.703125 L 228.585938 79.707031 C 229.183594 79.511719 229.785156 79.328125 230.390625 79.164062 C 231.855469 78.765625 233.34375 78.453125 234.859375 78.253906 C 236.375 78.050781 237.917969 77.945312 239.476562 77.964844 C 241.03125 77.996094 242.605469 78.160156 244.167969 78.488281 C 245.726562 78.8125 247.269531 79.324219 248.738281 80.023438 C 250.199219 80.722656 251.59375 81.601562 252.824219 82.660156 C 253.441406 83.1875 254.023438 83.75 254.570312 84.34375 C 255.109375 84.941406 255.609375 85.5625 256.082031 86.207031 L 256.179688 86.34375 L 256.226562 86.421875 L 256.316406 86.589844 L 256.433594 86.78125 L 256.6875 87.1875 C 256.859375 87.453125 257.039062 87.722656 257.226562 87.984375 C 257.597656 88.515625 257.996094 89.03125 258.410156 89.53125 C 259.238281 90.527344 260.128906 91.464844 261.101562 92.28125 C 261.589844 92.683594 262.089844 93.070312 262.609375 93.414062 C 263.125 93.761719 263.664062 94.066406 264.21875 94.332031 C 264.773438 94.585938 265.339844 94.8125 265.921875 94.972656 C 266.503906 95.140625 267.101562 95.253906 267.707031 95.300781 C 268.308594 95.355469 268.925781 95.359375 269.542969 95.292969 C 269.699219 95.277344 269.851562 95.257812 270.007812 95.234375 L 270.121094 95.214844 L 270.152344 95.214844 L 270.167969 95.210938 L 270.175781 95.210938 C 270.195312 95.203125 270.035156 95.25 270.101562 95.230469 C 270.128906 95.222656 270.113281 95.230469 270.125 95.226562 C 270.179688 95.214844 270.246094 95.195312 270.308594 95.175781 C 270.578125 95.089844 270.863281 94.972656 271.148438 94.84375 C 271.710938 94.582031 272.273438 94.253906 272.804688 93.878906 C 273.335938 93.5 273.859375 93.085938 274.347656 92.625 C 275.324219 91.707031 276.210938 90.652344 276.992188 89.507812 C 277.378906 88.929688 277.753906 88.335938 278.101562 87.722656 C 278.453125 87.109375 278.761719 86.472656 279.082031 85.832031 C 278.949219 86.53125 278.789062 87.234375 278.582031 87.925781 C 278.386719 88.617188 278.152344 89.300781 277.871094 89.976562 C 277.601562 90.652344 277.28125 91.3125 276.917969 91.957031 C 276.5625 92.605469 276.15625 93.234375 275.703125 93.832031 C 275.253906 94.433594 274.757812 95.011719 274.203125 95.542969 C 273.984375 95.761719 273.753906 95.96875 273.515625 96.167969 L 294.453125 154.53125 L 299.121094 154.53125 C 299.851562 154.53125 300.402344 155.195312 300.257812 155.910156 Z M 312.371094 52.34375 C 306.695312 38.527344 298.921875 25.574219 292.109375 12.226562 C 290.59375 9.257812 288.832031 8.179688 285.121094 9.386719 C 253.011719 19.824219 220.820312 17.820312 188.617188 9.609375 C 188.328125 9.535156 188.027344 9.464844 187.726562 9.394531 C 187.425781 9.464844 187.132812 9.535156 186.84375 9.609375 C 154.636719 17.820312 122.445312 19.824219 90.335938 9.386719 C 86.625 8.179688 84.863281 9.257812 83.347656 12.226562 C 76.539062 25.574219 68.761719 38.527344 63.085938 52.34375 C 45.058594 96.246094 41.070312 141.519531 54.179688 187.40625 C 66.695312 231.195312 91.824219 266.722656 128.160156 294.285156 C 146.164062 307.941406 165.496094 318.914062 187.726562 323.878906 C 209.960938 318.914062 229.292969 307.941406 247.300781 294.285156 C 283.636719 266.722656 308.761719 231.195312 321.277344 187.40625 C 334.390625 141.519531 330.398438 96.246094 312.371094 52.34375 " fill-opacity="1" fill-rule="nonzero"/></g><path fill="rgb(17.649841%, 26.269531%, 33.729553%)" d="M 271.332031 97.636719 C 271.238281 97.6875 271.136719 97.734375 271.023438 97.78125 L 270.917969 97.820312 L 270.769531 97.863281 L 270.625 97.90625 C 270.4375 97.964844 270.246094 98.015625 270.054688 98.0625 C 269.542969 98.191406 269.023438 98.285156 268.496094 98.34375 L 268.496094 154.53125 L 292.816406 154.53125 L 272.226562 97.132812 C 271.945312 97.316406 271.652344 97.480469 271.332031 97.636719 " fill-opacity="1" fill-rule="nonzero"/><path fill="rgb(17.649841%, 26.269531%, 33.729553%)" d="M 154.640625 346.355469 C 142.46875 334.464844 127.230469 349.144531 127.230469 349.144531 C 146.65625 360.558594 154.640625 346.355469 154.640625 346.355469 " fill-opacity="1" fill-rule="nonzero"/><path fill="rgb(17.649841%, 26.269531%, 33.729553%)" d="M 155.871094 345.152344 C 155.871094 345.152344 168.664062 335.046875 154.359375 317.648438 C 154.359375 317.648438 142.226562 334.988281 155.871094 345.152344 " fill-opacity="1" fill-rule="nonzero"/><path fill="rgb(17.649841%, 26.269531%, 33.729553%)" d="M 130.070312 331.710938 C 117.898438 319.820312 102.65625 334.5 102.65625 334.5 C 122.082031 345.917969 130.070312 331.710938 130.070312 331.710938 " fill-opacity="1" fill-rule="nonzero"/><path fill="rgb(17.649841%, 26.269531%, 33.729553%)" d="M 131.300781 330.507812 C 131.300781 330.507812 144.089844 320.40625 129.785156 303.003906 C 129.785156 303.003906 117.65625 320.34375 131.300781 330.507812 " fill-opacity="1" fill-rule="nonzero"/><path fill="rgb(17.649841%, 26.269531%, 33.729553%)" d="M 106.566406 317.09375 C 96.925781 303.074219 79.132812 314.53125 79.132812 314.53125 C 95.980469 329.484375 106.566406 317.09375 106.566406 317.09375 " fill-opacity="1" fill-rule="nonzero"/><path fill="rgb(17.649841%, 26.269531%, 33.729553%)" d="M 111.84375 288.875 C 111.84375 288.875 96.585938 303.539062 108.007812 316.15625 C 108.007812 316.15625 122.511719 308.714844 111.84375 288.875 " fill-opacity="1" fill-rule="nonzero"/><path fill="rgb(17.649841%, 26.269531%, 33.729553%)" d="M 87.332031 296.128906 C 77.691406 282.109375 59.898438 293.566406 59.898438 293.566406 C 76.746094 308.519531 87.332031 296.128906 87.332031 296.128906 " fill-opacity="1" fill-rule="nonzero"/><path fill="rgb(17.649841%, 26.269531%, 33.729553%)" d="M 92.609375 267.914062 C 92.609375 267.914062 77.351562 282.574219 88.769531 295.191406 C 88.769531 295.191406 103.273438 287.75 92.609375 267.914062 " fill-opacity="1" fill-rule="nonzero"/><path fill="rgb(17.649841%, 26.269531%, 33.729553%)" d="M 71.402344 280.425781 C 61.761719 266.402344 43.96875 277.863281 43.96875 277.863281 C 60.816406 292.816406 71.402344 280.425781 71.402344 280.425781 " fill-opacity="1" fill-rule="nonzero"/><path fill="rgb(17.649841%, 26.269531%, 33.729553%)" d="M 76.679688 252.207031 C 76.679688 252.207031 61.421875 266.871094 72.84375 279.484375 C 72.84375 279.484375 87.347656 272.046875 76.679688 252.207031 " fill-opacity="1" fill-rule="nonzero"/><path fill="rgb(17.649841%, 26.269531%, 33.729553%)" d="M 58.53125 258.589844 C 48.890625 244.570312 31.097656 256.03125 31.097656 256.03125 C 47.945312 270.984375 58.53125 258.589844 58.53125 258.589844 " fill-opacity="1" fill-rule="nonzero"/><path fill="rgb(17.649841%, 26.269531%, 33.729553%)" d="M 63.808594 230.371094 C 63.808594 230.371094 48.550781 245.035156 59.972656 257.652344 C 59.972656 257.652344 74.476562 250.210938 63.808594 230.371094 " fill-opacity="1" fill-rule="nonzero"/><path fill="rgb(17.649841%, 26.269531%, 33.729553%)" d="M 43.460938 237.886719 C 36.464844 222.375 16.917969 230.484375 16.917969 230.484375 C 30.835938 248.195312 43.460938 237.886719 43.460938 237.886719 " fill-opacity="1" fill-rule="nonzero"/><path fill="rgb(17.649841%, 26.269531%, 33.729553%)" d="M 45.042969 237.21875 C 45.042969 237.21875 60.640625 232.476562 53.671875 211.054688 C 53.671875 211.054688 36.050781 222.769531 45.042969 237.21875 " fill-opacity="1" fill-rule="nonzero"/><path fill="rgb(17.649841%, 26.269531%, 33.729553%)" d="M 28.855469 212.808594 C 24.671875 196.316406 4.007812 200.898438 4.007812 200.898438 C 14.625 220.765625 28.855469 212.808594 28.855469 212.808594 " fill-opacity="1" fill-rule="nonzero"/><path fill="rgb(17.649841%, 26.269531%, 33.729553%)" d="M 30.527344 212.429688 C 30.527344 212.429688 46.714844 210.476562 43.585938 188.171875 C 43.585938 188.171875 24.191406 196.636719 30.527344 212.429688 " fill-opacity="1" fill-rule="nonzero"/><path fill="rgb(17.649841%, 26.269531%, 33.729553%)" d="M 23.070312 189.664062 C 21.90625 172.6875 0.757812 173.5 0.757812 173.5 C 7.644531 194.949219 23.070312 189.664062 23.070312 189.664062 " fill-opacity="1" fill-rule="nonzero"/><path fill="rgb(17.649841%, 26.269531%, 33.729553%)" d="M 41.972656 168.058594 C 41.972656 168.058594 21.375 172.917969 24.785156 189.589844 C 24.785156 189.589844 41.058594 190.5625 41.972656 168.058594 " fill-opacity="1" fill-rule="nonzero"/><path fill="rgb(17.649841%, 26.269531%, 33.729553%)" d="M 0.863281 146.808594 C 4.152344 169.089844 20.230469 166.40625 20.230469 166.40625 C 21.863281 149.46875 0.863281 146.808594 0.863281 146.808594 " fill-opacity="1" fill-rule="nonzero"/><path fill="rgb(17.649841%, 26.269531%, 33.729553%)" d="M 42.421875 148.183594 C 42.421875 148.183594 21.304688 149.609375 21.933594 166.609375 C 21.933594 166.609375 37.828125 170.234375 42.421875 148.183594 " fill-opacity="1" fill-rule="nonzero"/><path fill="rgb(17.649841%, 26.269531%, 33.729553%)" d="M 19.464844 143.835938 C 21.097656 126.894531 0.101562 124.238281 0.101562 124.238281 C 3.386719 146.519531 19.464844 143.835938 19.464844 143.835938 " fill-opacity="1" fill-rule="nonzero"/><path fill="rgb(17.649841%, 26.269531%, 33.729553%)" d="M 41.652344 125.613281 C 41.652344 125.613281 20.535156 127.035156 21.171875 144.039062 C 21.171875 144.039062 37.066406 147.664062 41.652344 125.613281 " fill-opacity="1" fill-rule="nonzero"/><path fill="rgb(17.649841%, 26.269531%, 33.729553%)" d="M 20.671875 124.140625 C 21.578125 107.148438 0.488281 105.390625 0.488281 105.390625 C 4.726562 127.511719 20.671875 124.140625 20.671875 124.140625 " fill-opacity="1" fill-rule="nonzero"/><path fill="rgb(17.649841%, 26.269531%, 33.729553%)" d="M 42.0625 104.984375 C 42.0625 104.984375 21.023438 107.3125 22.386719 124.273438 C 22.386719 124.273438 38.421875 127.214844 42.0625 104.984375 " fill-opacity="1" fill-rule="nonzero"/><path fill="rgb(17.649841%, 26.269531%, 33.729553%)" d="M 21.476562 104.289062 C 22.378906 87.296875 1.289062 85.535156 1.289062 85.535156 C 5.527344 107.65625 21.476562 104.289062 21.476562 104.289062 " fill-opacity="1" fill-rule="nonzero"/><path fill="rgb(17.649841%, 26.269531%, 33.729553%)" d="M 22.292969 89.925781 C 35.386719 79.058594 22.363281 62.378906 22.363281 62.378906 C 8.988281 80.503906 22.292969 89.925781 22.292969 89.925781 " fill-opacity="1" fill-rule="nonzero"/><path fill="rgb(17.649841%, 26.269531%, 33.729553%)" d="M 23.1875 104.421875 C 23.1875 104.421875 39.222656 107.363281 42.863281 85.136719 C 42.863281 85.136719 21.828125 87.460938 23.1875 104.421875 " fill-opacity="1" fill-rule="nonzero"/><path fill="rgb(17.649841%, 26.269531%, 33.729553%)" d="M 220.367188 346.355469 C 220.367188 346.355469 228.359375 360.558594 247.78125 349.144531 C 247.78125 349.144531 232.542969 334.464844 220.367188 346.355469 " fill-opacity="1" fill-rule="nonzero"/><path fill="rgb(17.649841%, 26.269531%, 33.729553%)" d="M 219.140625 345.152344 C 232.785156 334.988281 220.65625 317.648438 220.65625 317.648438 C 206.351562 335.046875 219.140625 345.152344 219.140625 345.152344 " fill-opacity="1" fill-rule="nonzero"/><path fill="rgb(17.649841%, 26.269531%, 33.729553%)" d="M 244.941406 331.710938 C 244.941406 331.710938 252.933594 345.917969 272.355469 334.5 C 272.355469 334.5 257.117188 319.820312 244.941406 331.710938 " fill-opacity="1" fill-rule="nonzero"/><path fill="rgb(17.649841%, 26.269531%, 33.729553%)" d="M 243.714844 330.507812 C 257.359375 320.34375 245.230469 303.003906 245.230469 303.003906 C 230.921875 320.40625 243.714844 330.507812 243.714844 330.507812 " fill-opacity="1" fill-rule="nonzero"/><path fill="rgb(17.649841%, 26.269531%, 33.729553%)" d="M 268.445312 317.09375 C 268.445312 317.09375 279.035156 329.484375 295.882812 314.53125 C 295.882812 314.53125 278.089844 303.074219 268.445312 317.09375 " fill-opacity="1" fill-rule="nonzero"/><path fill="rgb(17.649841%, 26.269531%, 33.729553%)" d="M 267.007812 316.15625 C 278.429688 303.539062 263.171875 288.875 263.171875 288.875 C 252.503906 308.714844 267.007812 316.15625 267.007812 316.15625 " fill-opacity="1" fill-rule="nonzero"/><path fill="rgb(17.649841%, 26.269531%, 33.729553%)" d="M 287.679688 296.128906 C 287.679688 296.128906 298.269531 308.519531 315.117188 293.566406 C 315.117188 293.566406 297.324219 282.109375 287.679688 296.128906 " fill-opacity="1" fill-rule="nonzero"/><path fill="rgb(17.649841%, 26.269531%, 33.729553%)" d="M 286.242188 295.191406 C 297.664062 282.574219 282.40625 267.914062 282.40625 267.914062 C 271.742188 287.75 286.242188 295.191406 286.242188 295.191406 " fill-opacity="1" fill-rule="nonzero"/><path fill="rgb(17.649841%, 26.269531%, 33.729553%)" d="M 303.609375 280.425781 C 303.609375 280.425781 314.199219 292.816406 331.046875 277.863281 C 331.046875 277.863281 313.253906 266.402344 303.609375 280.425781 " fill-opacity="1" fill-rule="nonzero"/><path fill="rgb(17.649841%, 26.269531%, 33.729553%)" d="M 302.167969 279.484375 C 313.59375 266.871094 298.335938 252.207031 298.335938 252.207031 C 287.667969 272.046875 302.167969 279.484375 302.167969 279.484375 " fill-opacity="1" fill-rule="nonzero"/><path fill="rgb(17.649841%, 26.269531%, 33.729553%)" d="M 316.480469 258.589844 C 316.480469 258.589844 327.070312 270.984375 343.917969 256.03125 C 343.917969 256.03125 326.121094 244.570312 316.480469 258.589844 " fill-opacity="1" fill-rule="nonzero"/><path fill="rgb(17.649841%, 26.269531%, 33.729553%)" d="M 315.042969 257.652344 C 326.464844 245.035156 311.203125 230.371094 311.203125 230.371094 C 300.539062 250.210938 315.042969 257.652344 315.042969 257.652344 " fill-opacity="1" fill-rule="nonzero"/><path fill="rgb(17.649841%, 26.269531%, 33.729553%)" d="M 331.550781 237.886719 C 331.550781 237.886719 344.179688 248.195312 358.09375 230.484375 C 358.09375 230.484375 338.546875 222.375 331.550781 237.886719 " fill-opacity="1" fill-rule="nonzero"/><path fill="rgb(17.649841%, 26.269531%, 33.729553%)" d="M 329.96875 237.21875 C 338.964844 222.769531 321.339844 211.054688 321.339844 211.054688 C 314.371094 232.476562 329.96875 237.21875 329.96875 237.21875 " fill-opacity="1" fill-rule="nonzero"/><path fill="rgb(17.649841%, 26.269531%, 33.729553%)" d="M 346.160156 212.808594 C 346.160156 212.808594 360.390625 220.765625 371.003906 200.898438 C 371.003906 200.898438 350.34375 196.316406 346.160156 212.808594 " fill-opacity="1" fill-rule="nonzero"/><path fill="rgb(17.649841%, 26.269531%, 33.729553%)" d="M 344.484375 212.429688 C 350.824219 196.636719 331.425781 188.171875 331.425781 188.171875 C 328.300781 210.476562 344.484375 212.429688 344.484375 212.429688 " fill-opacity="1" fill-rule="nonzero"/><path fill="rgb(17.649841%, 26.269531%, 33.729553%)" d="M 351.941406 189.664062 C 351.941406 189.664062 367.367188 194.949219 374.257812 173.5 C 374.257812 173.5 353.109375 172.6875 351.941406 189.664062 " fill-opacity="1" fill-rule="nonzero"/><path fill="rgb(17.649841%, 26.269531%, 33.729553%)" d="M 333.039062 168.058594 C 333.957031 190.5625 350.226562 189.589844 350.226562 189.589844 C 353.636719 172.917969 333.039062 168.058594 333.039062 168.058594 " fill-opacity="1" fill-rule="nonzero"/><path fill="rgb(17.649841%, 26.269531%, 33.729553%)" d="M 354.785156 166.40625 C 354.785156 166.40625 370.863281 169.089844 374.148438 146.808594 C 374.148438 146.808594 353.152344 149.46875 354.785156 166.40625 " fill-opacity="1" fill-rule="nonzero"/><path fill="rgb(17.649841%, 26.269531%, 33.729553%)" d="M 332.59375 148.183594 C 337.1875 170.234375 353.078125 166.609375 353.078125 166.609375 C 353.710938 149.609375 332.59375 148.183594 332.59375 148.183594 " fill-opacity="1" fill-rule="nonzero"/><path fill="rgb(17.649841%, 26.269531%, 33.729553%)" d="M 355.550781 143.835938 C 355.550781 143.835938 371.625 146.519531 374.910156 124.238281 C 374.910156 124.238281 353.917969 126.894531 355.550781 143.835938 " fill-opacity="1" fill-rule="nonzero"/><path fill="rgb(17.649841%, 26.269531%, 33.729553%)" d="M 333.359375 125.613281 C 337.949219 147.664062 353.84375 144.039062 353.84375 144.039062 C 354.476562 127.035156 333.359375 125.613281 333.359375 125.613281 " fill-opacity="1" fill-rule="nonzero"/><path fill="rgb(17.649841%, 26.269531%, 33.729553%)" d="M 354.339844 124.140625 C 354.339844 124.140625 370.289062 127.511719 374.527344 105.390625 C 374.527344 105.390625 353.433594 107.148438 354.339844 124.140625 " fill-opacity="1" fill-rule="nonzero"/><path fill="rgb(17.649841%, 26.269531%, 33.729553%)" d="M 352.628906 124.273438 C 353.988281 107.3125 332.949219 104.984375 332.949219 104.984375 C 336.59375 127.214844 352.628906 124.273438 352.628906 124.273438 " fill-opacity="1" fill-rule="nonzero"/><path fill="rgb(17.649841%, 26.269531%, 33.729553%)" d="M 353.539062 104.289062 C 353.539062 104.289062 369.488281 107.65625 373.726562 85.535156 C 373.726562 85.535156 352.632812 87.296875 353.539062 104.289062 " fill-opacity="1" fill-rule="nonzero"/><path fill="rgb(17.649841%, 26.269531%, 33.729553%)" d="M 352.726562 89.925781 C 352.726562 89.925781 366.027344 80.503906 352.648438 62.378906 C 352.648438 62.378906 339.628906 79.058594 352.726562 89.925781 " fill-opacity="1" fill-rule="nonzero"/><path fill="rgb(17.649841%, 26.269531%, 33.729553%)" d="M 351.824219 104.421875 C 353.1875 87.460938 332.148438 85.136719 332.148438 85.136719 C 335.789062 107.363281 351.824219 104.421875 351.824219 104.421875 " fill-opacity="1" fill-rule="nonzero"/><g clip-path="url(#id2)"><path fill="rgb(17.649841%, 26.269531%, 33.729553%)" d="M 206.273438 344.871094 L 193.460938 343.007812 L 187.726562 331.402344 L 181.996094 343.007812 L 169.183594 344.871094 L 178.457031 353.90625 L 176.265625 366.667969 L 187.726562 360.640625 L 199.191406 366.667969 L 197 353.90625 L 206.273438 344.871094 " fill-opacity="1" fill-rule="nonzero"/></g></svg>