<svg xmlns="http://www.w3.org/2000/svg" xmlns:xlink="http://www.w3.org/1999/xlink" width="500" zoomAndPan="magnify" viewBox="0 0 375 374.999991" height="500" preserveAspectRatio="xMidYMid meet" version="1.0"><defs><clipPath id="id1"><path d="M 187 109.441406 L 359.777344 109.441406 L 359.777344 374.941406 L 187 374.941406 Z M 187 109.441406 " clip-rule="nonzero"/></clipPath><clipPath id="id2"><path d="M 15.527344 109.441406 L 188 109.441406 L 188 374.941406 L 15.527344 374.941406 Z M 15.527344 109.441406 " clip-rule="nonzero"/></clipPath><clipPath id="id3"><path d="M 86 201 L 287 201 L 287 344.351562 L 86 344.351562 Z M 86 201 " clip-rule="nonzero"/></clipPath><clipPath id="id4"><path d="M 84 0.101562 L 290 0.101562 L 290 247 L 84 247 Z M 84 0.101562 " clip-rule="nonzero"/></clipPath></defs><g clip-path="url(#id1)"><path fill="rgb(17.649841%, 26.269531%, 33.729553%)" d="M 187.628906 109.449219 L 193.648438 117.949219 C 194.820312 119.367188 195.523438 121.183594 195.523438 123.167969 C 195.523438 125.6875 194.382812 127.941406 192.59375 129.449219 C 188.402344 133.246094 190.601562 136.691406 195.183594 138.886719 C 195.285156 144.523438 195.15625 148.203125 195.273438 150.613281 C 196.90625 151.785156 198.261719 153.328125 199.210938 155.117188 C 200.816406 155.152344 202.417969 155.308594 203.894531 155.472656 C 225.453125 157.265625 244.816406 167.523438 265.058594 174.144531 C 275.167969 177.476562 286.230469 178.5 296.507812 175.296875 C 297.734375 174.914062 299.011719 174.53125 300.289062 174.117188 L 301.664062 170.308594 C 301.378906 170.261719 301.09375 170.195312 300.816406 170.097656 C 295.464844 169.25 293.726562 162.199219 296.882812 158.222656 C 301.785156 151.015625 312.828125 151.703125 318.746094 157.234375 C 324.371094 161.527344 324.378906 170.3125 319.65625 175.261719 C 316.867188 178.273438 313.507812 180.476562 309.855469 182.148438 L 350.390625 295.058594 L 359.730469 295.050781 C 357.011719 296.652344 354.640625 298.472656 352.136719 299.675781 C 329.96875 312.496094 302.710938 315.082031 277.976562 308.632812 C 266.234375 305.292969 257.171875 301.476562 247.628906 295.109375 L 256.808594 295.105469 L 295.898438 186.339844 C 294.195312 186.667969 292.5 186.964844 290.832031 187.242188 C 272.46875 189.792969 255.199219 181.742188 238.339844 175.722656 C 225.8125 171.117188 212.808594 167.285156 199.363281 167.035156 L 199.363281 167.074219 C 198.390625 169.035156 196.941406 170.71875 195.167969 171.96875 L 195.167969 323.957031 C 195.167969 352.921875 222.511719 358.25 228.144531 358.25 C 233.761719 358.25 238.992188 360.875 238.992188 365.144531 C 250.460938 365.488281 264.070312 365.144531 272.640625 365.144531 C 281.214844 365.144531 287.625 367.609375 287.625 374.707031 C 254.300781 374.957031 220.957031 374.8125 187.632812 374.851562 Z M 305.234375 159.207031 C 304.3125 159.203125 303.175781 159.386719 302.363281 159.835938 C 298.617188 161.3125 299.554688 166.804688 302.910156 166.925781 C 303.121094 166.390625 302.96875 165.839844 303.542969 165.722656 C 304.070312 165.617188 304.265625 166.246094 304.414062 166.628906 C 304.691406 166.511719 305.03125 166.417969 305.320312 166.226562 C 308.773438 163.75 303.230469 160.242188 307.558594 161.492188 C 311.925781 164.292969 308.847656 168.074219 305.40625 169.699219 L 306.140625 171.742188 C 308.230469 170.601562 310.078125 169.128906 311.410156 167.085938 C 313.492188 163.035156 309.234375 159.214844 305.238281 159.207031 Z M 304.5 170.058594 L 304.136719 170.164062 L 304.136719 172.707031 L 305.269531 172.1875 Z M 303.164062 170.347656 L 302.671875 170.378906 L 301.464844 173.738281 L 303.164062 173.109375 Z M 308.992188 182.550781 C 307.414062 183.230469 305.789062 183.8125 304.128906 184.324219 L 304.082031 295.074219 L 349.40625 295.054688 Z M 303.164062 184.609375 L 297.019531 186.105469 L 257.824219 295.109375 L 303.085938 295.089844 L 303.179688 294.746094 Z M 303.164062 184.609375 " fill-opacity="1" fill-rule="nonzero"/></g><g clip-path="url(#id2)"><path fill="rgb(17.649841%, 26.269531%, 33.729553%)" d="M 187.671875 109.449219 L 181.65625 117.949219 C 180.484375 119.367188 179.78125 121.183594 179.78125 123.167969 C 179.78125 125.6875 180.917969 127.941406 182.707031 129.449219 C 186.898438 133.246094 184.703125 136.691406 180.117188 138.886719 C 180.015625 144.523438 180.144531 148.203125 180.027344 150.613281 C 178.394531 151.785156 177.042969 153.328125 176.089844 155.117188 C 174.484375 155.152344 172.886719 155.308594 171.410156 155.472656 C 149.847656 157.265625 130.488281 167.523438 110.242188 174.144531 C 100.136719 177.476562 89.070312 178.5 78.796875 175.296875 C 77.570312 174.914062 76.292969 174.53125 75.011719 174.117188 L 73.636719 170.308594 C 73.921875 170.261719 74.207031 170.195312 74.484375 170.097656 C 79.839844 169.25 81.574219 162.199219 78.417969 158.222656 C 73.515625 151.015625 62.476562 151.703125 56.554688 157.234375 C 50.933594 161.527344 50.921875 170.3125 55.644531 175.261719 C 58.433594 178.273438 61.792969 180.476562 65.445312 182.148438 L 24.910156 295.058594 L 15.570312 295.050781 C 18.289062 296.652344 20.664062 298.472656 23.164062 299.675781 C 45.332031 312.496094 72.589844 315.082031 97.324219 308.632812 C 109.066406 305.292969 118.128906 301.476562 127.671875 295.109375 L 118.492188 295.105469 L 79.40625 186.339844 C 81.105469 186.667969 82.800781 186.964844 84.46875 187.242188 C 102.832031 189.792969 120.105469 181.742188 136.960938 175.722656 C 149.488281 171.117188 162.492188 167.285156 175.941406 167.035156 L 175.941406 167.074219 C 176.914062 169.035156 178.359375 170.71875 180.136719 171.96875 L 180.136719 323.957031 C 180.136719 352.921875 152.789062 358.25 147.15625 358.25 C 141.539062 358.25 136.3125 360.875 136.3125 365.144531 C 124.839844 365.488281 111.230469 365.144531 102.664062 365.144531 C 94.089844 365.144531 87.675781 367.609375 87.675781 374.707031 C 121 374.957031 154.347656 374.8125 187.671875 374.851562 Z M 70.066406 159.207031 C 70.988281 159.203125 72.125 159.386719 72.9375 159.835938 C 76.683594 161.3125 75.75 166.804688 72.394531 166.925781 C 72.179688 166.390625 72.332031 165.839844 71.757812 165.722656 C 71.230469 165.617188 71.035156 166.246094 70.890625 166.628906 C 70.609375 166.511719 70.273438 166.417969 69.980469 166.226562 C 66.527344 163.75 72.070312 160.242188 67.742188 161.492188 C 63.378906 164.292969 66.457031 168.074219 69.894531 169.699219 L 69.160156 171.742188 C 67.070312 170.601562 65.222656 169.128906 63.894531 167.085938 C 61.808594 163.035156 66.066406 159.214844 70.0625 159.207031 Z M 70.800781 170.058594 L 71.164062 170.164062 L 71.164062 172.707031 L 70.03125 172.1875 Z M 72.136719 170.347656 L 72.628906 170.378906 L 73.835938 173.738281 L 72.136719 173.109375 Z M 66.308594 182.550781 C 67.890625 183.230469 69.515625 183.8125 71.171875 184.324219 L 71.21875 295.074219 L 25.894531 295.054688 Z M 72.136719 184.609375 L 78.28125 186.105469 L 117.476562 295.109375 L 72.214844 295.089844 L 72.121094 294.746094 Z M 72.136719 184.609375 " fill-opacity="1" fill-rule="nonzero"/></g><path fill="rgb(58.039856%, 88.238525%, 89.408875%)" d="M 192.617188 29.125 L 192.617188 143.875 L 274.417969 175.316406 Z M 230.164062 128.558594 C 229.359375 129.09375 228.554688 129.09375 227.484375 129.09375 C 225.605469 129.09375 223.726562 128.019531 222.65625 126.40625 L 206.5625 96.847656 C 205.222656 94.160156 206.027344 90.933594 208.707031 89.589844 C 211.390625 88.246094 214.609375 89.054688 215.949219 91.742188 L 232.042969 121.300781 C 233.652344 123.71875 232.578125 126.945312 230.164062 128.558594 Z M 238.210938 147.90625 C 235.261719 147.90625 232.847656 145.488281 232.847656 142.53125 C 232.847656 139.574219 235.261719 137.15625 238.210938 137.15625 C 241.160156 137.15625 243.574219 139.574219 243.574219 142.53125 C 243.574219 145.488281 241.160156 147.90625 238.210938 147.90625 Z M 238.210938 147.90625 " fill-opacity="1" fill-rule="nonzero"/><path fill="rgb(58.039856%, 88.238525%, 89.408875%)" d="M 181.886719 29.125 L 181.886719 143.339844 L 100.351562 174.511719 Z M 181.886719 29.125 " fill-opacity="1" fill-rule="nonzero"/><path fill="rgb(58.039856%, 88.238525%, 89.408875%)" d="M 181.886719 154.894531 L 181.886719 232.558594 L 103.839844 184.722656 Z M 181.886719 154.894531 " fill-opacity="1" fill-rule="nonzero"/><path fill="rgb(58.039856%, 88.238525%, 89.408875%)" d="M 270.128906 184.992188 L 192.617188 232.558594 L 192.617188 155.164062 Z M 270.128906 184.992188 " fill-opacity="1" fill-rule="nonzero"/><g clip-path="url(#id3)"><path fill="rgb(17.649841%, 26.269531%, 33.729553%)" d="M 285.953125 201.652344 C 285.148438 201.652344 283.808594 202.191406 281.929688 203.535156 L 191.542969 262.65625 C 190.203125 263.464844 188.59375 264 186.984375 264 C 185.375 264 183.765625 263.464844 182.421875 262.65625 L 90.964844 203.535156 C 89.085938 202.460938 87.746094 201.921875 86.941406 201.921875 C 85.601562 201.921875 85.867188 203.535156 88.015625 206.761719 L 183.226562 342.472656 C 184.03125 343.816406 185.105469 344.351562 186.445312 344.351562 C 187.519531 344.351562 188.59375 343.816406 189.664062 342.472656 L 284.878906 206.761719 C 287.023438 203.535156 287.292969 201.652344 285.953125 201.652344 Z M 181.886719 321.511719 L 122.34375 236.589844 L 177.058594 271.792969 C 178.402344 272.867188 180.277344 273.40625 181.886719 273.945312 Z M 192.617188 319.359375 L 192.617188 273.945312 C 194.492188 273.40625 196.101562 272.601562 197.710938 271.792969 L 250.011719 237.394531 Z M 192.617188 319.359375 " fill-opacity="1" fill-rule="nonzero"/></g><path fill="rgb(58.039856%, 88.238525%, 89.408875%)" d="M 250.011719 237.394531 L 192.617188 319.359375 L 192.617188 273.945312 C 194.492188 273.40625 196.101562 272.601562 197.710938 271.792969 Z M 250.011719 237.394531 " fill-opacity="1" fill-rule="nonzero"/><path fill="rgb(58.039856%, 88.238525%, 89.408875%)" d="M 181.886719 273.945312 L 181.886719 321.511719 L 122.34375 236.589844 L 177.058594 271.792969 C 178.667969 272.867188 180.277344 273.40625 181.886719 273.945312 Z M 181.886719 273.945312 " fill-opacity="1" fill-rule="nonzero"/><path fill="rgb(17.649841%, 26.269531%, 33.729553%)" d="M 165.792969 89.324219 C 163.113281 87.980469 159.894531 88.785156 158.554688 91.472656 L 142.460938 121.035156 C 141.121094 123.71875 141.925781 126.945312 144.605469 128.289062 C 145.410156 128.828125 146.214844 128.828125 147.289062 128.828125 C 149.164062 128.828125 151.042969 127.75 152.117188 126.140625 L 168.207031 96.578125 C 169.28125 94.160156 168.207031 90.933594 165.792969 89.324219 Z M 165.792969 89.324219 " fill-opacity="1" fill-rule="nonzero"/><path fill="rgb(17.649841%, 26.269531%, 33.729553%)" d="M 141.65625 142.53125 C 141.65625 142.886719 141.621094 143.234375 141.554688 143.582031 C 141.484375 143.925781 141.382812 144.261719 141.246094 144.589844 C 141.113281 144.914062 140.949219 145.226562 140.753906 145.519531 C 140.554688 145.8125 140.332031 146.082031 140.085938 146.332031 C 139.835938 146.582031 139.566406 146.804688 139.273438 147 C 138.980469 147.195312 138.671875 147.363281 138.34375 147.496094 C 138.019531 147.632812 137.683594 147.734375 137.339844 147.804688 C 136.992188 147.871094 136.644531 147.90625 136.292969 147.90625 C 135.941406 147.90625 135.589844 147.871094 135.246094 147.804688 C 134.898438 147.734375 134.5625 147.632812 134.238281 147.496094 C 133.914062 147.363281 133.605469 147.195312 133.3125 147 C 133.019531 146.804688 132.746094 146.582031 132.5 146.332031 C 132.25 146.082031 132.027344 145.8125 131.832031 145.519531 C 131.636719 145.226562 131.472656 144.914062 131.335938 144.589844 C 131.203125 144.261719 131.097656 143.925781 131.03125 143.582031 C 130.960938 143.234375 130.925781 142.886719 130.925781 142.53125 C 130.925781 142.179688 130.960938 141.828125 131.03125 141.484375 C 131.097656 141.136719 131.203125 140.800781 131.335938 140.476562 C 131.472656 140.148438 131.636719 139.839844 131.832031 139.546875 C 132.027344 139.253906 132.25 138.980469 132.5 138.730469 C 132.746094 138.480469 133.019531 138.257812 133.3125 138.0625 C 133.605469 137.867188 133.914062 137.703125 134.238281 137.566406 C 134.5625 137.429688 134.898438 137.328125 135.246094 137.261719 C 135.589844 137.191406 135.941406 137.15625 136.292969 137.15625 C 136.644531 137.15625 136.992188 137.191406 137.339844 137.261719 C 137.683594 137.328125 138.019531 137.429688 138.34375 137.566406 C 138.671875 137.703125 138.980469 137.867188 139.273438 138.0625 C 139.566406 138.257812 139.835938 138.480469 140.085938 138.730469 C 140.332031 138.980469 140.554688 139.253906 140.753906 139.546875 C 140.949219 139.839844 141.113281 140.148438 141.246094 140.476562 C 141.382812 140.800781 141.484375 141.136719 141.554688 141.484375 C 141.621094 141.828125 141.65625 142.179688 141.65625 142.53125 Z M 141.65625 142.53125 " fill-opacity="1" fill-rule="nonzero"/><path fill="rgb(17.649841%, 26.269531%, 33.729553%)" d="M 230.164062 128.558594 C 229.359375 129.09375 228.554688 129.09375 227.484375 129.09375 C 225.605469 129.09375 223.726562 128.019531 222.65625 126.40625 L 206.5625 96.847656 C 205.222656 94.160156 206.027344 90.933594 208.707031 89.589844 C 211.390625 88.246094 214.609375 89.054688 215.949219 91.742188 L 232.042969 121.300781 C 233.652344 123.71875 232.578125 126.945312 230.164062 128.558594 Z M 230.164062 128.558594 " fill-opacity="1" fill-rule="nonzero"/><path fill="rgb(17.649841%, 26.269531%, 33.729553%)" d="M 243.574219 142.53125 C 243.574219 142.886719 243.542969 143.234375 243.472656 143.582031 C 243.402344 143.925781 243.300781 144.261719 243.167969 144.589844 C 243.03125 144.914062 242.867188 145.226562 242.671875 145.519531 C 242.476562 145.8125 242.253906 146.082031 242.003906 146.332031 C 241.753906 146.582031 241.484375 146.804688 241.191406 147 C 240.898438 147.195312 240.589844 147.363281 240.265625 147.496094 C 239.9375 147.632812 239.601562 147.734375 239.257812 147.804688 C 238.914062 147.871094 238.5625 147.90625 238.210938 147.90625 C 237.859375 147.90625 237.511719 147.871094 237.164062 147.804688 C 236.820312 147.734375 236.484375 147.632812 236.160156 147.496094 C 235.832031 147.363281 235.523438 147.195312 235.230469 147 C 234.9375 146.804688 234.667969 146.582031 234.417969 146.332031 C 234.167969 146.082031 233.945312 145.8125 233.75 145.519531 C 233.554688 145.226562 233.390625 144.914062 233.253906 144.589844 C 233.121094 144.261719 233.019531 143.925781 232.949219 143.582031 C 232.882812 143.234375 232.847656 142.886719 232.847656 142.53125 C 232.847656 142.179688 232.882812 141.828125 232.949219 141.484375 C 233.019531 141.136719 233.121094 140.800781 233.253906 140.476562 C 233.390625 140.148438 233.554688 139.839844 233.75 139.546875 C 233.945312 139.253906 234.167969 138.980469 234.417969 138.730469 C 234.667969 138.480469 234.9375 138.257812 235.230469 138.0625 C 235.523438 137.867188 235.832031 137.703125 236.160156 137.566406 C 236.484375 137.429688 236.820312 137.328125 237.164062 137.261719 C 237.511719 137.191406 237.859375 137.15625 238.210938 137.15625 C 238.5625 137.15625 238.914062 137.191406 239.257812 137.261719 C 239.601562 137.328125 239.9375 137.429688 240.265625 137.566406 C 240.589844 137.703125 240.898438 137.867188 241.191406 138.0625 C 241.484375 138.257812 241.753906 138.480469 242.003906 138.730469 C 242.253906 138.980469 242.476562 139.253906 242.671875 139.546875 C 242.867188 139.839844 243.03125 140.148438 243.167969 140.476562 C 243.300781 140.800781 243.402344 141.136719 243.472656 141.484375 C 243.542969 141.828125 243.574219 142.179688 243.574219 142.53125 Z M 243.574219 142.53125 " fill-opacity="1" fill-rule="nonzero"/><path fill="rgb(96.078491%, 100%, 100%)" d="M 183.496094 20.257812 L 181.886719 45.25 L 113.492188 171.554688 L 96.058594 178.8125 Z M 183.496094 20.257812 " fill-opacity="0.298" fill-rule="nonzero"/><path fill="rgb(96.078491%, 100%, 100%)" d="M 274.417969 175.316406 L 261.546875 172.363281 L 192.617188 45.25 L 192.617188 29.125 Z M 274.417969 175.316406 " fill-opacity="0.298" fill-rule="nonzero"/><path fill="rgb(5.879211%, 25.878906%, 23.529053%)" d="M 181.886719 132.589844 L 181.886719 143.339844 L 100.351562 174.511719 L 108.128906 160.804688 Z M 181.886719 132.589844 " fill-opacity="0.298" fill-rule="nonzero"/><path fill="rgb(5.879211%, 25.878906%, 23.529053%)" d="M 274.417969 175.316406 L 192.617188 143.875 L 192.617188 133.125 L 266.910156 161.613281 Z M 274.417969 175.316406 " fill-opacity="0.298" fill-rule="nonzero"/><path fill="rgb(5.879211%, 25.878906%, 23.529053%)" d="M 261.007812 190.90625 L 259.398438 191.710938 L 192.617188 232.558594 L 192.617188 221.808594 L 248.671875 187.679688 Z M 261.007812 190.90625 " fill-opacity="0.298" fill-rule="nonzero"/><path fill="rgb(83.918762%, 94.898987%, 94.898987%)" d="M 181.886719 154.894531 L 181.886719 165.644531 L 125.5625 187.410156 L 113.492188 190.636719 L 103.839844 184.722656 L 114.566406 180.691406 L 130.925781 174.511719 Z M 181.886719 154.894531 " fill-opacity="0.298" fill-rule="nonzero"/><path fill="rgb(5.879211%, 25.878906%, 23.529053%)" d="M 181.886719 221.808594 L 181.886719 232.558594 L 113.492188 190.636719 L 125.5625 187.410156 Z M 181.886719 221.808594 " fill-opacity="0.298" fill-rule="nonzero"/><path fill="rgb(5.879211%, 25.878906%, 23.529053%)" d="M 181.886719 310.761719 L 181.886719 321.511719 L 122.34375 236.589844 L 136.023438 245.457031 Z M 181.886719 310.761719 " fill-opacity="0.298" fill-rule="nonzero"/><path fill="rgb(5.879211%, 25.878906%, 23.529053%)" d="M 250.011719 237.394531 L 192.617188 319.359375 L 192.617188 308.609375 L 236.066406 246.53125 Z M 250.011719 237.394531 " fill-opacity="0.298" fill-rule="nonzero"/><path fill="rgb(83.918762%, 94.898987%, 94.898987%)" d="M 270.128906 184.992188 L 259.9375 191.441406 L 248.671875 187.679688 L 192.617188 165.910156 L 192.617188 155.164062 L 264.226562 182.84375 Z M 270.128906 184.992188 " fill-opacity="0.298" fill-rule="nonzero"/><path fill="rgb(96.078491%, 100%, 100%)" d="M 250.011719 237.394531 L 236.066406 257.28125 L 197.710938 282.542969 C 196.101562 283.617188 194.492188 284.15625 192.617188 284.691406 L 192.617188 273.945312 C 194.492188 273.40625 196.101562 272.601562 197.710938 271.792969 Z M 250.011719 237.394531 " fill-opacity="0.298" fill-rule="nonzero"/><path fill="rgb(96.078491%, 100%, 100%)" d="M 181.886719 273.945312 L 181.886719 284.691406 C 180.277344 284.15625 178.402344 283.617188 177.058594 282.542969 L 136.023438 256.207031 L 122.34375 236.589844 L 177.058594 271.792969 C 178.667969 272.867188 180.277344 273.40625 181.886719 273.945312 Z M 181.886719 273.945312 " fill-opacity="0.298" fill-rule="nonzero"/><g clip-path="url(#id4)"><path fill="rgb(17.649841%, 26.269531%, 33.729553%)" d="M 289.171875 179.617188 L 189.933594 1.984375 C 189.128906 0.910156 188.054688 0.101562 187.25 0.101562 C 186.179688 0.101562 185.375 0.910156 184.570312 1.984375 L 85.332031 179.617188 C 83.992188 182.304688 84.796875 185.53125 87.210938 187.140625 L 182.691406 245.726562 C 184.03125 246.53125 185.640625 246.800781 187.25 246.800781 C 188.859375 246.800781 190.46875 246.53125 191.8125 245.726562 L 287.292969 187.140625 C 289.707031 185.53125 290.78125 182.304688 289.171875 179.617188 Z M 181.886719 232.558594 L 103.839844 184.722656 L 181.886719 154.894531 Z M 181.886719 143.339844 L 100.351562 174.511719 L 181.886719 29.125 Z M 192.617188 232.558594 L 192.617188 155.164062 L 270.128906 184.992188 Z M 192.617188 143.875 L 192.617188 29.125 L 274.417969 175.316406 Z M 192.617188 143.875 " fill-opacity="1" fill-rule="nonzero"/></g></svg>