<svg xmlns="http://www.w3.org/2000/svg" xmlns:xlink="http://www.w3.org/1999/xlink" width="500" zoomAndPan="magnify" viewBox="0 0 375 374.999991" height="500" preserveAspectRatio="xMidYMid meet" version="1.0"><defs><filter x="0%" y="0%" width="100%" height="100%" id="id1"><feColorMatrix values="0 0 0 0 1 0 0 0 0 1 0 0 0 0 1 0 0 0 1 0" color-interpolation-filters="sRGB"/></filter><mask id="id2"><g filter="url(#id1)"><rect x="-37.5" width="450" fill="rgb(0%, 0%, 0%)" y="-37.499999" height="449.999989" fill-opacity="0.498"/></g></mask><clipPath id="id3"><path d="M 0 0 L 375 0 L 375 375 L 0 375 Z M 0 0 " clip-rule="nonzero"/></clipPath><clipPath id="id4"><path d="M 375 187.5 C 375 190.570312 374.925781 193.636719 374.773438 196.699219 C 374.625 199.765625 374.398438 202.824219 374.097656 205.878906 C 373.796875 208.933594 373.421875 211.976562 372.96875 215.011719 C 372.519531 218.046875 371.996094 221.070312 371.398438 224.078125 C 370.796875 227.089844 370.125 230.082031 369.378906 233.058594 C 368.636719 236.035156 367.816406 238.992188 366.925781 241.929688 C 366.035156 244.863281 365.074219 247.777344 364.039062 250.667969 C 363.003906 253.554688 361.902344 256.417969 360.726562 259.253906 C 359.554688 262.089844 358.308594 264.890625 356.996094 267.667969 C 355.6875 270.441406 354.308594 273.179688 352.859375 275.886719 C 351.414062 278.59375 349.902344 281.261719 348.324219 283.894531 C 346.746094 286.527344 345.105469 289.117188 343.402344 291.667969 C 341.695312 294.222656 339.929688 296.730469 338.101562 299.195312 C 336.273438 301.660156 334.386719 304.078125 332.4375 306.449219 C 330.492188 308.820312 328.488281 311.144531 326.429688 313.417969 C 324.367188 315.691406 322.253906 317.914062 320.082031 320.082031 C 317.914062 322.253906 315.691406 324.367188 313.417969 326.429688 C 311.144531 328.488281 308.820312 330.492188 306.449219 332.4375 C 304.078125 334.386719 301.660156 336.273438 299.195312 338.101562 C 296.730469 339.929688 294.222656 341.695312 291.667969 343.402344 C 289.117188 345.105469 286.527344 346.746094 283.894531 348.324219 C 281.261719 349.902344 278.59375 351.414062 275.886719 352.859375 C 273.179688 354.308594 270.441406 355.6875 267.667969 356.996094 C 264.890625 358.308594 262.089844 359.554688 259.253906 360.726562 C 256.417969 361.902344 253.554688 363.003906 250.667969 364.039062 C 247.777344 365.074219 244.863281 366.035156 241.929688 366.925781 C 238.992188 367.816406 236.035156 368.636719 233.058594 369.378906 C 230.082031 370.125 227.089844 370.796875 224.078125 371.398438 C 221.070312 371.996094 218.046875 372.519531 215.011719 372.96875 C 211.976562 373.421875 208.933594 373.796875 205.878906 374.097656 C 202.824219 374.398438 199.765625 374.625 196.699219 374.773438 C 193.636719 374.925781 190.570312 375 187.5 375 C 184.429688 375 181.363281 374.925781 178.300781 374.773438 C 175.234375 374.625 172.175781 374.398438 169.121094 374.097656 C 166.066406 373.796875 163.023438 373.421875 159.988281 372.96875 C 156.953125 372.519531 153.929688 371.996094 150.921875 371.398438 C 147.910156 370.796875 144.917969 370.125 141.941406 369.378906 C 138.964844 368.636719 136.007812 367.816406 133.070312 366.925781 C 130.136719 366.035156 127.222656 365.074219 124.332031 364.039062 C 121.445312 363.003906 118.582031 361.902344 115.746094 360.726562 C 112.910156 359.554688 110.105469 358.308594 107.332031 356.996094 C 104.558594 355.6875 101.820312 354.308594 99.113281 352.859375 C 96.40625 351.414062 93.738281 349.902344 91.105469 348.324219 C 88.472656 346.746094 85.882812 345.105469 83.332031 343.402344 C 80.777344 341.695312 78.269531 339.929688 75.804688 338.101562 C 73.339844 336.273438 70.921875 334.386719 68.550781 332.4375 C 66.179688 330.492188 63.855469 328.488281 61.582031 326.429688 C 59.308594 324.367188 57.085938 322.253906 54.917969 320.082031 C 52.746094 317.914062 50.632812 315.691406 48.570312 313.417969 C 46.511719 311.144531 44.507812 308.820312 42.558594 306.449219 C 40.613281 304.078125 38.726562 301.660156 36.898438 299.195312 C 35.070312 296.730469 33.304688 294.222656 31.597656 291.667969 C 29.894531 289.117188 28.253906 286.527344 26.675781 283.894531 C 25.097656 281.261719 23.585938 278.59375 22.140625 275.886719 C 20.691406 273.179688 19.3125 270.441406 18.003906 267.667969 C 16.691406 264.890625 15.445312 262.089844 14.273438 259.253906 C 13.097656 256.417969 11.996094 253.554688 10.960938 250.667969 C 9.925781 247.777344 8.964844 244.863281 8.074219 241.929688 C 7.183594 238.992188 6.363281 236.035156 5.621094 233.058594 C 4.875 230.082031 4.203125 227.089844 3.601562 224.078125 C 3.003906 221.070312 2.480469 218.046875 2.03125 215.011719 C 1.578125 211.976562 1.203125 208.933594 0.902344 205.878906 C 0.601562 202.824219 0.375 199.765625 0.226562 196.699219 C 0.0742188 193.636719 0 190.570312 0 187.5 C 0 184.429688 0.0742188 181.363281 0.226562 178.300781 C 0.375 175.234375 0.601562 172.175781 0.902344 169.121094 C 1.203125 166.066406 1.578125 163.023438 2.03125 159.988281 C 2.480469 156.953125 3.003906 153.929688 3.601562 150.921875 C 4.203125 147.910156 4.875 144.917969 5.621094 141.941406 C 6.363281 138.964844 7.183594 136.007812 8.074219 133.070312 C 8.964844 130.136719 9.925781 127.222656 10.960938 124.332031 C 11.996094 121.445312 13.097656 118.582031 14.273438 115.746094 C 15.445312 112.910156 16.691406 110.105469 18.003906 107.332031 C 19.3125 104.558594 20.691406 101.820312 22.140625 99.113281 C 23.585938 96.40625 25.097656 93.738281 26.675781 91.105469 C 28.253906 88.472656 29.894531 85.882812 31.597656 83.332031 C 33.304688 80.777344 35.070312 78.269531 36.898438 75.804688 C 38.726562 73.339844 40.613281 70.921875 42.558594 68.550781 C 44.507812 66.179688 46.511719 63.855469 48.570312 61.582031 C 50.632812 59.308594 52.746094 57.085938 54.917969 54.917969 C 57.085938 52.746094 59.308594 50.632812 61.582031 48.570312 C 63.855469 46.511719 66.179688 44.507812 68.550781 42.558594 C 70.921875 40.613281 73.339844 38.726562 75.804688 36.898438 C 78.269531 35.070312 80.777344 33.304688 83.332031 31.597656 C 85.882812 29.894531 88.472656 28.253906 91.105469 26.675781 C 93.738281 25.097656 96.40625 23.585938 99.113281 22.140625 C 101.820312 20.691406 104.558594 19.3125 107.332031 18.003906 C 110.105469 16.691406 112.910156 15.445312 115.746094 14.273438 C 118.582031 13.097656 121.445312 11.996094 124.332031 10.960938 C 127.222656 9.925781 130.136719 8.964844 133.070312 8.074219 C 136.007812 7.183594 138.964844 6.363281 141.941406 5.617188 C 144.917969 4.875 147.910156 4.203125 150.921875 3.601562 C 153.929688 3.003906 156.953125 2.480469 159.988281 2.03125 C 163.023438 1.578125 166.066406 1.203125 169.121094 0.902344 C 172.175781 0.601562 175.234375 0.375 178.300781 0.226562 C 181.363281 0.0742188 184.429688 0 187.5 0 C 190.570312 0 193.636719 0.0742188 196.699219 0.226562 C 199.765625 0.375 202.824219 0.601562 205.878906 0.902344 C 208.933594 1.203125 211.976562 1.578125 215.011719 2.03125 C 218.046875 2.480469 221.070312 3.003906 224.078125 3.601562 C 227.089844 4.203125 230.082031 4.875 233.058594 5.617188 C 236.035156 6.363281 238.992188 7.183594 241.929688 8.074219 C 244.863281 8.964844 247.777344 9.925781 250.667969 10.960938 C 253.554688 11.996094 256.417969 13.097656 259.253906 14.273438 C 262.089844 15.445312 264.890625 16.691406 267.667969 18.003906 C 270.441406 19.3125 273.179688 20.691406 275.886719 22.140625 C 278.59375 23.585938 281.261719 25.097656 283.894531 26.675781 C 286.527344 28.253906 289.117188 29.894531 291.667969 31.597656 C 294.222656 33.304688 296.730469 35.070312 299.195312 36.898438 C 301.660156 38.726562 304.078125 40.613281 306.449219 42.558594 C 308.820312 44.507812 311.144531 46.511719 313.417969 48.570312 C 315.691406 50.632812 317.914062 52.746094 320.082031 54.917969 C 322.253906 57.085938 324.367188 59.308594 326.429688 61.582031 C 328.488281 63.855469 330.492188 66.179688 332.4375 68.550781 C 334.386719 70.921875 336.273438 73.339844 338.101562 75.804688 C 339.929688 78.269531 341.695312 80.777344 343.402344 83.332031 C 345.105469 85.882812 346.746094 88.472656 348.324219 91.105469 C 349.902344 93.738281 351.414062 96.40625 352.859375 99.113281 C 354.308594 101.820312 355.6875 104.558594 356.996094 107.332031 C 358.308594 110.105469 359.554688 112.910156 360.726562 115.746094 C 361.902344 118.582031 363.003906 121.445312 364.039062 124.332031 C 365.074219 127.222656 366.035156 130.136719 366.925781 133.070312 C 367.816406 136.007812 368.636719 138.964844 369.378906 141.941406 C 370.125 144.917969 370.796875 147.910156 371.398438 150.921875 C 371.996094 153.929688 372.519531 156.953125 372.96875 159.988281 C 373.421875 163.023438 373.796875 166.066406 374.097656 169.121094 C 374.398438 172.175781 374.625 175.234375 374.773438 178.300781 C 374.925781 181.363281 375 184.429688 375 187.5 Z M 375 187.5 " clip-rule="nonzero"/></clipPath><linearGradient x1="1770.926026" gradientTransform="matrix(0.000000000000000179, 2.922837, -2.922837, 0.000000000000000179, 903.109697, -5176.1279)" y1="244.834" x2="1899.226027" gradientUnits="userSpaceOnUse" y2="244.834" id="id5"><stop stop-opacity="1" stop-color="rgb(83.898926%, 94.898987%, 94.898987%)" offset="0"/><stop stop-opacity="1" stop-color="rgb(83.738708%, 94.857788%, 94.865417%)" offset="0.0078125"/><stop stop-opacity="1" stop-color="rgb(83.421326%, 94.775391%, 94.796753%)" offset="0.015625"/><stop stop-opacity="1" stop-color="rgb(83.102417%, 94.692993%, 94.729614%)" offset="0.0234375"/><stop stop-opacity="1" stop-color="rgb(82.783508%, 94.610596%, 94.662476%)" offset="0.03125"/><stop stop-opacity="1" stop-color="rgb(82.4646%, 94.528198%, 94.593811%)" offset="0.0390625"/><stop stop-opacity="1" stop-color="rgb(82.145691%, 94.445801%, 94.526672%)" offset="0.046875"/><stop stop-opacity="1" stop-color="rgb(81.826782%, 94.363403%, 94.459534%)" offset="0.0546875"/><stop stop-opacity="1" stop-color="rgb(81.509399%, 94.281006%, 94.390869%)" offset="0.0625"/><stop stop-opacity="1" stop-color="rgb(81.190491%, 94.198608%, 94.32373%)" offset="0.0703125"/><stop stop-opacity="1" stop-color="rgb(80.871582%, 94.116211%, 94.256592%)" offset="0.078125"/><stop stop-opacity="1" stop-color="rgb(80.552673%, 94.033813%, 94.187927%)" offset="0.0859375"/><stop stop-opacity="1" stop-color="rgb(80.233765%, 93.951416%, 94.120789%)" offset="0.09375"/><stop stop-opacity="1" stop-color="rgb(79.914856%, 93.869019%, 94.05365%)" offset="0.101562"/><stop stop-opacity="1" stop-color="rgb(79.597473%, 93.786621%, 93.984985%)" offset="0.109375"/><stop stop-opacity="1" stop-color="rgb(79.278564%, 93.704224%, 93.917847%)" offset="0.117188"/><stop stop-opacity="1" stop-color="rgb(78.959656%, 93.621826%, 93.850708%)" offset="0.125"/><stop stop-opacity="1" stop-color="rgb(78.640747%, 93.539429%, 93.782043%)" offset="0.132812"/><stop stop-opacity="1" stop-color="rgb(78.321838%, 93.457031%, 93.714905%)" offset="0.140625"/><stop stop-opacity="1" stop-color="rgb(78.00293%, 93.374634%, 93.647766%)" offset="0.148438"/><stop stop-opacity="1" stop-color="rgb(77.685547%, 93.292236%, 93.579102%)" offset="0.15625"/><stop stop-opacity="1" stop-color="rgb(77.366638%, 93.209839%, 93.511963%)" offset="0.164063"/><stop stop-opacity="1" stop-color="rgb(77.047729%, 93.127441%, 93.444824%)" offset="0.171875"/><stop stop-opacity="1" stop-color="rgb(76.728821%, 93.045044%, 93.37616%)" offset="0.179688"/><stop stop-opacity="1" stop-color="rgb(76.409912%, 92.962646%, 93.309021%)" offset="0.1875"/><stop stop-opacity="1" stop-color="rgb(76.091003%, 92.880249%, 93.241882%)" offset="0.195313"/><stop stop-opacity="1" stop-color="rgb(75.773621%, 92.797852%, 93.173218%)" offset="0.203125"/><stop stop-opacity="1" stop-color="rgb(75.454712%, 92.715454%, 93.106079%)" offset="0.210938"/><stop stop-opacity="1" stop-color="rgb(75.135803%, 92.633057%, 93.037415%)" offset="0.21875"/><stop stop-opacity="1" stop-color="rgb(74.816895%, 92.550659%, 92.970276%)" offset="0.226563"/><stop stop-opacity="1" stop-color="rgb(74.497986%, 92.468262%, 92.903137%)" offset="0.234375"/><stop stop-opacity="1" stop-color="rgb(74.179077%, 92.384338%, 92.834473%)" offset="0.242188"/><stop stop-opacity="1" stop-color="rgb(73.861694%, 92.301941%, 92.767334%)" offset="0.25"/><stop stop-opacity="1" stop-color="rgb(73.542786%, 92.219543%, 92.700195%)" offset="0.257813"/><stop stop-opacity="1" stop-color="rgb(73.223877%, 92.137146%, 92.631531%)" offset="0.265625"/><stop stop-opacity="1" stop-color="rgb(72.904968%, 92.054749%, 92.564392%)" offset="0.273438"/><stop stop-opacity="1" stop-color="rgb(72.58606%, 91.972351%, 92.497253%)" offset="0.28125"/><stop stop-opacity="1" stop-color="rgb(72.267151%, 91.889954%, 92.428589%)" offset="0.289063"/><stop stop-opacity="1" stop-color="rgb(71.949768%, 91.807556%, 92.36145%)" offset="0.296875"/><stop stop-opacity="1" stop-color="rgb(71.630859%, 91.725159%, 92.294312%)" offset="0.304688"/><stop stop-opacity="1" stop-color="rgb(71.311951%, 91.642761%, 92.225647%)" offset="0.3125"/><stop stop-opacity="1" stop-color="rgb(70.993042%, 91.560364%, 92.158508%)" offset="0.320313"/><stop stop-opacity="1" stop-color="rgb(70.674133%, 91.477966%, 92.09137%)" offset="0.328125"/><stop stop-opacity="1" stop-color="rgb(70.355225%, 91.395569%, 92.022705%)" offset="0.335938"/><stop stop-opacity="1" stop-color="rgb(70.037842%, 91.313171%, 91.955566%)" offset="0.34375"/><stop stop-opacity="1" stop-color="rgb(69.718933%, 91.230774%, 91.888428%)" offset="0.351563"/><stop stop-opacity="1" stop-color="rgb(69.400024%, 91.148376%, 91.819763%)" offset="0.359375"/><stop stop-opacity="1" stop-color="rgb(69.081116%, 91.065979%, 91.752625%)" offset="0.367188"/><stop stop-opacity="1" stop-color="rgb(68.762207%, 90.983582%, 91.685486%)" offset="0.375"/><stop stop-opacity="1" stop-color="rgb(68.443298%, 90.901184%, 91.616821%)" offset="0.382813"/><stop stop-opacity="1" stop-color="rgb(68.125916%, 90.818787%, 91.549683%)" offset="0.390625"/><stop stop-opacity="1" stop-color="rgb(67.807007%, 90.736389%, 91.481018%)" offset="0.398438"/><stop stop-opacity="1" stop-color="rgb(67.488098%, 90.653992%, 91.413879%)" offset="0.40625"/><stop stop-opacity="1" stop-color="rgb(67.169189%, 90.571594%, 91.346741%)" offset="0.414063"/><stop stop-opacity="1" stop-color="rgb(66.850281%, 90.489197%, 91.278076%)" offset="0.421875"/><stop stop-opacity="1" stop-color="rgb(66.531372%, 90.406799%, 91.210938%)" offset="0.429688"/><stop stop-opacity="1" stop-color="rgb(66.213989%, 90.324402%, 91.143799%)" offset="0.4375"/><stop stop-opacity="1" stop-color="rgb(65.895081%, 90.242004%, 91.075134%)" offset="0.445313"/><stop stop-opacity="1" stop-color="rgb(65.576172%, 90.159607%, 91.007996%)" offset="0.453125"/><stop stop-opacity="1" stop-color="rgb(65.257263%, 90.077209%, 90.940857%)" offset="0.460938"/><stop stop-opacity="1" stop-color="rgb(64.938354%, 89.994812%, 90.872192%)" offset="0.46875"/><stop stop-opacity="1" stop-color="rgb(64.619446%, 89.912415%, 90.805054%)" offset="0.476563"/><stop stop-opacity="1" stop-color="rgb(64.302063%, 89.830017%, 90.737915%)" offset="0.484375"/><stop stop-opacity="1" stop-color="rgb(63.983154%, 89.74762%, 90.66925%)" offset="0.492188"/><stop stop-opacity="1" stop-color="rgb(63.664246%, 89.665222%, 90.602112%)" offset="0.5"/><stop stop-opacity="1" stop-color="rgb(63.345337%, 89.582825%, 90.534973%)" offset="0.507813"/><stop stop-opacity="1" stop-color="rgb(63.026428%, 89.500427%, 90.466309%)" offset="0.515625"/><stop stop-opacity="1" stop-color="rgb(62.70752%, 89.41803%, 90.39917%)" offset="0.523438"/><stop stop-opacity="1" stop-color="rgb(62.390137%, 89.335632%, 90.332031%)" offset="0.53125"/><stop stop-opacity="1" stop-color="rgb(62.071228%, 89.253235%, 90.263367%)" offset="0.539062"/><stop stop-opacity="1" stop-color="rgb(61.752319%, 89.170837%, 90.196228%)" offset="0.546875"/><stop stop-opacity="1" stop-color="rgb(61.433411%, 89.08844%, 90.129089%)" offset="0.554688"/><stop stop-opacity="1" stop-color="rgb(61.114502%, 89.006042%, 90.060425%)" offset="0.5625"/><stop stop-opacity="1" stop-color="rgb(60.795593%, 88.923645%, 89.993286%)" offset="0.570312"/><stop stop-opacity="1" stop-color="rgb(60.47821%, 88.841248%, 89.926147%)" offset="0.578125"/><stop stop-opacity="1" stop-color="rgb(60.159302%, 88.75885%, 89.857483%)" offset="0.585938"/><stop stop-opacity="1" stop-color="rgb(59.840393%, 88.674927%, 89.790344%)" offset="0.59375"/><stop stop-opacity="1" stop-color="rgb(59.521484%, 88.592529%, 89.72168%)" offset="0.601562"/><stop stop-opacity="1" stop-color="rgb(59.202576%, 88.510132%, 89.654541%)" offset="0.609375"/><stop stop-opacity="1" stop-color="rgb(58.885193%, 88.427734%, 89.587402%)" offset="0.617187"/><stop stop-opacity="1" stop-color="rgb(58.566284%, 88.345337%, 89.518738%)" offset="0.625"/><stop stop-opacity="1" stop-color="rgb(58.534241%, 88.343811%, 89.524841%)" offset="0.640625"/><stop stop-opacity="1" stop-color="rgb(59.120178%, 88.513184%, 89.682007%)" offset="0.644531"/><stop stop-opacity="1" stop-color="rgb(59.579468%, 88.642883%, 89.797974%)" offset="0.648438"/><stop stop-opacity="1" stop-color="rgb(60.038757%, 88.772583%, 89.91394%)" offset="0.652344"/><stop stop-opacity="1" stop-color="rgb(60.499573%, 88.902283%, 90.029907%)" offset="0.65625"/><stop stop-opacity="1" stop-color="rgb(60.958862%, 89.030457%, 90.145874%)" offset="0.660156"/><stop stop-opacity="1" stop-color="rgb(61.418152%, 89.160156%, 90.261841%)" offset="0.664062"/><stop stop-opacity="1" stop-color="rgb(61.877441%, 89.28833%, 90.377808%)" offset="0.667969"/><stop stop-opacity="1" stop-color="rgb(62.338257%, 89.41803%, 90.493774%)" offset="0.671875"/><stop stop-opacity="1" stop-color="rgb(62.797546%, 89.546204%, 90.609741%)" offset="0.675781"/><stop stop-opacity="1" stop-color="rgb(63.256836%, 89.675903%, 90.725708%)" offset="0.679688"/><stop stop-opacity="1" stop-color="rgb(63.716125%, 89.804077%, 90.841675%)" offset="0.683594"/><stop stop-opacity="1" stop-color="rgb(64.175415%, 89.933777%, 90.957642%)" offset="0.6875"/><stop stop-opacity="1" stop-color="rgb(64.634705%, 90.063477%, 91.073608%)" offset="0.691406"/><stop stop-opacity="1" stop-color="rgb(65.09552%, 90.193176%, 91.189575%)" offset="0.695312"/><stop stop-opacity="1" stop-color="rgb(65.55481%, 90.32135%, 91.305542%)" offset="0.699219"/><stop stop-opacity="1" stop-color="rgb(66.014099%, 90.45105%, 91.421509%)" offset="0.703125"/><stop stop-opacity="1" stop-color="rgb(66.473389%, 90.579224%, 91.537476%)" offset="0.707031"/><stop stop-opacity="1" stop-color="rgb(66.932678%, 90.708923%, 91.653442%)" offset="0.710938"/><stop stop-opacity="1" stop-color="rgb(67.391968%, 90.837097%, 91.769409%)" offset="0.714844"/><stop stop-opacity="1" stop-color="rgb(67.852783%, 90.966797%, 91.885376%)" offset="0.71875"/><stop stop-opacity="1" stop-color="rgb(68.312073%, 91.096497%, 92.001343%)" offset="0.722656"/><stop stop-opacity="1" stop-color="rgb(68.771362%, 91.226196%, 92.11731%)" offset="0.726562"/><stop stop-opacity="1" stop-color="rgb(69.230652%, 91.35437%, 92.233276%)" offset="0.730469"/><stop stop-opacity="1" stop-color="rgb(69.689941%, 91.48407%, 92.349243%)" offset="0.734375"/><stop stop-opacity="1" stop-color="rgb(70.149231%, 91.612244%, 92.46521%)" offset="0.738281"/><stop stop-opacity="1" stop-color="rgb(70.610046%, 91.741943%, 92.581177%)" offset="0.742187"/><stop stop-opacity="1" stop-color="rgb(71.069336%, 91.870117%, 92.697144%)" offset="0.746094"/><stop stop-opacity="1" stop-color="rgb(71.528625%, 91.999817%, 92.81311%)" offset="0.75"/><stop stop-opacity="1" stop-color="rgb(71.987915%, 92.129517%, 92.929077%)" offset="0.753906"/><stop stop-opacity="1" stop-color="rgb(72.447205%, 92.259216%, 93.045044%)" offset="0.757813"/><stop stop-opacity="1" stop-color="rgb(72.906494%, 92.38739%, 93.161011%)" offset="0.761719"/><stop stop-opacity="1" stop-color="rgb(73.36731%, 92.51709%, 93.278503%)" offset="0.765625"/><stop stop-opacity="1" stop-color="rgb(73.826599%, 92.645264%, 93.39447%)" offset="0.769531"/><stop stop-opacity="1" stop-color="rgb(74.285889%, 92.774963%, 93.510437%)" offset="0.773438"/><stop stop-opacity="1" stop-color="rgb(74.745178%, 92.903137%, 93.626404%)" offset="0.777344"/><stop stop-opacity="1" stop-color="rgb(75.204468%, 93.032837%, 93.742371%)" offset="0.78125"/><stop stop-opacity="1" stop-color="rgb(75.663757%, 93.162537%, 93.858337%)" offset="0.785156"/><stop stop-opacity="1" stop-color="rgb(76.124573%, 93.292236%, 93.974304%)" offset="0.789062"/><stop stop-opacity="1" stop-color="rgb(76.583862%, 93.42041%, 94.090271%)" offset="0.792969"/><stop stop-opacity="1" stop-color="rgb(77.043152%, 93.55011%, 94.206238%)" offset="0.796875"/><stop stop-opacity="1" stop-color="rgb(77.502441%, 93.678284%, 94.322205%)" offset="0.800781"/><stop stop-opacity="1" stop-color="rgb(77.963257%, 93.807983%, 94.438171%)" offset="0.804688"/><stop stop-opacity="1" stop-color="rgb(78.422546%, 93.936157%, 94.554138%)" offset="0.808594"/><stop stop-opacity="1" stop-color="rgb(78.881836%, 94.065857%, 94.670105%)" offset="0.8125"/><stop stop-opacity="1" stop-color="rgb(79.341125%, 94.194031%, 94.786072%)" offset="0.816406"/><stop stop-opacity="1" stop-color="rgb(79.800415%, 94.32373%, 94.902039%)" offset="0.820312"/><stop stop-opacity="1" stop-color="rgb(80.259705%, 94.45343%, 95.018005%)" offset="0.824219"/><stop stop-opacity="1" stop-color="rgb(80.72052%, 94.58313%, 95.133972%)" offset="0.828125"/><stop stop-opacity="1" stop-color="rgb(81.17981%, 94.711304%, 95.249939%)" offset="0.832031"/><stop stop-opacity="1" stop-color="rgb(81.639099%, 94.841003%, 95.365906%)" offset="0.835938"/><stop stop-opacity="1" stop-color="rgb(82.098389%, 94.969177%, 95.481873%)" offset="0.839844"/><stop stop-opacity="1" stop-color="rgb(82.557678%, 95.098877%, 95.597839%)" offset="0.84375"/><stop stop-opacity="1" stop-color="rgb(83.016968%, 95.227051%, 95.713806%)" offset="0.847656"/><stop stop-opacity="1" stop-color="rgb(83.477783%, 95.35675%, 95.829773%)" offset="0.851562"/><stop stop-opacity="1" stop-color="rgb(83.937073%, 95.48645%, 95.94574%)" offset="0.855469"/><stop stop-opacity="1" stop-color="rgb(84.396362%, 95.61615%, 96.061707%)" offset="0.859375"/><stop stop-opacity="1" stop-color="rgb(84.855652%, 95.744324%, 96.177673%)" offset="0.863281"/><stop stop-opacity="1" stop-color="rgb(85.314941%, 95.874023%, 96.29364%)" offset="0.867187"/><stop stop-opacity="1" stop-color="rgb(85.774231%, 96.002197%, 96.409607%)" offset="0.871094"/><stop stop-opacity="1" stop-color="rgb(86.235046%, 96.131897%, 96.525574%)" offset="0.875"/><stop stop-opacity="1" stop-color="rgb(86.694336%, 96.260071%, 96.641541%)" offset="0.878906"/><stop stop-opacity="1" stop-color="rgb(87.153625%, 96.389771%, 96.757507%)" offset="0.882813"/><stop stop-opacity="1" stop-color="rgb(87.612915%, 96.51947%, 96.873474%)" offset="0.886719"/><stop stop-opacity="1" stop-color="rgb(88.072205%, 96.64917%, 96.989441%)" offset="0.890625"/><stop stop-opacity="1" stop-color="rgb(88.531494%, 96.777344%, 97.105408%)" offset="0.894531"/><stop stop-opacity="1" stop-color="rgb(88.99231%, 96.907043%, 97.221375%)" offset="0.898438"/><stop stop-opacity="1" stop-color="rgb(89.451599%, 97.035217%, 97.337341%)" offset="0.902344"/><stop stop-opacity="1" stop-color="rgb(89.910889%, 97.164917%, 97.453308%)" offset="0.90625"/><stop stop-opacity="1" stop-color="rgb(90.370178%, 97.293091%, 97.569275%)" offset="0.910156"/><stop stop-opacity="1" stop-color="rgb(90.829468%, 97.422791%, 97.685242%)" offset="0.914062"/><stop stop-opacity="1" stop-color="rgb(91.288757%, 97.550964%, 97.801208%)" offset="0.917969"/><stop stop-opacity="1" stop-color="rgb(91.749573%, 97.680664%, 97.917175%)" offset="0.921875"/><stop stop-opacity="1" stop-color="rgb(92.208862%, 97.810364%, 98.033142%)" offset="0.925781"/><stop stop-opacity="1" stop-color="rgb(92.668152%, 97.940063%, 98.149109%)" offset="0.929688"/><stop stop-opacity="1" stop-color="rgb(93.127441%, 98.068237%, 98.265076%)" offset="0.933594"/><stop stop-opacity="1" stop-color="rgb(93.588257%, 98.197937%, 98.381042%)" offset="0.9375"/><stop stop-opacity="1" stop-color="rgb(94.047546%, 98.326111%, 98.497009%)" offset="0.941406"/><stop stop-opacity="1" stop-color="rgb(94.506836%, 98.455811%, 98.612976%)" offset="0.945312"/><stop stop-opacity="1" stop-color="rgb(94.966125%, 98.583984%, 98.728943%)" offset="0.949219"/><stop stop-opacity="1" stop-color="rgb(95.425415%, 98.713684%, 98.84491%)" offset="0.953125"/><stop stop-opacity="1" stop-color="rgb(95.884705%, 98.843384%, 98.960876%)" offset="0.957031"/><stop stop-opacity="1" stop-color="rgb(96.34552%, 98.973083%, 99.076843%)" offset="0.960938"/><stop stop-opacity="1" stop-color="rgb(96.80481%, 99.101257%, 99.19281%)" offset="0.964844"/><stop stop-opacity="1" stop-color="rgb(97.264099%, 99.230957%, 99.308777%)" offset="0.96875"/><stop stop-opacity="1" stop-color="rgb(97.723389%, 99.359131%, 99.424744%)" offset="0.972656"/><stop stop-opacity="1" stop-color="rgb(98.182678%, 99.488831%, 99.54071%)" offset="0.976562"/><stop stop-opacity="1" stop-color="rgb(98.641968%, 99.617004%, 99.656677%)" offset="0.980469"/><stop stop-opacity="1" stop-color="rgb(99.102783%, 99.746704%, 99.772644%)" offset="0.984375"/><stop stop-opacity="1" stop-color="rgb(99.551392%, 99.873352%, 99.885559%)" offset="0.988281"/><stop stop-opacity="1" stop-color="rgb(100%, 100%, 100%)" offset="0.992187"/><stop stop-opacity="1" stop-color="rgb(100%, 100%, 100%)" offset="1"/></linearGradient><clipPath id="id6"><rect x="0" width="375" y="0" height="375"/></clipPath></defs><g mask="url(#id2)"><g transform="matrix(1, 0, 0, 1, 0, 0)"><g clip-path="url(#id6)"><g clip-path="url(#id3)"><g clip-path="url(#id4)"><rect x="-82.5" fill="url(#id5)" width="540" height="539.999987" y="-82.499998"/></g></g></g></g></g></svg>