<svg xmlns="http://www.w3.org/2000/svg" xmlns:xlink="http://www.w3.org/1999/xlink" width="500" zoomAndPan="magnify" viewBox="0 0 375 374.999991" height="500" preserveAspectRatio="xMidYMid meet" version="1.0"><defs><clipPath id="id1"><path d="M 8 0 L 367.21875 0 L 367.21875 375 L 8 375 Z M 8 0 " clip-rule="nonzero"/></clipPath></defs><g clip-path="url(#id1)"><path fill="rgb(100%, 100%, 100%)" d="M 367.003906 186.511719 C 367.003906 150.554688 351.082031 118.273438 325.734375 96.125 C 317.839844 89.222656 312.414062 80.03125 309.808594 69.898438 C 299.449219 29.769531 262.441406 0.0429688 218.390625 0.0429688 C 196.675781 0 175.640625 7.351562 158.726562 20.9375 C 149.21875 28.605469 137.195312 32.59375 124.902344 32.550781 L 124.679688 32.550781 C 60.351562 32.59375 8.183594 85.859375 8.183594 151.585938 C 8.183594 188.890625 25.003906 222.15625 51.292969 243.992188 C 64.164062 254.617188 71.207031 270.714844 70.222656 287.390625 C 70.132812 288.648438 70.085938 289.949219 70.085938 291.25 C 70.085938 337.519531 121.585938 375 185.105469 375 C 239.472656 375 285.003906 347.515625 297.027344 310.570312 C 300.480469 299.992188 307.34375 290.800781 316.496094 284.253906 C 347.085938 262.238281 367.003906 226.6875 367.003906 186.511719 Z M 367.003906 186.511719 " fill-opacity="1" fill-rule="nonzero"/></g><path fill="rgb(94.119263%, 30.589294%, 13.729858%)" d="M 156.035156 169.117188 C 152.894531 167.414062 156.035156 162.976562 158.503906 164.453125 C 160.96875 165.980469 160.117188 171.316406 156.035156 169.117188 Z M 156.035156 169.117188 " fill-opacity="1" fill-rule="nonzero"/><path fill="rgb(94.119263%, 30.589294%, 13.729858%)" d="M 233.101562 200.367188 C 236.289062 198.753906 238.125 203.910156 235.480469 205.03125 C 232.832031 206.195312 228.929688 202.476562 233.101562 200.367188 Z M 233.101562 200.367188 " fill-opacity="1" fill-rule="nonzero"/><path fill="rgb(94.119263%, 30.589294%, 13.729858%)" d="M 162.449219 180.148438 C 160.523438 178.128906 163.167969 174.675781 164.605469 177.367188 C 166.039062 180.101562 164.066406 181.804688 162.449219 180.148438 Z M 162.449219 180.148438 " fill-opacity="1" fill-rule="nonzero"/><path fill="rgb(94.119263%, 30.589294%, 13.729858%)" d="M 244.003906 181.179688 C 245.796875 183.152344 242.972656 185.707031 241.714844 183.195312 C 240.460938 180.730469 242.523438 179.5625 244.003906 181.179688 Z M 244.003906 181.179688 " fill-opacity="1" fill-rule="nonzero"/><path fill="rgb(94.119263%, 30.589294%, 13.729858%)" d="M 190.269531 234.980469 C 192.0625 236.953125 189.238281 239.507812 187.980469 236.996094 C 186.726562 234.53125 188.789062 233.367188 190.269531 234.980469 Z M 190.269531 234.980469 " fill-opacity="1" fill-rule="nonzero"/><path fill="rgb(94.119263%, 30.589294%, 13.729858%)" d="M 211.617188 144.144531 C 209.238281 145.398438 207.488281 141.320312 210.226562 140.691406 C 212.960938 140.066406 213.542969 143.15625 211.617188 144.144531 Z M 211.617188 144.144531 " fill-opacity="1" fill-rule="nonzero"/><path fill="rgb(100%, 70.588684%, 0%)" d="M 318.289062 246.996094 C 318.289062 247.222656 318.246094 247.4375 318.160156 247.648438 C 318.074219 247.855469 317.949219 248.039062 317.789062 248.199219 C 317.628906 248.359375 317.445312 248.484375 317.238281 248.570312 C 317.027344 248.65625 316.808594 248.699219 316.585938 248.699219 C 316.359375 248.699219 316.140625 248.65625 315.933594 248.570312 C 315.722656 248.484375 315.539062 248.359375 315.378906 248.199219 C 315.21875 248.039062 315.09375 247.855469 315.007812 247.648438 C 314.921875 247.4375 314.878906 247.222656 314.878906 246.996094 C 314.878906 246.769531 314.921875 246.550781 315.007812 246.34375 C 315.09375 246.136719 315.21875 245.949219 315.378906 245.792969 C 315.539062 245.632812 315.722656 245.507812 315.933594 245.421875 C 316.140625 245.335938 316.359375 245.292969 316.585938 245.292969 C 316.808594 245.292969 317.027344 245.335938 317.238281 245.421875 C 317.445312 245.507812 317.628906 245.632812 317.789062 245.792969 C 317.949219 245.949219 318.074219 246.136719 318.160156 246.34375 C 318.246094 246.550781 318.289062 246.769531 318.289062 246.996094 Z M 318.289062 246.996094 " fill-opacity="1" fill-rule="nonzero"/><path fill="rgb(100%, 70.588684%, 0%)" d="M 181.203125 344.765625 C 181.203125 344.992188 181.15625 345.210938 181.070312 345.417969 C 180.984375 345.628906 180.863281 345.8125 180.703125 345.972656 C 180.542969 346.128906 180.359375 346.253906 180.148438 346.339844 C 179.941406 346.425781 179.722656 346.46875 179.496094 346.46875 C 179.269531 346.46875 179.054688 346.425781 178.84375 346.339844 C 178.636719 346.253906 178.453125 346.128906 178.292969 345.972656 C 178.132812 345.8125 178.007812 345.628906 177.921875 345.417969 C 177.835938 345.210938 177.792969 344.992188 177.792969 344.765625 C 177.792969 344.539062 177.835938 344.324219 177.921875 344.113281 C 178.007812 343.90625 178.132812 343.722656 178.292969 343.5625 C 178.453125 343.402344 178.636719 343.277344 178.84375 343.191406 C 179.054688 343.105469 179.269531 343.0625 179.496094 343.0625 C 179.722656 343.0625 179.941406 343.105469 180.148438 343.191406 C 180.359375 343.277344 180.542969 343.402344 180.703125 343.5625 C 180.863281 343.722656 180.984375 343.90625 181.070312 344.113281 C 181.15625 344.324219 181.203125 344.539062 181.203125 344.765625 Z M 181.203125 344.765625 " fill-opacity="1" fill-rule="nonzero"/><path fill="rgb(100%, 70.588684%, 0%)" d="M 282.355469 276.8125 C 282.355469 277.039062 282.3125 277.253906 282.226562 277.464844 C 282.140625 277.671875 282.019531 277.855469 281.859375 278.015625 C 281.699219 278.175781 281.511719 278.300781 281.304688 278.386719 C 281.097656 278.472656 280.878906 278.515625 280.652344 278.515625 C 280.425781 278.515625 280.210938 278.472656 280 278.386719 C 279.792969 278.300781 279.605469 278.175781 279.445312 278.015625 C 279.289062 277.855469 279.164062 277.671875 279.078125 277.464844 C 278.992188 277.253906 278.949219 277.039062 278.949219 276.8125 C 278.949219 276.585938 278.992188 276.367188 279.078125 276.160156 C 279.164062 275.949219 279.289062 275.765625 279.445312 275.605469 C 279.605469 275.445312 279.792969 275.324219 280 275.238281 C 280.210938 275.152344 280.425781 275.109375 280.652344 275.109375 C 280.878906 275.109375 281.097656 275.152344 281.304688 275.238281 C 281.511719 275.324219 281.699219 275.445312 281.859375 275.605469 C 282.019531 275.765625 282.140625 275.949219 282.226562 276.160156 C 282.3125 276.367188 282.355469 276.585938 282.355469 276.8125 Z M 282.355469 276.8125 " fill-opacity="1" fill-rule="nonzero"/><path fill="rgb(100%, 70.588684%, 0%)" d="M 41.289062 196.0625 C 41.289062 196.289062 41.246094 196.507812 41.160156 196.714844 C 41.070312 196.925781 40.949219 197.109375 40.789062 197.269531 C 40.628906 197.429688 40.445312 197.550781 40.234375 197.636719 C 40.027344 197.722656 39.808594 197.765625 39.582031 197.765625 C 39.355469 197.765625 39.140625 197.722656 38.929688 197.636719 C 38.722656 197.550781 38.539062 197.429688 38.378906 197.269531 C 38.21875 197.109375 38.09375 196.925781 38.007812 196.714844 C 37.921875 196.507812 37.878906 196.289062 37.878906 196.0625 C 37.878906 195.835938 37.921875 195.621094 38.007812 195.410156 C 38.09375 195.203125 38.21875 195.019531 38.378906 194.859375 C 38.539062 194.699219 38.722656 194.574219 38.929688 194.488281 C 39.140625 194.402344 39.355469 194.359375 39.582031 194.359375 C 39.808594 194.359375 40.027344 194.402344 40.234375 194.488281 C 40.445312 194.574219 40.628906 194.699219 40.789062 194.859375 C 40.949219 195.019531 41.070312 195.203125 41.160156 195.410156 C 41.246094 195.621094 41.289062 195.835938 41.289062 196.0625 Z M 41.289062 196.0625 " fill-opacity="1" fill-rule="nonzero"/><path fill="rgb(100%, 70.588684%, 0%)" d="M 101.578125 203.101562 C 101.578125 203.328125 101.535156 203.546875 101.449219 203.753906 C 101.363281 203.964844 101.238281 204.148438 101.078125 204.308594 C 100.917969 204.46875 100.734375 204.589844 100.527344 204.675781 C 100.316406 204.761719 100.097656 204.804688 99.875 204.804688 C 99.648438 204.804688 99.429688 204.761719 99.222656 204.675781 C 99.011719 204.589844 98.828125 204.46875 98.667969 204.308594 C 98.507812 204.148438 98.382812 203.964844 98.296875 203.753906 C 98.210938 203.546875 98.167969 203.328125 98.167969 203.101562 C 98.167969 202.875 98.210938 202.660156 98.296875 202.449219 C 98.382812 202.242188 98.507812 202.058594 98.667969 201.898438 C 98.828125 201.738281 99.011719 201.613281 99.222656 201.527344 C 99.429688 201.441406 99.648438 201.398438 99.875 201.398438 C 100.097656 201.398438 100.316406 201.441406 100.527344 201.527344 C 100.734375 201.613281 100.917969 201.738281 101.078125 201.898438 C 101.238281 202.058594 101.363281 202.242188 101.449219 202.449219 C 101.535156 202.660156 101.578125 202.875 101.578125 203.101562 Z M 101.578125 203.101562 " fill-opacity="1" fill-rule="nonzero"/><path fill="rgb(100%, 70.588684%, 0%)" d="M 36.710938 127.242188 C 36.710938 127.46875 36.667969 127.683594 36.582031 127.894531 C 36.496094 128.101562 36.371094 128.285156 36.214844 128.445312 C 36.054688 128.605469 35.867188 128.730469 35.660156 128.816406 C 35.453125 128.902344 35.234375 128.945312 35.007812 128.945312 C 34.78125 128.945312 34.5625 128.902344 34.355469 128.816406 C 34.148438 128.730469 33.960938 128.605469 33.800781 128.445312 C 33.644531 128.285156 33.519531 128.101562 33.433594 127.894531 C 33.347656 127.683594 33.304688 127.46875 33.304688 127.242188 C 33.304688 127.015625 33.347656 126.796875 33.433594 126.589844 C 33.519531 126.382812 33.644531 126.195312 33.800781 126.035156 C 33.960938 125.878906 34.148438 125.753906 34.355469 125.667969 C 34.5625 125.582031 34.78125 125.539062 35.007812 125.539062 C 35.234375 125.539062 35.453125 125.582031 35.660156 125.667969 C 35.867188 125.753906 36.054688 125.878906 36.214844 126.035156 C 36.371094 126.195312 36.496094 126.382812 36.582031 126.589844 C 36.667969 126.796875 36.710938 127.015625 36.710938 127.242188 Z M 36.710938 127.242188 " fill-opacity="1" fill-rule="nonzero"/><path fill="rgb(100%, 70.588684%, 0%)" d="M 158.996094 48.019531 C 158.996094 48.246094 158.953125 48.460938 158.867188 48.671875 C 158.78125 48.878906 158.65625 49.0625 158.496094 49.222656 C 158.335938 49.382812 158.152344 49.507812 157.945312 49.59375 C 157.734375 49.679688 157.519531 49.722656 157.292969 49.722656 C 157.066406 49.722656 156.847656 49.679688 156.640625 49.59375 C 156.429688 49.507812 156.246094 49.382812 156.085938 49.222656 C 155.925781 49.0625 155.804688 48.878906 155.71875 48.671875 C 155.628906 48.460938 155.585938 48.246094 155.585938 48.019531 C 155.585938 47.792969 155.628906 47.574219 155.71875 47.367188 C 155.804688 47.15625 155.925781 46.972656 156.085938 46.8125 C 156.246094 46.652344 156.429688 46.53125 156.640625 46.445312 C 156.847656 46.359375 157.066406 46.316406 157.292969 46.316406 C 157.519531 46.316406 157.734375 46.359375 157.945312 46.445312 C 158.152344 46.53125 158.335938 46.652344 158.496094 46.8125 C 158.65625 46.972656 158.78125 47.15625 158.867188 47.367188 C 158.953125 47.574219 158.996094 47.792969 158.996094 48.019531 Z M 158.996094 48.019531 " fill-opacity="1" fill-rule="nonzero"/><path fill="rgb(100%, 70.588684%, 0%)" d="M 171.421875 34.476562 C 171.421875 34.703125 171.378906 34.921875 171.292969 35.128906 C 171.207031 35.339844 171.082031 35.523438 170.921875 35.683594 C 170.761719 35.84375 170.578125 35.964844 170.371094 36.050781 C 170.160156 36.136719 169.945312 36.183594 169.71875 36.183594 C 169.492188 36.183594 169.273438 36.136719 169.066406 36.050781 C 168.855469 35.964844 168.671875 35.84375 168.511719 35.683594 C 168.351562 35.523438 168.230469 35.339844 168.144531 35.128906 C 168.054688 34.921875 168.011719 34.703125 168.011719 34.476562 C 168.011719 34.253906 168.054688 34.035156 168.144531 33.824219 C 168.230469 33.617188 168.351562 33.433594 168.511719 33.273438 C 168.671875 33.113281 168.855469 32.992188 169.066406 32.902344 C 169.273438 32.816406 169.492188 32.773438 169.71875 32.773438 C 169.945312 32.773438 170.160156 32.816406 170.371094 32.902344 C 170.578125 32.992188 170.761719 33.113281 170.921875 33.273438 C 171.082031 33.433594 171.207031 33.617188 171.292969 33.824219 C 171.378906 34.035156 171.421875 34.253906 171.421875 34.476562 Z M 171.421875 34.476562 " fill-opacity="1" fill-rule="nonzero"/><path fill="rgb(100%, 70.588684%, 0%)" d="M 89.914062 265.421875 C 89.914062 265.648438 89.871094 265.867188 89.785156 266.074219 C 89.699219 266.285156 89.574219 266.46875 89.414062 266.628906 C 89.253906 266.789062 89.070312 266.910156 88.863281 266.996094 C 88.652344 267.082031 88.4375 267.125 88.210938 267.125 C 87.984375 267.125 87.765625 267.082031 87.558594 266.996094 C 87.347656 266.910156 87.164062 266.789062 87.003906 266.628906 C 86.84375 266.46875 86.722656 266.285156 86.636719 266.074219 C 86.546875 265.867188 86.503906 265.648438 86.503906 265.421875 C 86.503906 265.199219 86.546875 264.980469 86.636719 264.769531 C 86.722656 264.5625 86.84375 264.378906 87.003906 264.21875 C 87.164062 264.058594 87.347656 263.9375 87.558594 263.847656 C 87.765625 263.761719 87.984375 263.71875 88.210938 263.71875 C 88.4375 263.71875 88.652344 263.761719 88.863281 263.847656 C 89.070312 263.9375 89.253906 264.058594 89.414062 264.21875 C 89.574219 264.378906 89.699219 264.5625 89.785156 264.769531 C 89.871094 264.980469 89.914062 265.199219 89.914062 265.421875 Z M 89.914062 265.421875 " fill-opacity="1" fill-rule="nonzero"/><path fill="rgb(100%, 70.588684%, 0%)" d="M 143.160156 270.175781 C 143.160156 270.402344 143.117188 270.617188 143.03125 270.828125 C 142.945312 271.035156 142.820312 271.21875 142.664062 271.378906 C 142.503906 271.539062 142.316406 271.664062 142.109375 271.75 C 141.898438 271.835938 141.683594 271.878906 141.457031 271.878906 C 141.230469 271.878906 141.011719 271.835938 140.804688 271.75 C 140.59375 271.664062 140.410156 271.539062 140.25 271.378906 C 140.089844 271.21875 139.96875 271.035156 139.882812 270.828125 C 139.796875 270.617188 139.753906 270.402344 139.753906 270.175781 C 139.753906 269.949219 139.796875 269.734375 139.882812 269.523438 C 139.96875 269.316406 140.089844 269.128906 140.25 268.972656 C 140.410156 268.8125 140.59375 268.6875 140.804688 268.601562 C 141.011719 268.515625 141.230469 268.472656 141.457031 268.472656 C 141.683594 268.472656 141.898438 268.515625 142.109375 268.601562 C 142.316406 268.6875 142.503906 268.8125 142.664062 268.972656 C 142.820312 269.128906 142.945312 269.316406 143.03125 269.523438 C 143.117188 269.734375 143.160156 269.949219 143.160156 270.175781 Z M 143.160156 270.175781 " fill-opacity="1" fill-rule="nonzero"/><path fill="rgb(100%, 70.588684%, 0%)" d="M 223.816406 298.765625 C 223.816406 298.992188 223.773438 299.210938 223.6875 299.417969 C 223.601562 299.628906 223.476562 299.8125 223.316406 299.972656 C 223.15625 300.132812 222.972656 300.253906 222.765625 300.339844 C 222.554688 300.429688 222.339844 300.472656 222.113281 300.472656 C 221.886719 300.472656 221.667969 300.429688 221.460938 300.339844 C 221.25 300.253906 221.066406 300.132812 220.90625 299.972656 C 220.746094 299.8125 220.625 299.628906 220.539062 299.417969 C 220.449219 299.210938 220.40625 298.992188 220.40625 298.765625 C 220.40625 298.542969 220.449219 298.324219 220.539062 298.117188 C 220.625 297.90625 220.746094 297.722656 220.90625 297.5625 C 221.066406 297.402344 221.25 297.28125 221.460938 297.191406 C 221.667969 297.105469 221.886719 297.0625 222.113281 297.0625 C 222.339844 297.0625 222.554688 297.105469 222.765625 297.195312 C 222.972656 297.28125 223.15625 297.402344 223.316406 297.5625 C 223.476562 297.722656 223.601562 297.90625 223.6875 298.117188 C 223.773438 298.324219 223.816406 298.542969 223.816406 298.765625 Z M 223.816406 298.765625 " fill-opacity="1" fill-rule="nonzero"/><path fill="rgb(100%, 70.588684%, 0%)" d="M 305.550781 113.925781 C 305.550781 114.152344 305.503906 114.367188 305.417969 114.578125 C 305.332031 114.785156 305.210938 114.96875 305.050781 115.128906 C 304.890625 115.289062 304.707031 115.414062 304.496094 115.5 C 304.289062 115.585938 304.070312 115.628906 303.84375 115.628906 C 303.617188 115.628906 303.402344 115.585938 303.191406 115.5 C 302.984375 115.414062 302.796875 115.289062 302.640625 115.128906 C 302.480469 114.96875 302.355469 114.785156 302.269531 114.578125 C 302.183594 114.367188 302.140625 114.152344 302.140625 113.925781 C 302.140625 113.699219 302.183594 113.484375 302.269531 113.273438 C 302.355469 113.066406 302.480469 112.878906 302.640625 112.722656 C 302.796875 112.5625 302.984375 112.4375 303.191406 112.351562 C 303.402344 112.265625 303.617188 112.222656 303.84375 112.222656 C 304.070312 112.222656 304.289062 112.265625 304.496094 112.351562 C 304.707031 112.4375 304.890625 112.5625 305.050781 112.722656 C 305.210938 112.878906 305.332031 113.066406 305.417969 113.273438 C 305.503906 113.484375 305.550781 113.699219 305.550781 113.925781 Z M 305.550781 113.925781 " fill-opacity="1" fill-rule="nonzero"/><path fill="rgb(100%, 70.588684%, 0%)" d="M 261.230469 34.476562 C 261.230469 34.703125 261.183594 34.921875 261.097656 35.128906 C 261.011719 35.339844 260.890625 35.523438 260.730469 35.683594 C 260.570312 35.84375 260.386719 35.964844 260.175781 36.050781 C 259.96875 36.136719 259.75 36.183594 259.523438 36.183594 C 259.296875 36.183594 259.082031 36.136719 258.871094 36.050781 C 258.664062 35.964844 258.480469 35.84375 258.320312 35.683594 C 258.160156 35.523438 258.035156 35.339844 257.949219 35.128906 C 257.863281 34.921875 257.820312 34.703125 257.820312 34.476562 C 257.820312 34.253906 257.863281 34.035156 257.949219 33.824219 C 258.035156 33.617188 258.160156 33.433594 258.320312 33.273438 C 258.480469 33.113281 258.664062 32.992188 258.871094 32.902344 C 259.082031 32.816406 259.296875 32.773438 259.523438 32.773438 C 259.75 32.773438 259.96875 32.816406 260.175781 32.902344 C 260.386719 32.992188 260.570312 33.113281 260.730469 33.273438 C 260.890625 33.433594 261.011719 33.617188 261.097656 33.824219 C 261.183594 34.035156 261.230469 34.253906 261.230469 34.476562 Z M 261.230469 34.476562 " fill-opacity="1" fill-rule="nonzero"/><path fill="rgb(100%, 70.588684%, 0%)" d="M 349.464844 176.382812 C 349.464844 176.605469 349.421875 176.824219 349.335938 177.03125 C 349.25 177.242188 349.125 177.425781 348.964844 177.585938 C 348.804688 177.746094 348.621094 177.867188 348.414062 177.953125 C 348.203125 178.042969 347.988281 178.085938 347.761719 178.085938 C 347.535156 178.085938 347.316406 178.042969 347.109375 177.953125 C 346.898438 177.867188 346.714844 177.746094 346.554688 177.585938 C 346.394531 177.425781 346.273438 177.242188 346.1875 177.03125 C 346.097656 176.824219 346.054688 176.605469 346.054688 176.382812 C 346.054688 176.15625 346.097656 175.9375 346.1875 175.730469 C 346.273438 175.519531 346.394531 175.335938 346.554688 175.175781 C 346.714844 175.015625 346.898438 174.894531 347.109375 174.808594 C 347.316406 174.71875 347.535156 174.675781 347.761719 174.675781 C 347.988281 174.675781 348.203125 174.71875 348.414062 174.808594 C 348.621094 174.894531 348.804688 175.015625 348.964844 175.175781 C 349.125 175.335938 349.25 175.519531 349.335938 175.730469 C 349.421875 175.9375 349.464844 176.15625 349.464844 176.382812 Z M 349.464844 176.382812 " fill-opacity="1" fill-rule="nonzero"/><path fill="rgb(100%, 70.588684%, 0%)" d="M 268.855469 258.203125 C 268.855469 258.429688 268.8125 258.648438 268.726562 258.855469 C 268.636719 259.066406 268.515625 259.25 268.355469 259.410156 C 268.195312 259.570312 268.011719 259.691406 267.800781 259.777344 C 267.59375 259.863281 267.375 259.910156 267.148438 259.910156 C 266.925781 259.910156 266.707031 259.863281 266.496094 259.777344 C 266.289062 259.691406 266.105469 259.570312 265.945312 259.410156 C 265.785156 259.25 265.660156 259.066406 265.574219 258.855469 C 265.488281 258.648438 265.445312 258.429688 265.445312 258.203125 C 265.445312 257.980469 265.488281 257.761719 265.574219 257.550781 C 265.660156 257.34375 265.785156 257.160156 265.945312 257 C 266.105469 256.839844 266.289062 256.71875 266.496094 256.628906 C 266.707031 256.542969 266.925781 256.5 267.148438 256.5 C 267.375 256.5 267.59375 256.542969 267.800781 256.628906 C 268.011719 256.71875 268.195312 256.839844 268.355469 257 C 268.515625 257.160156 268.636719 257.34375 268.726562 257.554688 C 268.8125 257.761719 268.855469 257.980469 268.855469 258.203125 Z M 268.855469 258.203125 " fill-opacity="1" fill-rule="nonzero"/><path fill="rgb(100%, 70.588684%, 0%)" d="M 192.953125 329.851562 C 192.953125 330.207031 192.886719 330.550781 192.75 330.878906 C 192.613281 331.210938 192.417969 331.5 192.164062 331.753906 C 191.914062 332.003906 191.621094 332.199219 191.292969 332.335938 C 190.964844 332.472656 190.621094 332.542969 190.261719 332.542969 C 189.90625 332.542969 189.5625 332.472656 189.234375 332.335938 C 188.902344 332.199219 188.613281 332.003906 188.359375 331.753906 C 188.105469 331.5 187.914062 331.210938 187.777344 330.878906 C 187.640625 330.550781 187.570312 330.207031 187.570312 329.851562 C 187.570312 329.496094 187.640625 329.152344 187.777344 328.820312 C 187.914062 328.492188 188.105469 328.199219 188.359375 327.949219 C 188.613281 327.695312 188.902344 327.503906 189.234375 327.367188 C 189.5625 327.230469 189.90625 327.160156 190.261719 327.160156 C 190.621094 327.160156 190.964844 327.230469 191.292969 327.367188 C 191.621094 327.503906 191.914062 327.695312 192.164062 327.949219 C 192.417969 328.199219 192.613281 328.492188 192.75 328.820312 C 192.886719 329.152344 192.953125 329.496094 192.953125 329.851562 Z M 192.953125 329.851562 " fill-opacity="1" fill-rule="nonzero"/><path fill="rgb(100%, 70.588684%, 0%)" d="M 315.550781 105.585938 C 315.550781 105.941406 315.484375 106.285156 315.347656 106.617188 C 315.210938 106.945312 315.015625 107.238281 314.765625 107.488281 C 314.511719 107.742188 314.21875 107.933594 313.890625 108.070312 C 313.5625 108.207031 313.21875 108.277344 312.859375 108.277344 C 312.503906 108.277344 312.160156 108.207031 311.832031 108.070312 C 311.5 107.933594 311.210938 107.742188 310.957031 107.488281 C 310.707031 107.238281 310.511719 106.945312 310.375 106.617188 C 310.238281 106.285156 310.167969 105.941406 310.167969 105.585938 C 310.167969 105.230469 310.238281 104.886719 310.375 104.558594 C 310.511719 104.226562 310.707031 103.9375 310.957031 103.683594 C 311.210938 103.433594 311.5 103.238281 311.832031 103.101562 C 312.160156 102.964844 312.503906 102.894531 312.859375 102.894531 C 313.21875 102.894531 313.5625 102.964844 313.890625 103.101562 C 314.21875 103.238281 314.511719 103.433594 314.765625 103.683594 C 315.015625 103.9375 315.210938 104.226562 315.347656 104.558594 C 315.484375 104.886719 315.550781 105.230469 315.550781 105.585938 Z M 315.550781 105.585938 " fill-opacity="1" fill-rule="nonzero"/><path fill="rgb(100%, 70.588684%, 0%)" d="M 299.449219 59.09375 C 299.449219 59.449219 299.378906 59.792969 299.242188 60.121094 C 299.105469 60.453125 298.914062 60.742188 298.660156 60.996094 C 298.40625 61.246094 298.117188 61.441406 297.785156 61.578125 C 297.457031 61.714844 297.113281 61.78125 296.757812 61.78125 C 296.398438 61.78125 296.054688 61.714844 295.726562 61.578125 C 295.398438 61.441406 295.105469 61.246094 294.851562 60.996094 C 294.601562 60.742188 294.40625 60.453125 294.269531 60.121094 C 294.132812 59.792969 294.066406 59.449219 294.066406 59.09375 C 294.066406 58.734375 294.132812 58.394531 294.269531 58.0625 C 294.40625 57.734375 294.601562 57.441406 294.851562 57.191406 C 295.105469 56.9375 295.398438 56.742188 295.726562 56.605469 C 296.054688 56.46875 296.398438 56.402344 296.757812 56.402344 C 297.113281 56.402344 297.457031 56.46875 297.785156 56.605469 C 298.117188 56.742188 298.40625 56.9375 298.660156 57.191406 C 298.914062 57.441406 299.105469 57.734375 299.242188 58.0625 C 299.378906 58.394531 299.449219 58.734375 299.449219 59.09375 Z M 299.449219 59.09375 " fill-opacity="1" fill-rule="nonzero"/><path fill="rgb(100%, 70.588684%, 0%)" d="M 172.859375 71.46875 C 172.859375 71.824219 172.789062 72.167969 172.652344 72.496094 C 172.515625 72.824219 172.320312 73.117188 172.070312 73.371094 C 171.816406 73.621094 171.527344 73.816406 171.195312 73.953125 C 170.867188 74.089844 170.523438 74.15625 170.167969 74.15625 C 169.808594 74.15625 169.464844 74.089844 169.136719 73.953125 C 168.804688 73.816406 168.515625 73.621094 168.261719 73.371094 C 168.011719 73.117188 167.816406 72.824219 167.679688 72.496094 C 167.542969 72.167969 167.476562 71.824219 167.476562 71.46875 C 167.476562 71.109375 167.542969 70.765625 167.679688 70.4375 C 167.816406 70.109375 168.011719 69.816406 168.261719 69.566406 C 168.515625 69.3125 168.804688 69.117188 169.136719 68.980469 C 169.464844 68.84375 169.808594 68.777344 170.167969 68.777344 C 170.523438 68.777344 170.867188 68.84375 171.195312 68.980469 C 171.527344 69.117188 171.816406 69.3125 172.070312 69.566406 C 172.320312 69.816406 172.515625 70.109375 172.652344 70.4375 C 172.789062 70.765625 172.859375 71.109375 172.859375 71.46875 Z M 172.859375 71.46875 " fill-opacity="1" fill-rule="nonzero"/><path fill="rgb(100%, 70.588684%, 0%)" d="M 98.035156 244.800781 C 98.035156 245.15625 97.964844 245.5 97.828125 245.828125 C 97.691406 246.15625 97.496094 246.449219 97.246094 246.703125 C 96.992188 246.953125 96.703125 247.148438 96.371094 247.285156 C 96.042969 247.421875 95.699219 247.488281 95.34375 247.488281 C 94.984375 247.488281 94.640625 247.421875 94.3125 247.285156 C 93.984375 247.148438 93.691406 246.953125 93.4375 246.703125 C 93.1875 246.449219 92.992188 246.15625 92.855469 245.828125 C 92.71875 245.5 92.652344 245.15625 92.652344 244.800781 C 92.652344 244.441406 92.71875 244.097656 92.855469 243.769531 C 92.992188 243.441406 93.1875 243.148438 93.4375 242.898438 C 93.691406 242.644531 93.984375 242.449219 94.3125 242.3125 C 94.640625 242.175781 94.984375 242.109375 95.34375 242.109375 C 95.699219 242.109375 96.042969 242.175781 96.371094 242.3125 C 96.703125 242.449219 96.992188 242.644531 97.246094 242.898438 C 97.496094 243.148438 97.691406 243.441406 97.828125 243.769531 C 97.964844 244.097656 98.035156 244.441406 98.035156 244.800781 Z M 98.035156 244.800781 " fill-opacity="1" fill-rule="nonzero"/><path fill="rgb(100%, 70.588684%, 0%)" d="M 42.589844 209.335938 C 42.589844 209.691406 42.519531 210.035156 42.382812 210.363281 C 42.246094 210.695312 42.054688 210.984375 41.800781 211.238281 C 41.546875 211.488281 41.257812 211.683594 40.925781 211.820312 C 40.597656 211.957031 40.253906 212.023438 39.898438 212.023438 C 39.539062 212.023438 39.195312 211.957031 38.867188 211.820312 C 38.539062 211.683594 38.246094 211.488281 37.996094 211.238281 C 37.742188 210.984375 37.546875 210.695312 37.410156 210.363281 C 37.273438 210.035156 37.207031 209.691406 37.207031 209.335938 C 37.207031 208.976562 37.273438 208.632812 37.410156 208.304688 C 37.546875 207.976562 37.742188 207.683594 37.996094 207.433594 C 38.246094 207.179688 38.539062 206.984375 38.867188 206.847656 C 39.195312 206.710938 39.539062 206.644531 39.898438 206.644531 C 40.253906 206.644531 40.597656 206.710938 40.925781 206.847656 C 41.257812 206.984375 41.546875 207.179688 41.800781 207.433594 C 42.054688 207.683594 42.246094 207.976562 42.382812 208.304688 C 42.519531 208.632812 42.589844 208.976562 42.589844 209.335938 Z M 42.589844 209.335938 " fill-opacity="1" fill-rule="nonzero"/><path fill="rgb(100%, 70.588684%, 0%)" d="M 128 160.152344 C 128 160.507812 127.929688 160.851562 127.792969 161.179688 C 127.65625 161.507812 127.464844 161.800781 127.210938 162.054688 C 126.957031 162.304688 126.667969 162.5 126.335938 162.636719 C 126.007812 162.773438 125.664062 162.839844 125.308594 162.839844 C 124.949219 162.839844 124.609375 162.773438 124.277344 162.636719 C 123.949219 162.5 123.65625 162.304688 123.40625 162.054688 C 123.152344 161.800781 122.957031 161.507812 122.820312 161.179688 C 122.683594 160.851562 122.617188 160.507812 122.617188 160.152344 C 122.617188 159.792969 122.683594 159.449219 122.820312 159.121094 C 122.957031 158.792969 123.152344 158.5 123.40625 158.25 C 123.65625 157.996094 123.949219 157.800781 124.277344 157.664062 C 124.609375 157.527344 124.949219 157.460938 125.308594 157.460938 C 125.664062 157.460938 126.007812 157.527344 126.335938 157.664062 C 126.667969 157.800781 126.957031 157.996094 127.210938 158.25 C 127.464844 158.5 127.65625 158.792969 127.792969 159.121094 C 127.929688 159.449219 128 159.792969 128 160.152344 Z M 128 160.152344 " fill-opacity="1" fill-rule="nonzero"/><path fill="rgb(100%, 70.588684%, 0%)" d="M 239.4375 84.828125 C 239.4375 85.183594 239.371094 85.527344 239.234375 85.855469 C 239.097656 86.1875 238.902344 86.476562 238.652344 86.730469 C 238.398438 86.980469 238.109375 87.175781 237.777344 87.3125 C 237.449219 87.449219 237.105469 87.519531 236.746094 87.519531 C 236.390625 87.519531 236.046875 87.449219 235.71875 87.3125 C 235.386719 87.175781 235.097656 86.980469 234.84375 86.730469 C 234.59375 86.476562 234.398438 86.1875 234.261719 85.855469 C 234.125 85.527344 234.054688 85.183594 234.054688 84.828125 C 234.054688 84.472656 234.125 84.128906 234.261719 83.796875 C 234.398438 83.46875 234.59375 83.179688 234.84375 82.925781 C 235.097656 82.671875 235.386719 82.480469 235.71875 82.34375 C 236.046875 82.207031 236.390625 82.136719 236.746094 82.136719 C 237.105469 82.136719 237.449219 82.207031 237.777344 82.34375 C 238.109375 82.480469 238.398438 82.671875 238.652344 82.925781 C 238.902344 83.179688 239.097656 83.46875 239.234375 83.796875 C 239.371094 84.128906 239.4375 84.472656 239.4375 84.828125 Z M 239.4375 84.828125 " fill-opacity="1" fill-rule="nonzero"/><path fill="rgb(100%, 70.588684%, 0%)" d="M 60.21875 83.125 C 60.21875 83.351562 60.175781 83.566406 60.089844 83.777344 C 60.003906 83.984375 59.878906 84.167969 59.71875 84.328125 C 59.558594 84.488281 59.375 84.613281 59.164062 84.699219 C 58.957031 84.785156 58.738281 84.828125 58.511719 84.828125 C 58.289062 84.828125 58.070312 84.785156 57.859375 84.699219 C 57.652344 84.613281 57.46875 84.488281 57.308594 84.328125 C 57.148438 84.167969 57.023438 83.984375 56.9375 83.777344 C 56.851562 83.566406 56.808594 83.351562 56.808594 83.125 C 56.808594 82.898438 56.851562 82.679688 56.9375 82.472656 C 57.023438 82.261719 57.148438 82.078125 57.308594 81.917969 C 57.46875 81.757812 57.652344 81.636719 57.859375 81.550781 C 58.070312 81.464844 58.289062 81.421875 58.511719 81.421875 C 58.738281 81.421875 58.957031 81.464844 59.164062 81.550781 C 59.375 81.636719 59.558594 81.757812 59.71875 81.917969 C 59.878906 82.078125 60.003906 82.261719 60.089844 82.472656 C 60.175781 82.679688 60.21875 82.898438 60.21875 83.125 Z M 60.21875 83.125 " fill-opacity="1" fill-rule="nonzero"/><path fill="rgb(100%, 70.588684%, 0%)" d="M 65.152344 70.75 C 65.152344 71.105469 65.085938 71.449219 64.949219 71.777344 C 64.8125 72.109375 64.617188 72.398438 64.363281 72.652344 C 64.113281 72.902344 63.820312 73.097656 63.492188 73.234375 C 63.160156 73.371094 62.816406 73.441406 62.460938 73.441406 C 62.105469 73.441406 61.761719 73.371094 61.429688 73.234375 C 61.101562 73.097656 60.808594 72.902344 60.558594 72.652344 C 60.304688 72.398438 60.109375 72.109375 59.972656 71.777344 C 59.839844 71.449219 59.769531 71.105469 59.769531 70.75 C 59.769531 70.394531 59.839844 70.050781 59.972656 69.71875 C 60.109375 69.390625 60.304688 69.101562 60.558594 68.847656 C 60.808594 68.59375 61.101562 68.402344 61.429688 68.265625 C 61.761719 68.128906 62.105469 68.058594 62.460938 68.058594 C 62.816406 68.058594 63.160156 68.128906 63.492188 68.265625 C 63.820312 68.402344 64.113281 68.59375 64.363281 68.847656 C 64.617188 69.101562 64.8125 69.390625 64.949219 69.71875 C 65.085938 70.050781 65.152344 70.394531 65.152344 70.75 Z M 65.152344 70.75 " fill-opacity="1" fill-rule="nonzero"/><path fill="rgb(100%, 100%, 100%)" d="M 345.605469 301.867188 C 345.867188 302.324219 346.105469 302.792969 346.316406 303.277344 C 346.527344 303.761719 346.710938 304.257812 346.867188 304.765625 C 347.019531 305.273438 347.148438 305.789062 347.25 306.3125 C 347.347656 306.839844 347.417969 307.371094 347.460938 307.910156 C 347.503906 308.445312 347.515625 308.988281 347.5 309.535156 C 347.484375 310.082031 347.441406 310.628906 347.367188 311.175781 C 347.292969 311.722656 347.191406 312.273438 347.0625 312.816406 C 346.929688 313.363281 346.773438 313.90625 346.585938 314.441406 C 346.402344 314.980469 346.1875 315.511719 345.949219 316.035156 C 345.707031 316.5625 345.441406 317.074219 345.152344 317.582031 C 344.859375 318.089844 344.542969 318.582031 344.203125 319.066406 C 343.863281 319.550781 343.5 320.019531 343.113281 320.476562 C 342.730469 320.929688 342.320312 321.371094 341.894531 321.792969 C 341.46875 322.214844 341.019531 322.621094 340.554688 323.007812 C 340.089844 323.394531 339.609375 323.761719 339.109375 324.109375 C 338.613281 324.457031 338.097656 324.785156 337.574219 325.085938 C 337.046875 325.390625 336.507812 325.671875 335.957031 325.929688 C 335.40625 326.1875 334.847656 326.421875 334.28125 326.628906 C 333.710938 326.839844 333.136719 327.023438 332.558594 327.179688 C 331.976562 327.339844 331.394531 327.472656 330.804688 327.578125 C 330.21875 327.683594 329.628906 327.761719 329.039062 327.816406 C 328.453125 327.871094 327.863281 327.894531 327.28125 327.894531 C 326.695312 327.894531 326.117188 327.867188 325.542969 327.8125 C 324.96875 327.757812 324.402344 327.675781 323.84375 327.566406 C 323.28125 327.460938 322.734375 327.324219 322.195312 327.164062 C 321.660156 327.003906 321.132812 326.820312 320.621094 326.609375 C 320.109375 326.398438 319.613281 326.164062 319.132812 325.902344 C 318.652344 325.644531 318.1875 325.363281 317.742188 325.058594 C 317.296875 324.75 316.871094 324.425781 316.46875 324.074219 C 316.0625 323.726562 315.679688 323.359375 315.316406 322.96875 C 314.957031 322.582031 314.617188 322.175781 314.304688 321.75 C 313.992188 321.328125 313.703125 320.886719 313.4375 320.429688 C 313.175781 319.972656 312.9375 319.503906 312.726562 319.019531 C 312.515625 318.535156 312.332031 318.039062 312.175781 317.53125 C 312.019531 317.023438 311.890625 316.507812 311.792969 315.984375 C 311.695312 315.457031 311.621094 314.925781 311.582031 314.386719 C 311.539062 313.851562 311.527344 313.308594 311.542969 312.761719 C 311.558594 312.214844 311.601562 311.667969 311.675781 311.121094 C 311.75 310.574219 311.851562 310.027344 311.980469 309.480469 C 312.109375 308.933594 312.269531 308.390625 312.453125 307.855469 C 312.640625 307.316406 312.855469 306.785156 313.09375 306.261719 C 313.332031 305.738281 313.597656 305.222656 313.890625 304.714844 C 314.183594 304.207031 314.496094 303.714844 314.839844 303.230469 C 315.179688 302.746094 315.542969 302.277344 315.925781 301.820312 C 316.3125 301.367188 316.71875 300.925781 317.148438 300.503906 C 317.574219 300.082031 318.019531 299.675781 318.484375 299.289062 C 318.949219 298.902344 319.433594 298.535156 319.929688 298.1875 C 320.429688 297.839844 320.941406 297.511719 321.46875 297.210938 C 321.996094 296.90625 322.535156 296.625 323.085938 296.367188 C 323.632812 296.109375 324.191406 295.875 324.761719 295.667969 C 325.328125 295.457031 325.902344 295.273438 326.484375 295.117188 C 327.066406 294.957031 327.648438 294.824219 328.238281 294.71875 C 328.824219 294.613281 329.414062 294.535156 330 294.480469 C 330.589844 294.429688 331.175781 294.402344 331.761719 294.402344 C 332.34375 294.402344 332.925781 294.429688 333.5 294.484375 C 334.074219 294.539062 334.640625 294.621094 335.199219 294.730469 C 335.757812 294.835938 336.308594 294.972656 336.84375 295.132812 C 337.382812 295.292969 337.90625 295.476562 338.417969 295.6875 C 338.933594 295.898438 339.429688 296.132812 339.910156 296.394531 C 340.390625 296.652344 340.851562 296.933594 341.296875 297.238281 C 341.742188 297.546875 342.167969 297.871094 342.574219 298.222656 C 342.980469 298.570312 343.363281 298.9375 343.722656 299.328125 C 344.085938 299.714844 344.421875 300.121094 344.738281 300.546875 C 345.050781 300.972656 345.339844 301.410156 345.605469 301.867188 Z M 345.605469 301.867188 " fill-opacity="1" fill-rule="nonzero"/><path fill="rgb(100%, 70.588684%, 0%)" d="M 324.390625 315.28125 C 324.390625 315.636719 324.320312 315.980469 324.183594 316.308594 C 324.046875 316.640625 323.851562 316.929688 323.601562 317.183594 C 323.347656 317.433594 323.058594 317.628906 322.726562 317.765625 C 322.398438 317.902344 322.054688 317.96875 321.699219 317.96875 C 321.339844 317.96875 320.996094 317.902344 320.667969 317.765625 C 320.339844 317.628906 320.046875 317.433594 319.792969 317.183594 C 319.542969 316.929688 319.347656 316.640625 319.210938 316.308594 C 319.074219 315.980469 319.007812 315.636719 319.007812 315.28125 C 319.007812 314.921875 319.074219 314.578125 319.210938 314.25 C 319.347656 313.921875 319.542969 313.628906 319.792969 313.378906 C 320.046875 313.125 320.339844 312.929688 320.667969 312.792969 C 320.996094 312.65625 321.339844 312.589844 321.699219 312.589844 C 322.054688 312.589844 322.398438 312.65625 322.726562 312.792969 C 323.058594 312.929688 323.347656 313.125 323.601562 313.378906 C 323.851562 313.628906 324.046875 313.921875 324.183594 314.25 C 324.320312 314.578125 324.390625 314.921875 324.390625 315.28125 Z M 324.390625 315.28125 " fill-opacity="1" fill-rule="nonzero"/><path fill="rgb(100%, 70.588684%, 0%)" d="M 330.488281 306.894531 C 330.488281 307.121094 330.445312 307.339844 330.359375 307.546875 C 330.273438 307.757812 330.152344 307.941406 329.992188 308.101562 C 329.832031 308.261719 329.648438 308.382812 329.4375 308.46875 C 329.230469 308.554688 329.011719 308.597656 328.785156 308.597656 C 328.558594 308.597656 328.34375 308.554688 328.132812 308.46875 C 327.925781 308.382812 327.738281 308.261719 327.582031 308.101562 C 327.421875 307.941406 327.296875 307.757812 327.210938 307.546875 C 327.125 307.339844 327.082031 307.121094 327.082031 306.894531 C 327.082031 306.667969 327.125 306.453125 327.210938 306.242188 C 327.296875 306.035156 327.421875 305.851562 327.582031 305.691406 C 327.738281 305.53125 327.925781 305.40625 328.132812 305.320312 C 328.34375 305.234375 328.558594 305.191406 328.785156 305.191406 C 329.011719 305.191406 329.230469 305.234375 329.4375 305.320312 C 329.648438 305.40625 329.832031 305.53125 329.992188 305.691406 C 330.152344 305.851562 330.273438 306.035156 330.359375 306.242188 C 330.445312 306.453125 330.488281 306.667969 330.488281 306.894531 Z M 330.488281 306.894531 " fill-opacity="1" fill-rule="nonzero"/><path fill="rgb(100%, 100%, 100%)" d="M 346.125 60.671875 C 346.632812 61.546875 347.054688 62.457031 347.398438 63.402344 C 347.742188 64.347656 347.996094 65.308594 348.164062 66.289062 C 348.332031 67.269531 348.410156 68.25 348.398438 69.226562 C 348.382812 70.203125 348.28125 71.160156 348.085938 72.097656 C 347.890625 73.035156 347.609375 73.933594 347.242188 74.792969 C 346.871094 75.652344 346.421875 76.457031 345.894531 77.210938 C 345.367188 77.960938 344.769531 78.640625 344.105469 79.253906 C 343.4375 79.867188 342.714844 80.398438 341.933594 80.847656 C 341.152344 81.296875 340.328125 81.660156 339.464844 81.929688 C 338.601562 82.203125 337.710938 82.378906 336.796875 82.460938 C 335.882812 82.539062 334.960938 82.527344 334.03125 82.414062 C 333.101562 82.304688 332.183594 82.097656 331.273438 81.796875 C 330.363281 81.496094 329.484375 81.109375 328.628906 80.632812 C 327.777344 80.15625 326.964844 79.597656 326.199219 78.964844 C 325.4375 78.328125 324.730469 77.625 324.082031 76.855469 C 323.433594 76.085938 322.859375 75.265625 322.351562 74.390625 C 321.847656 73.515625 321.421875 72.605469 321.078125 71.660156 C 320.738281 70.714844 320.480469 69.75 320.3125 68.769531 C 320.144531 67.789062 320.066406 66.8125 320.082031 65.835938 C 320.09375 64.859375 320.199219 63.902344 320.394531 62.964844 C 320.589844 62.027344 320.871094 61.128906 321.238281 60.269531 C 321.605469 59.40625 322.054688 58.601562 322.582031 57.851562 C 323.109375 57.101562 323.707031 56.417969 324.375 55.804688 C 325.042969 55.195312 325.765625 54.664062 326.546875 54.210938 C 327.328125 53.761719 328.148438 53.402344 329.011719 53.128906 C 329.878906 52.859375 330.765625 52.683594 331.679688 52.601562 C 332.59375 52.519531 333.519531 52.535156 334.445312 52.644531 C 335.375 52.757812 336.296875 52.960938 337.207031 53.261719 C 338.113281 53.5625 338.996094 53.949219 339.847656 54.429688 C 340.703125 54.90625 341.511719 55.460938 342.277344 56.097656 C 343.042969 56.730469 343.75 57.433594 344.398438 58.203125 C 345.046875 58.972656 345.621094 59.796875 346.125 60.671875 Z M 346.125 60.671875 " fill-opacity="1" fill-rule="nonzero"/><path fill="rgb(100%, 70.588684%, 0%)" d="M 331.027344 69.808594 C 331.027344 70.035156 330.984375 70.25 330.898438 70.460938 C 330.8125 70.667969 330.6875 70.851562 330.527344 71.011719 C 330.371094 71.171875 330.183594 71.296875 329.976562 71.382812 C 329.765625 71.46875 329.550781 71.511719 329.324219 71.511719 C 329.097656 71.511719 328.878906 71.46875 328.671875 71.382812 C 328.460938 71.296875 328.277344 71.171875 328.117188 71.011719 C 327.957031 70.851562 327.835938 70.667969 327.75 70.460938 C 327.664062 70.25 327.621094 70.035156 327.621094 69.808594 C 327.621094 69.582031 327.664062 69.363281 327.75 69.15625 C 327.835938 68.949219 327.957031 68.761719 328.117188 68.601562 C 328.277344 68.445312 328.460938 68.320312 328.671875 68.234375 C 328.878906 68.148438 329.097656 68.105469 329.324219 68.105469 C 329.550781 68.105469 329.765625 68.148438 329.976562 68.234375 C 330.183594 68.320312 330.371094 68.445312 330.527344 68.601562 C 330.6875 68.761719 330.8125 68.949219 330.898438 69.15625 C 330.984375 69.363281 331.027344 69.582031 331.027344 69.808594 Z M 331.027344 69.808594 " fill-opacity="1" fill-rule="nonzero"/><path fill="rgb(100%, 100%, 100%)" d="M 56.625 269.890625 C 56.851562 270.667969 57.046875 271.457031 57.207031 272.25 C 57.367188 273.046875 57.496094 273.84375 57.585938 274.648438 C 57.679688 275.449219 57.734375 276.253906 57.757812 277.058594 C 57.78125 277.859375 57.765625 278.660156 57.71875 279.457031 C 57.671875 280.25 57.589844 281.039062 57.472656 281.820312 C 57.355469 282.597656 57.203125 283.367188 57.015625 284.125 C 56.832031 284.882812 56.613281 285.625 56.359375 286.355469 C 56.109375 287.082031 55.824219 287.792969 55.507812 288.480469 C 55.191406 289.171875 54.84375 289.839844 54.46875 290.488281 C 54.089844 291.136719 53.683594 291.757812 53.25 292.355469 C 52.8125 292.953125 52.351562 293.523438 51.863281 294.0625 C 51.375 294.605469 50.863281 295.117188 50.328125 295.597656 C 49.789062 296.078125 49.230469 296.523438 48.652344 296.941406 C 48.070312 297.355469 47.472656 297.734375 46.855469 298.082031 C 46.234375 298.425781 45.601562 298.734375 44.953125 299.007812 C 44.300781 299.28125 43.640625 299.515625 42.964844 299.714844 C 42.289062 299.910156 41.605469 300.070312 40.910156 300.191406 C 40.214844 300.3125 39.515625 300.390625 38.808594 300.433594 C 38.101562 300.476562 37.390625 300.476562 36.679688 300.441406 C 35.964844 300.402344 35.253906 300.324219 34.542969 300.210938 C 33.832031 300.09375 33.125 299.9375 32.421875 299.746094 C 31.71875 299.554688 31.019531 299.320312 30.332031 299.054688 C 29.644531 298.785156 28.96875 298.480469 28.300781 298.136719 C 27.632812 297.796875 26.980469 297.417969 26.34375 297.007812 C 25.703125 296.59375 25.082031 296.152344 24.476562 295.671875 C 23.871094 295.195312 23.285156 294.6875 22.722656 294.152344 C 22.15625 293.613281 21.613281 293.046875 21.09375 292.453125 C 20.574219 291.855469 20.082031 291.238281 19.613281 290.59375 C 19.144531 289.949219 18.703125 289.28125 18.289062 288.59375 C 17.871094 287.90625 17.488281 287.199219 17.132812 286.472656 C 16.777344 285.746094 16.453125 285.003906 16.160156 284.25 C 15.867188 283.492188 15.605469 282.726562 15.378906 281.945312 C 15.148438 281.167969 14.957031 280.378906 14.792969 279.582031 C 14.632812 278.789062 14.507812 277.988281 14.414062 277.1875 C 14.324219 276.382812 14.265625 275.582031 14.246094 274.777344 C 14.222656 273.976562 14.234375 273.175781 14.285156 272.378906 C 14.332031 271.585938 14.414062 270.796875 14.53125 270.015625 C 14.648438 269.234375 14.800781 268.464844 14.984375 267.707031 C 15.171875 266.949219 15.390625 266.207031 15.640625 265.480469 C 15.894531 264.753906 16.179688 264.042969 16.496094 263.351562 C 16.8125 262.664062 17.160156 261.992188 17.535156 261.347656 C 17.914062 260.699219 18.320312 260.078125 18.753906 259.480469 C 19.1875 258.882812 19.652344 258.3125 20.140625 257.773438 C 20.628906 257.230469 21.140625 256.71875 21.675781 256.238281 C 22.214844 255.757812 22.773438 255.308594 23.351562 254.894531 C 23.933594 254.480469 24.53125 254.097656 25.148438 253.753906 C 25.765625 253.40625 26.402344 253.097656 27.050781 252.824219 C 27.699219 252.554688 28.363281 252.316406 29.039062 252.121094 C 29.714844 251.921875 30.398438 251.765625 31.09375 251.644531 C 31.789062 251.523438 32.488281 251.441406 33.195312 251.402344 C 33.902344 251.359375 34.613281 251.359375 35.324219 251.394531 C 36.039062 251.433594 36.75 251.507812 37.460938 251.625 C 38.171875 251.742188 38.878906 251.894531 39.582031 252.089844 C 40.285156 252.28125 40.980469 252.511719 41.667969 252.78125 C 42.359375 253.050781 43.035156 253.355469 43.703125 253.699219 C 44.371094 254.039062 45.023438 254.417969 45.660156 254.828125 C 46.300781 255.238281 46.921875 255.683594 47.527344 256.160156 C 48.132812 256.636719 48.714844 257.144531 49.28125 257.683594 C 49.84375 258.222656 50.386719 258.789062 50.90625 259.382812 C 51.425781 259.976562 51.921875 260.597656 52.390625 261.242188 C 52.859375 261.886719 53.300781 262.550781 53.714844 263.242188 C 54.128906 263.929688 54.515625 264.636719 54.871094 265.363281 C 55.226562 266.089844 55.550781 266.828125 55.84375 267.585938 C 56.136719 268.34375 56.398438 269.109375 56.625 269.890625 Z M 56.625 269.890625 " fill-opacity="1" fill-rule="nonzero"/><path fill="rgb(100%, 100%, 100%)" d="M 63.359375 322.410156 C 63.359375 323.074219 63.292969 323.734375 63.164062 324.386719 C 63.035156 325.039062 62.839844 325.671875 62.585938 326.285156 C 62.332031 326.902344 62.019531 327.484375 61.648438 328.039062 C 61.28125 328.589844 60.859375 329.101562 60.390625 329.574219 C 59.917969 330.042969 59.40625 330.464844 58.851562 330.832031 C 58.300781 331.203125 57.714844 331.515625 57.101562 331.769531 C 56.484375 332.023438 55.851562 332.214844 55.199219 332.347656 C 54.546875 332.476562 53.886719 332.542969 53.21875 332.542969 C 52.554688 332.542969 51.894531 332.476562 51.242188 332.347656 C 50.589844 332.214844 49.957031 332.023438 49.339844 331.769531 C 48.726562 331.515625 48.140625 331.203125 47.589844 330.832031 C 47.035156 330.464844 46.523438 330.042969 46.050781 329.574219 C 45.582031 329.101562 45.160156 328.589844 44.789062 328.039062 C 44.421875 327.484375 44.109375 326.902344 43.855469 326.285156 C 43.597656 325.671875 43.40625 325.039062 43.277344 324.386719 C 43.148438 323.734375 43.082031 323.074219 43.082031 322.410156 C 43.082031 321.742188 43.148438 321.085938 43.277344 320.433594 C 43.40625 319.777344 43.597656 319.144531 43.855469 318.53125 C 44.109375 317.917969 44.421875 317.332031 44.789062 316.777344 C 45.160156 316.226562 45.582031 315.714844 46.050781 315.242188 C 46.523438 314.773438 47.035156 314.351562 47.589844 313.984375 C 48.140625 313.613281 48.726562 313.300781 49.339844 313.046875 C 49.957031 312.792969 50.589844 312.601562 51.242188 312.46875 C 51.894531 312.339844 52.554688 312.277344 53.21875 312.277344 C 53.886719 312.277344 54.546875 312.339844 55.199219 312.46875 C 55.851562 312.601562 56.484375 312.792969 57.101562 313.046875 C 57.714844 313.300781 58.300781 313.613281 58.851562 313.984375 C 59.40625 314.351562 59.917969 314.773438 60.390625 315.242188 C 60.859375 315.714844 61.28125 316.226562 61.648438 316.777344 C 62.019531 317.332031 62.332031 317.917969 62.585938 318.53125 C 62.839844 319.144531 63.035156 319.777344 63.164062 320.433594 C 63.292969 321.085938 63.359375 321.742188 63.359375 322.410156 Z M 63.359375 322.410156 " fill-opacity="1" fill-rule="nonzero"/><path fill="rgb(100%, 70.588684%, 0%)" d="M 35.679688 276.226562 C 35.679688 276.453125 35.636719 276.671875 35.550781 276.878906 C 35.464844 277.089844 35.339844 277.273438 35.179688 277.433594 C 35.023438 277.59375 34.835938 277.714844 34.628906 277.800781 C 34.417969 277.890625 34.203125 277.933594 33.976562 277.933594 C 33.75 277.933594 33.53125 277.890625 33.324219 277.800781 C 33.113281 277.714844 32.929688 277.59375 32.769531 277.433594 C 32.609375 277.273438 32.488281 277.089844 32.402344 276.878906 C 32.316406 276.671875 32.269531 276.453125 32.269531 276.226562 C 32.269531 276.003906 32.316406 275.785156 32.402344 275.578125 C 32.488281 275.367188 32.609375 275.183594 32.769531 275.023438 C 32.929688 274.863281 33.113281 274.742188 33.324219 274.65625 C 33.53125 274.566406 33.75 274.523438 33.976562 274.523438 C 34.203125 274.523438 34.417969 274.566406 34.628906 274.65625 C 34.835938 274.742188 35.023438 274.863281 35.179688 275.023438 C 35.339844 275.183594 35.464844 275.367188 35.550781 275.578125 C 35.636719 275.785156 35.679688 276.003906 35.679688 276.226562 Z M 35.679688 276.226562 " fill-opacity="1" fill-rule="nonzero"/><path fill="rgb(100%, 70.588684%, 0%)" d="M 48.824219 281.609375 C 48.824219 281.964844 48.757812 282.308594 48.621094 282.636719 C 48.484375 282.96875 48.289062 283.257812 48.035156 283.511719 C 47.785156 283.761719 47.492188 283.957031 47.164062 284.09375 C 46.832031 284.230469 46.488281 284.296875 46.132812 284.296875 C 45.777344 284.296875 45.433594 284.230469 45.101562 284.09375 C 44.773438 283.957031 44.480469 283.761719 44.230469 283.511719 C 43.976562 283.257812 43.78125 282.96875 43.644531 282.636719 C 43.507812 282.308594 43.441406 281.964844 43.441406 281.609375 C 43.441406 281.25 43.507812 280.910156 43.644531 280.578125 C 43.78125 280.25 43.976562 279.957031 44.230469 279.707031 C 44.480469 279.453125 44.773438 279.261719 45.101562 279.125 C 45.433594 278.988281 45.777344 278.917969 46.132812 278.917969 C 46.488281 278.917969 46.832031 278.988281 47.164062 279.125 C 47.492188 279.261719 47.785156 279.453125 48.035156 279.707031 C 48.289062 279.957031 48.484375 280.25 48.621094 280.578125 C 48.757812 280.910156 48.824219 281.25 48.824219 281.609375 Z M 48.824219 281.609375 " fill-opacity="1" fill-rule="nonzero"/></svg>