<svg xmlns="http://www.w3.org/2000/svg" xmlns:xlink="http://www.w3.org/1999/xlink" width="500" zoomAndPan="magnify" viewBox="0 0 375 374.999991" height="500" preserveAspectRatio="xMidYMid meet" version="1.0"><defs><filter x="0%" y="0%" width="100%" height="100%" id="id1"><feColorMatrix values="0 0 0 0 1 0 0 0 0 1 0 0 0 0 1 0 0 0 1 0" color-interpolation-filters="sRGB"/></filter><mask id="id2"><g filter="url(#id1)"><rect x="-37.5" width="450" fill="rgb(0%, 0%, 0%)" y="-37.499999" height="449.999989" fill-opacity="0.498"/></g></mask><clipPath id="id3"><path d="M 0 0 L 375 0 L 375 375 L 0 375 Z M 0 0 " clip-rule="nonzero"/></clipPath><clipPath id="id4"><path d="M 375 187.5 C 375 190.570312 374.925781 193.636719 374.773438 196.699219 C 374.625 199.765625 374.398438 202.824219 374.097656 205.878906 C 373.796875 208.933594 373.421875 211.976562 372.96875 215.011719 C 372.519531 218.046875 371.996094 221.070312 371.398438 224.078125 C 370.796875 227.089844 370.125 230.082031 369.378906 233.058594 C 368.636719 236.035156 367.816406 238.992188 366.925781 241.929688 C 366.035156 244.863281 365.074219 247.777344 364.039062 250.667969 C 363.003906 253.554688 361.902344 256.417969 360.726562 259.253906 C 359.554688 262.089844 358.308594 264.894531 356.996094 267.667969 C 355.6875 270.441406 354.308594 273.179688 352.859375 275.886719 C 351.414062 278.59375 349.902344 281.261719 348.324219 283.894531 C 346.746094 286.527344 345.105469 289.117188 343.402344 291.667969 C 341.695312 294.222656 339.929688 296.730469 338.101562 299.195312 C 336.273438 301.660156 334.386719 304.078125 332.4375 306.449219 C 330.492188 308.820312 328.488281 311.144531 326.429688 313.417969 C 324.367188 315.691406 322.253906 317.914062 320.082031 320.082031 C 317.914062 322.253906 315.691406 324.367188 313.417969 326.429688 C 311.144531 328.488281 308.820312 330.492188 306.449219 332.441406 C 304.078125 334.386719 301.660156 336.273438 299.195312 338.101562 C 296.730469 339.929688 294.222656 341.695312 291.667969 343.402344 C 289.117188 345.105469 286.527344 346.746094 283.894531 348.324219 C 281.261719 349.902344 278.59375 351.414062 275.886719 352.859375 C 273.179688 354.308594 270.441406 355.6875 267.667969 356.996094 C 264.890625 358.308594 262.089844 359.554688 259.253906 360.726562 C 256.417969 361.902344 253.554688 363.003906 250.667969 364.039062 C 247.777344 365.074219 244.863281 366.035156 241.929688 366.925781 C 238.992188 367.816406 236.035156 368.636719 233.058594 369.382812 C 230.082031 370.125 227.089844 370.796875 224.078125 371.398438 C 221.070312 371.996094 218.046875 372.519531 215.011719 372.96875 C 211.976562 373.421875 208.933594 373.796875 205.878906 374.097656 C 202.824219 374.398438 199.765625 374.625 196.699219 374.773438 C 193.636719 374.925781 190.570312 375 187.5 375 C 184.429688 375 181.363281 374.925781 178.300781 374.773438 C 175.234375 374.625 172.175781 374.398438 169.121094 374.097656 C 166.066406 373.796875 163.023438 373.421875 159.988281 372.96875 C 156.953125 372.519531 153.929688 371.996094 150.921875 371.398438 C 147.910156 370.796875 144.917969 370.125 141.941406 369.382812 C 138.964844 368.636719 136.007812 367.816406 133.070312 366.925781 C 130.136719 366.035156 127.222656 365.074219 124.332031 364.039062 C 121.445312 363.003906 118.582031 361.902344 115.746094 360.726562 C 112.910156 359.554688 110.105469 358.308594 107.332031 356.996094 C 104.558594 355.6875 101.820312 354.308594 99.113281 352.859375 C 96.40625 351.414062 93.738281 349.902344 91.105469 348.324219 C 88.472656 346.746094 85.882812 345.105469 83.332031 343.402344 C 80.777344 341.695312 78.269531 339.929688 75.804688 338.101562 C 73.339844 336.273438 70.921875 334.386719 68.550781 332.441406 C 66.179688 330.492188 63.855469 328.488281 61.582031 326.429688 C 59.308594 324.367188 57.085938 322.253906 54.917969 320.082031 C 52.746094 317.914062 50.632812 315.691406 48.570312 313.417969 C 46.511719 311.144531 44.507812 308.820312 42.558594 306.449219 C 40.613281 304.078125 38.726562 301.660156 36.898438 299.195312 C 35.070312 296.730469 33.304688 294.222656 31.597656 291.667969 C 29.894531 289.117188 28.253906 286.527344 26.675781 283.894531 C 25.097656 281.261719 23.585938 278.59375 22.140625 275.886719 C 20.691406 273.179688 19.3125 270.441406 18.003906 267.667969 C 16.691406 264.894531 15.445312 262.089844 14.273438 259.253906 C 13.097656 256.417969 11.996094 253.554688 10.960938 250.667969 C 9.925781 247.777344 8.964844 244.863281 8.074219 241.929688 C 7.183594 238.992188 6.363281 236.035156 5.621094 233.058594 C 4.875 230.082031 4.203125 227.089844 3.601562 224.078125 C 3.003906 221.070312 2.480469 218.046875 2.03125 215.011719 C 1.578125 211.976562 1.203125 208.933594 0.902344 205.878906 C 0.601562 202.824219 0.375 199.765625 0.226562 196.699219 C 0.0742188 193.636719 0 190.570312 0 187.5 C 0 184.429688 0.0742188 181.363281 0.226562 178.300781 C 0.375 175.234375 0.601562 172.175781 0.902344 169.121094 C 1.203125 166.066406 1.578125 163.023438 2.03125 159.988281 C 2.480469 156.953125 3.003906 153.929688 3.601562 150.921875 C 4.203125 147.910156 4.875 144.917969 5.621094 141.941406 C 6.363281 138.964844 7.183594 136.007812 8.074219 133.070312 C 8.964844 130.136719 9.925781 127.222656 10.960938 124.332031 C 11.996094 121.445312 13.097656 118.582031 14.273438 115.746094 C 15.445312 112.910156 16.691406 110.109375 18.003906 107.332031 C 19.3125 104.558594 20.691406 101.820312 22.140625 99.113281 C 23.585938 96.40625 25.097656 93.738281 26.675781 91.105469 C 28.253906 88.472656 29.894531 85.882812 31.597656 83.332031 C 33.304688 80.777344 35.070312 78.269531 36.898438 75.804688 C 38.726562 73.339844 40.613281 70.921875 42.558594 68.550781 C 44.507812 66.179688 46.511719 63.855469 48.570312 61.582031 C 50.632812 59.308594 52.746094 57.085938 54.917969 54.917969 C 57.085938 52.746094 59.308594 50.632812 61.582031 48.570312 C 63.855469 46.511719 66.179688 44.507812 68.550781 42.5625 C 70.921875 40.613281 73.339844 38.726562 75.804688 36.898438 C 78.269531 35.070312 80.777344 33.304688 83.332031 31.597656 C 85.882812 29.894531 88.472656 28.253906 91.105469 26.675781 C 93.738281 25.097656 96.40625 23.585938 99.113281 22.140625 C 101.820312 20.691406 104.558594 19.3125 107.332031 18.003906 C 110.105469 16.691406 112.910156 15.445312 115.746094 14.273438 C 118.582031 13.097656 121.445312 11.996094 124.332031 10.960938 C 127.222656 9.925781 130.136719 8.964844 133.070312 8.074219 C 136.007812 7.183594 138.964844 6.363281 141.941406 5.621094 C 144.917969 4.875 147.910156 4.203125 150.921875 3.601562 C 153.929688 3.003906 156.953125 2.480469 159.988281 2.03125 C 163.023438 1.578125 166.066406 1.203125 169.121094 0.902344 C 172.175781 0.601562 175.234375 0.375 178.300781 0.226562 C 181.363281 0.0742188 184.429688 0 187.5 0 C 190.570312 0 193.636719 0.0742188 196.699219 0.226562 C 199.765625 0.375 202.824219 0.601562 205.878906 0.902344 C 208.933594 1.203125 211.976562 1.578125 215.011719 2.03125 C 218.046875 2.480469 221.070312 3.003906 224.078125 3.601562 C 227.089844 4.203125 230.082031 4.875 233.058594 5.621094 C 236.035156 6.363281 238.992188 7.183594 241.929688 8.074219 C 244.863281 8.964844 247.777344 9.925781 250.667969 10.960938 C 253.554688 11.996094 256.417969 13.097656 259.253906 14.273438 C 262.089844 15.445312 264.890625 16.691406 267.667969 18.003906 C 270.441406 19.3125 273.179688 20.691406 275.886719 22.140625 C 278.59375 23.585938 281.261719 25.097656 283.894531 26.675781 C 286.527344 28.253906 289.117188 29.894531 291.667969 31.597656 C 294.222656 33.304688 296.730469 35.070312 299.195312 36.898438 C 301.660156 38.726562 304.078125 40.613281 306.449219 42.5625 C 308.820312 44.507812 311.144531 46.511719 313.417969 48.570312 C 315.691406 50.632812 317.914062 52.746094 320.082031 54.917969 C 322.253906 57.085938 324.367188 59.308594 326.429688 61.582031 C 328.488281 63.855469 330.492188 66.179688 332.4375 68.550781 C 334.386719 70.921875 336.273438 73.339844 338.101562 75.804688 C 339.929688 78.269531 341.695312 80.777344 343.402344 83.332031 C 345.105469 85.882812 346.746094 88.472656 348.324219 91.105469 C 349.902344 93.738281 351.414062 96.40625 352.859375 99.113281 C 354.308594 101.820312 355.6875 104.558594 356.996094 107.332031 C 358.308594 110.109375 359.554688 112.910156 360.726562 115.746094 C 361.902344 118.582031 363.003906 121.445312 364.039062 124.332031 C 365.074219 127.222656 366.035156 130.136719 366.925781 133.070312 C 367.816406 136.007812 368.636719 138.964844 369.378906 141.941406 C 370.125 144.917969 370.796875 147.910156 371.398438 150.921875 C 371.996094 153.929688 372.519531 156.953125 372.96875 159.988281 C 373.421875 163.023438 373.796875 166.066406 374.097656 169.121094 C 374.398438 172.175781 374.625 175.234375 374.773438 178.300781 C 374.925781 181.363281 375 184.429688 375 187.5 Z M 375 187.5 " clip-rule="nonzero"/></clipPath><linearGradient x1="1770.926066" gradientTransform="matrix(0.000000000000000179, 2.922837, -2.922837, 0.000000000000000179, 903.109697, -5176.1279)" y1="244.834" x2="1899.226029" gradientUnits="userSpaceOnUse" y2="244.834" id="id5"><stop stop-opacity="1" stop-color="rgb(100%, 68.598938%, 84.298706%)" offset="0"/><stop stop-opacity="1" stop-color="rgb(100%, 68.614197%, 84.181213%)" offset="0.0078125"/><stop stop-opacity="1" stop-color="rgb(100%, 68.643188%, 83.944702%)" offset="0.015625"/><stop stop-opacity="1" stop-color="rgb(100%, 68.67218%, 83.708191%)" offset="0.0234375"/><stop stop-opacity="1" stop-color="rgb(100%, 68.702698%, 83.47168%)" offset="0.03125"/><stop stop-opacity="1" stop-color="rgb(100%, 68.731689%, 83.235168%)" offset="0.0390625"/><stop stop-opacity="1" stop-color="rgb(100%, 68.760681%, 82.998657%)" offset="0.046875"/><stop stop-opacity="1" stop-color="rgb(100%, 68.791199%, 82.763672%)" offset="0.0546875"/><stop stop-opacity="1" stop-color="rgb(100%, 68.82019%, 82.527161%)" offset="0.0625"/><stop stop-opacity="1" stop-color="rgb(100%, 68.849182%, 82.290649%)" offset="0.0703125"/><stop stop-opacity="1" stop-color="rgb(100%, 68.8797%, 82.054138%)" offset="0.078125"/><stop stop-opacity="1" stop-color="rgb(100%, 68.908691%, 81.817627%)" offset="0.0859375"/><stop stop-opacity="1" stop-color="rgb(100%, 68.937683%, 81.582642%)" offset="0.09375"/><stop stop-opacity="1" stop-color="rgb(100%, 68.968201%, 81.34613%)" offset="0.101562"/><stop stop-opacity="1" stop-color="rgb(100%, 68.997192%, 81.109619%)" offset="0.109375"/><stop stop-opacity="1" stop-color="rgb(100%, 69.026184%, 80.873108%)" offset="0.117188"/><stop stop-opacity="1" stop-color="rgb(100%, 69.056702%, 80.636597%)" offset="0.125"/><stop stop-opacity="1" stop-color="rgb(100%, 69.085693%, 80.401611%)" offset="0.132813"/><stop stop-opacity="1" stop-color="rgb(100%, 69.116211%, 80.1651%)" offset="0.140625"/><stop stop-opacity="1" stop-color="rgb(100%, 69.145203%, 79.928589%)" offset="0.148438"/><stop stop-opacity="1" stop-color="rgb(100%, 69.174194%, 79.692078%)" offset="0.15625"/><stop stop-opacity="1" stop-color="rgb(100%, 69.204712%, 79.455566%)" offset="0.164063"/><stop stop-opacity="1" stop-color="rgb(100%, 69.233704%, 79.220581%)" offset="0.171875"/><stop stop-opacity="1" stop-color="rgb(100%, 69.262695%, 78.98407%)" offset="0.179688"/><stop stop-opacity="1" stop-color="rgb(100%, 69.293213%, 78.747559%)" offset="0.1875"/><stop stop-opacity="1" stop-color="rgb(100%, 69.322205%, 78.511047%)" offset="0.195312"/><stop stop-opacity="1" stop-color="rgb(100%, 69.351196%, 78.274536%)" offset="0.203125"/><stop stop-opacity="1" stop-color="rgb(100%, 69.381714%, 78.038025%)" offset="0.210938"/><stop stop-opacity="1" stop-color="rgb(100%, 69.410706%, 77.80304%)" offset="0.21875"/><stop stop-opacity="1" stop-color="rgb(100%, 69.439697%, 77.566528%)" offset="0.226563"/><stop stop-opacity="1" stop-color="rgb(100%, 69.470215%, 77.330017%)" offset="0.234375"/><stop stop-opacity="1" stop-color="rgb(100%, 69.499207%, 77.093506%)" offset="0.242188"/><stop stop-opacity="1" stop-color="rgb(100%, 69.528198%, 76.856995%)" offset="0.25"/><stop stop-opacity="1" stop-color="rgb(100%, 69.558716%, 76.622009%)" offset="0.257812"/><stop stop-opacity="1" stop-color="rgb(100%, 69.587708%, 76.385498%)" offset="0.265625"/><stop stop-opacity="1" stop-color="rgb(100%, 69.616699%, 76.148987%)" offset="0.273438"/><stop stop-opacity="1" stop-color="rgb(100%, 69.647217%, 75.912476%)" offset="0.28125"/><stop stop-opacity="1" stop-color="rgb(100%, 69.676208%, 75.675964%)" offset="0.289063"/><stop stop-opacity="1" stop-color="rgb(100%, 69.706726%, 75.440979%)" offset="0.296875"/><stop stop-opacity="1" stop-color="rgb(100%, 69.735718%, 75.204468%)" offset="0.304688"/><stop stop-opacity="1" stop-color="rgb(100%, 69.764709%, 74.967957%)" offset="0.3125"/><stop stop-opacity="1" stop-color="rgb(100%, 69.795227%, 74.731445%)" offset="0.320313"/><stop stop-opacity="1" stop-color="rgb(100%, 69.824219%, 74.494934%)" offset="0.328125"/><stop stop-opacity="1" stop-color="rgb(100%, 69.85321%, 74.259949%)" offset="0.335937"/><stop stop-opacity="1" stop-color="rgb(100%, 69.883728%, 74.023438%)" offset="0.34375"/><stop stop-opacity="1" stop-color="rgb(100%, 69.91272%, 73.786926%)" offset="0.351562"/><stop stop-opacity="1" stop-color="rgb(100%, 69.941711%, 73.550415%)" offset="0.359375"/><stop stop-opacity="1" stop-color="rgb(100%, 69.972229%, 73.313904%)" offset="0.367187"/><stop stop-opacity="1" stop-color="rgb(100%, 70.001221%, 73.077393%)" offset="0.375"/><stop stop-opacity="1" stop-color="rgb(100%, 70.030212%, 72.842407%)" offset="0.382812"/><stop stop-opacity="1" stop-color="rgb(100%, 70.06073%, 72.605896%)" offset="0.390625"/><stop stop-opacity="1" stop-color="rgb(100%, 70.089722%, 72.369385%)" offset="0.398437"/><stop stop-opacity="1" stop-color="rgb(100%, 70.118713%, 72.132874%)" offset="0.40625"/><stop stop-opacity="1" stop-color="rgb(100%, 70.149231%, 71.896362%)" offset="0.414062"/><stop stop-opacity="1" stop-color="rgb(100%, 70.178223%, 71.661377%)" offset="0.421875"/><stop stop-opacity="1" stop-color="rgb(100%, 70.20874%, 71.424866%)" offset="0.429688"/><stop stop-opacity="1" stop-color="rgb(100%, 70.237732%, 71.188354%)" offset="0.4375"/><stop stop-opacity="1" stop-color="rgb(100%, 70.266724%, 70.951843%)" offset="0.445312"/><stop stop-opacity="1" stop-color="rgb(100%, 70.297241%, 70.715332%)" offset="0.453125"/><stop stop-opacity="1" stop-color="rgb(100%, 70.326233%, 70.480347%)" offset="0.460938"/><stop stop-opacity="1" stop-color="rgb(100%, 70.355225%, 70.243835%)" offset="0.46875"/><stop stop-opacity="1" stop-color="rgb(100%, 70.385742%, 70.007324%)" offset="0.476563"/><stop stop-opacity="1" stop-color="rgb(100%, 70.414734%, 69.770813%)" offset="0.484375"/><stop stop-opacity="1" stop-color="rgb(100%, 70.443726%, 69.534302%)" offset="0.492188"/><stop stop-opacity="1" stop-color="rgb(100%, 70.474243%, 69.299316%)" offset="0.5"/><stop stop-opacity="1" stop-color="rgb(100%, 70.503235%, 69.062805%)" offset="0.507812"/><stop stop-opacity="1" stop-color="rgb(100%, 70.532227%, 68.826294%)" offset="0.515625"/><stop stop-opacity="1" stop-color="rgb(100%, 70.562744%, 68.589783%)" offset="0.523438"/><stop stop-opacity="1" stop-color="rgb(100%, 70.591736%, 68.353271%)" offset="0.53125"/><stop stop-opacity="1" stop-color="rgb(100%, 70.620728%, 68.11676%)" offset="0.539062"/><stop stop-opacity="1" stop-color="rgb(100%, 70.651245%, 67.881775%)" offset="0.546875"/><stop stop-opacity="1" stop-color="rgb(100%, 70.680237%, 67.645264%)" offset="0.554688"/><stop stop-opacity="1" stop-color="rgb(100%, 70.709229%, 67.408752%)" offset="0.5625"/><stop stop-opacity="1" stop-color="rgb(100%, 70.739746%, 67.172241%)" offset="0.570313"/><stop stop-opacity="1" stop-color="rgb(100%, 70.768738%, 66.93573%)" offset="0.578125"/><stop stop-opacity="1" stop-color="rgb(100%, 70.799255%, 66.700745%)" offset="0.585938"/><stop stop-opacity="1" stop-color="rgb(100%, 70.828247%, 66.464233%)" offset="0.59375"/><stop stop-opacity="1" stop-color="rgb(100%, 70.857239%, 66.227722%)" offset="0.601562"/><stop stop-opacity="1" stop-color="rgb(100%, 70.887756%, 65.991211%)" offset="0.609375"/><stop stop-opacity="1" stop-color="rgb(100%, 70.916748%, 65.7547%)" offset="0.617188"/><stop stop-opacity="1" stop-color="rgb(100%, 70.94574%, 65.519714%)" offset="0.625"/><stop stop-opacity="1" stop-color="rgb(100%, 70.976257%, 65.283203%)" offset="0.632812"/><stop stop-opacity="1" stop-color="rgb(100%, 71.038818%, 64.770508%)" offset="0.636719"/><stop stop-opacity="1" stop-color="rgb(100%, 71.086121%, 64.375305%)" offset="0.640625"/><stop stop-opacity="1" stop-color="rgb(100%, 71.14563%, 63.873291%)" offset="0.644531"/><stop stop-opacity="1" stop-color="rgb(100%, 71.206665%, 63.371277%)" offset="0.648438"/><stop stop-opacity="1" stop-color="rgb(100%, 71.266174%, 62.869263%)" offset="0.652344"/><stop stop-opacity="1" stop-color="rgb(100%, 71.327209%, 62.367249%)" offset="0.65625"/><stop stop-opacity="1" stop-color="rgb(100%, 71.386719%, 61.865234%)" offset="0.660156"/><stop stop-opacity="1" stop-color="rgb(100%, 71.446228%, 61.36322%)" offset="0.664062"/><stop stop-opacity="1" stop-color="rgb(100%, 71.505737%, 60.85968%)" offset="0.667969"/><stop stop-opacity="1" stop-color="rgb(100%, 71.566772%, 60.357666%)" offset="0.671875"/><stop stop-opacity="1" stop-color="rgb(100%, 71.626282%, 59.855652%)" offset="0.675781"/><stop stop-opacity="1" stop-color="rgb(100%, 71.687317%, 59.353638%)" offset="0.679688"/><stop stop-opacity="1" stop-color="rgb(100%, 71.746826%, 58.851624%)" offset="0.683594"/><stop stop-opacity="1" stop-color="rgb(100%, 71.807861%, 58.349609%)" offset="0.6875"/><stop stop-opacity="1" stop-color="rgb(100%, 71.867371%, 57.846069%)" offset="0.691406"/><stop stop-opacity="1" stop-color="rgb(100%, 71.928406%, 57.344055%)" offset="0.695312"/><stop stop-opacity="1" stop-color="rgb(100%, 71.987915%, 56.842041%)" offset="0.699219"/><stop stop-opacity="1" stop-color="rgb(100%, 72.04895%, 56.340027%)" offset="0.703125"/><stop stop-opacity="1" stop-color="rgb(100%, 72.108459%, 55.838013%)" offset="0.707031"/><stop stop-opacity="1" stop-color="rgb(100%, 72.169495%, 55.335999%)" offset="0.710938"/><stop stop-opacity="1" stop-color="rgb(100%, 72.229004%, 54.833984%)" offset="0.714844"/><stop stop-opacity="1" stop-color="rgb(100%, 72.290039%, 54.33197%)" offset="0.71875"/><stop stop-opacity="1" stop-color="rgb(100%, 72.349548%, 53.82843%)" offset="0.722656"/><stop stop-opacity="1" stop-color="rgb(100%, 72.410583%, 53.326416%)" offset="0.726562"/><stop stop-opacity="1" stop-color="rgb(100%, 72.470093%, 52.824402%)" offset="0.730469"/><stop stop-opacity="1" stop-color="rgb(100%, 72.529602%, 52.322388%)" offset="0.734375"/><stop stop-opacity="1" stop-color="rgb(100%, 72.589111%, 51.820374%)" offset="0.738281"/><stop stop-opacity="1" stop-color="rgb(100%, 72.650146%, 51.318359%)" offset="0.742187"/><stop stop-opacity="1" stop-color="rgb(100%, 72.709656%, 50.814819%)" offset="0.746094"/><stop stop-opacity="1" stop-color="rgb(100%, 72.770691%, 50.312805%)" offset="0.75"/><stop stop-opacity="1" stop-color="rgb(100%, 72.8302%, 49.810791%)" offset="0.753906"/><stop stop-opacity="1" stop-color="rgb(100%, 72.891235%, 49.308777%)" offset="0.757812"/><stop stop-opacity="1" stop-color="rgb(100%, 72.950745%, 48.806763%)" offset="0.761719"/><stop stop-opacity="1" stop-color="rgb(100%, 73.01178%, 48.304749%)" offset="0.765625"/><stop stop-opacity="1" stop-color="rgb(100%, 73.071289%, 47.802734%)" offset="0.769531"/><stop stop-opacity="1" stop-color="rgb(100%, 73.132324%, 47.30072%)" offset="0.773438"/><stop stop-opacity="1" stop-color="rgb(100%, 73.191833%, 46.79718%)" offset="0.777344"/><stop stop-opacity="1" stop-color="rgb(100%, 73.252869%, 46.295166%)" offset="0.78125"/><stop stop-opacity="1" stop-color="rgb(100%, 73.312378%, 45.793152%)" offset="0.785156"/><stop stop-opacity="1" stop-color="rgb(100%, 73.373413%, 45.291138%)" offset="0.789062"/><stop stop-opacity="1" stop-color="rgb(100%, 73.432922%, 44.789124%)" offset="0.792969"/><stop stop-opacity="1" stop-color="rgb(100%, 73.492432%, 44.287109%)" offset="0.796875"/><stop stop-opacity="1" stop-color="rgb(100%, 73.551941%, 43.783569%)" offset="0.800781"/><stop stop-opacity="1" stop-color="rgb(100%, 73.612976%, 43.281555%)" offset="0.804687"/><stop stop-opacity="1" stop-color="rgb(100%, 73.672485%, 42.779541%)" offset="0.808594"/><stop stop-opacity="1" stop-color="rgb(100%, 73.733521%, 42.277527%)" offset="0.8125"/><stop stop-opacity="1" stop-color="rgb(100%, 73.79303%, 41.775513%)" offset="0.816406"/><stop stop-opacity="1" stop-color="rgb(100%, 73.854065%, 41.273499%)" offset="0.820312"/><stop stop-opacity="1" stop-color="rgb(100%, 73.913574%, 40.771484%)" offset="0.824219"/><stop stop-opacity="1" stop-color="rgb(100%, 73.974609%, 40.26947%)" offset="0.828125"/><stop stop-opacity="1" stop-color="rgb(100%, 74.034119%, 39.76593%)" offset="0.832031"/><stop stop-opacity="1" stop-color="rgb(100%, 74.095154%, 39.263916%)" offset="0.835938"/><stop stop-opacity="1" stop-color="rgb(100%, 74.154663%, 38.761902%)" offset="0.839844"/><stop stop-opacity="1" stop-color="rgb(100%, 74.215698%, 38.259888%)" offset="0.84375"/><stop stop-opacity="1" stop-color="rgb(100%, 74.275208%, 37.757874%)" offset="0.847656"/><stop stop-opacity="1" stop-color="rgb(100%, 74.336243%, 37.255859%)" offset="0.851562"/><stop stop-opacity="1" stop-color="rgb(100%, 74.395752%, 36.752319%)" offset="0.855469"/><stop stop-opacity="1" stop-color="rgb(100%, 74.455261%, 36.250305%)" offset="0.859375"/><stop stop-opacity="1" stop-color="rgb(100%, 74.514771%, 35.748291%)" offset="0.863281"/><stop stop-opacity="1" stop-color="rgb(100%, 74.575806%, 35.246277%)" offset="0.867188"/><stop stop-opacity="1" stop-color="rgb(100%, 74.635315%, 34.744263%)" offset="0.871094"/><stop stop-opacity="1" stop-color="rgb(100%, 74.69635%, 34.242249%)" offset="0.875"/><stop stop-opacity="1" stop-color="rgb(100%, 74.755859%, 33.740234%)" offset="0.878906"/><stop stop-opacity="1" stop-color="rgb(100%, 74.816895%, 33.23822%)" offset="0.882812"/><stop stop-opacity="1" stop-color="rgb(100%, 74.876404%, 32.73468%)" offset="0.886719"/><stop stop-opacity="1" stop-color="rgb(100%, 74.937439%, 32.232666%)" offset="0.890625"/><stop stop-opacity="1" stop-color="rgb(100%, 74.996948%, 31.730652%)" offset="0.894531"/><stop stop-opacity="1" stop-color="rgb(100%, 75.057983%, 31.228638%)" offset="0.898437"/><stop stop-opacity="1" stop-color="rgb(100%, 75.117493%, 30.726624%)" offset="0.902344"/><stop stop-opacity="1" stop-color="rgb(100%, 75.178528%, 30.224609%)" offset="0.90625"/><stop stop-opacity="1" stop-color="rgb(100%, 75.238037%, 29.721069%)" offset="0.910156"/><stop stop-opacity="1" stop-color="rgb(100%, 75.299072%, 29.219055%)" offset="0.914062"/><stop stop-opacity="1" stop-color="rgb(100%, 75.358582%, 28.717041%)" offset="0.917969"/><stop stop-opacity="1" stop-color="rgb(100%, 75.419617%, 28.215027%)" offset="0.921875"/><stop stop-opacity="1" stop-color="rgb(100%, 75.479126%, 27.713013%)" offset="0.925781"/><stop stop-opacity="1" stop-color="rgb(100%, 75.538635%, 27.210999%)" offset="0.929688"/><stop stop-opacity="1" stop-color="rgb(100%, 75.598145%, 26.708984%)" offset="0.933594"/><stop stop-opacity="1" stop-color="rgb(100%, 75.65918%, 26.20697%)" offset="0.9375"/><stop stop-opacity="1" stop-color="rgb(100%, 75.718689%, 25.70343%)" offset="0.941406"/><stop stop-opacity="1" stop-color="rgb(100%, 75.779724%, 25.201416%)" offset="0.945313"/><stop stop-opacity="1" stop-color="rgb(100%, 75.839233%, 24.699402%)" offset="0.949219"/><stop stop-opacity="1" stop-color="rgb(100%, 75.900269%, 24.197388%)" offset="0.953125"/><stop stop-opacity="1" stop-color="rgb(100%, 75.959778%, 23.695374%)" offset="0.957031"/><stop stop-opacity="1" stop-color="rgb(100%, 76.020813%, 23.193359%)" offset="0.960938"/><stop stop-opacity="1" stop-color="rgb(100%, 76.080322%, 22.689819%)" offset="0.964844"/><stop stop-opacity="1" stop-color="rgb(100%, 76.141357%, 22.187805%)" offset="0.96875"/><stop stop-opacity="1" stop-color="rgb(100%, 76.200867%, 21.685791%)" offset="0.972656"/><stop stop-opacity="1" stop-color="rgb(100%, 76.261902%, 21.183777%)" offset="0.976562"/><stop stop-opacity="1" stop-color="rgb(100%, 76.321411%, 20.681763%)" offset="0.980469"/><stop stop-opacity="1" stop-color="rgb(100%, 76.382446%, 20.179749%)" offset="0.984375"/><stop stop-opacity="1" stop-color="rgb(100%, 76.44043%, 19.688416%)" offset="0.988281"/><stop stop-opacity="1" stop-color="rgb(100%, 76.499939%, 19.198608%)" offset="0.992188"/><stop stop-opacity="1" stop-color="rgb(100%, 76.499939%, 19.198608%)" offset="1"/></linearGradient><clipPath id="id6"><rect x="0" width="375" y="0" height="375"/></clipPath></defs><g mask="url(#id2)"><g transform="matrix(1, 0, 0, 1, 0, 0)"><g clip-path="url(#id6)"><g clip-path="url(#id3)"><g clip-path="url(#id4)"><rect x="-82.5" fill="url(#id5)" width="540" height="539.999987" y="-82.499998"/></g></g></g></g></g></svg>