<svg xmlns="http://www.w3.org/2000/svg" xmlns:xlink="http://www.w3.org/1999/xlink" width="500" zoomAndPan="magnify" viewBox="0 0 375 374.999991" height="500" preserveAspectRatio="xMidYMid meet" version="1.0"><path fill="rgb(17.649841%, 26.269531%, 33.729553%)" d="M 234.703125 158.8125 C 233.378906 158.8125 232.042969 158.402344 230.90625 157.539062 C 228.132812 155.445312 227.578125 151.492188 229.675781 148.710938 L 292.984375 64.867188 C 295.085938 62.089844 299.035156 61.539062 301.8125 63.632812 C 304.585938 65.734375 305.140625 69.683594 303.042969 72.460938 L 239.734375 156.3125 C 238.496094 157.953125 236.609375 158.8125 234.703125 158.8125 " fill-opacity="1" fill-rule="nonzero"/><path fill="rgb(17.649841%, 26.269531%, 33.729553%)" d="M 49.574219 236.785156 C 46.628906 236.785156 43.996094 234.703125 43.402344 231.703125 C 42.726562 228.292969 44.945312 224.976562 48.359375 224.296875 L 199.695312 194.375 C 203.101562 193.703125 206.425781 195.921875 207.097656 199.339844 C 207.769531 202.75 205.550781 206.066406 202.140625 206.742188 L 50.804688 236.667969 C 50.394531 236.746094 49.984375 236.785156 49.574219 236.785156 " fill-opacity="1" fill-rule="nonzero"/><path fill="rgb(17.649841%, 26.269531%, 33.729553%)" d="M 281.089844 319.753906 C 279.125 319.753906 277.1875 318.832031 275.957031 317.117188 L 220.160156 239.007812 C 218.132812 236.179688 218.789062 232.242188 221.625 230.214844 C 224.453125 228.195312 228.386719 228.851562 230.414062 231.679688 L 286.210938 309.789062 C 288.238281 312.617188 287.582031 316.554688 284.746094 318.578125 C 283.636719 319.371094 282.359375 319.753906 281.089844 319.753906 " fill-opacity="1" fill-rule="nonzero"/><path fill="rgb(17.649841%, 26.269531%, 33.729553%)" d="M 348.8125 46.363281 C 348.8125 66.328125 332.632812 82.511719 312.667969 82.511719 C 292.703125 82.511719 276.519531 66.328125 276.519531 46.363281 C 276.519531 26.394531 292.703125 10.210938 312.667969 10.210938 C 332.632812 10.210938 348.8125 26.394531 348.8125 46.363281 " fill-opacity="1" fill-rule="nonzero"/><path fill="rgb(58.039856%, 88.238525%, 89.408875%)" d="M 333.691406 46.363281 C 333.691406 57.972656 324.28125 67.386719 312.667969 67.386719 C 301.054688 67.386719 291.644531 57.972656 291.644531 46.363281 C 291.644531 34.75 301.054688 25.335938 312.667969 25.335938 C 324.28125 25.335938 333.691406 34.75 333.691406 46.363281 " fill-opacity="1" fill-rule="nonzero"/><path fill="rgb(17.649841%, 26.269531%, 33.729553%)" d="M 281.085938 192.96875 C 281.085938 237.242188 245.195312 273.140625 200.917969 273.140625 C 156.640625 273.140625 120.746094 237.242188 120.746094 192.96875 C 120.746094 148.695312 156.640625 112.800781 200.917969 112.800781 C 245.195312 112.800781 281.085938 148.695312 281.085938 192.96875 " fill-opacity="1" fill-rule="nonzero"/><path fill="rgb(83.918762%, 94.898987%, 94.898987%)" d="M 241.667969 192.96875 C 241.667969 215.480469 223.425781 233.722656 200.917969 233.722656 C 178.410156 233.722656 160.167969 215.480469 160.167969 192.96875 C 160.167969 170.460938 178.410156 152.214844 200.917969 152.214844 C 223.425781 152.214844 241.667969 170.460938 241.667969 192.96875 " fill-opacity="1" fill-rule="nonzero"/><path fill="rgb(17.649841%, 26.269531%, 33.729553%)" d="M 86.132812 230.480469 C 86.132812 250.667969 69.765625 267.035156 49.582031 267.035156 C 29.394531 267.035156 13.035156 250.667969 13.035156 230.480469 C 13.035156 210.296875 29.394531 193.929688 49.582031 193.929688 C 69.765625 193.929688 86.132812 210.296875 86.132812 230.480469 " fill-opacity="1" fill-rule="nonzero"/><path fill="rgb(17.649841%, 26.269531%, 33.729553%)" d="M 307.769531 313.449219 C 307.769531 328.1875 295.820312 340.132812 281.085938 340.132812 C 266.347656 340.132812 254.402344 328.1875 254.402344 313.449219 C 254.402344 298.714844 266.347656 286.765625 281.085938 286.765625 C 295.820312 286.765625 307.769531 298.714844 307.769531 313.449219 " fill-opacity="1" fill-rule="nonzero"/><path fill="rgb(17.649841%, 26.269531%, 33.729553%)" d="M 361.964844 200.5625 C 361.964844 214.171875 350.929688 225.207031 337.3125 225.207031 C 323.703125 225.207031 312.667969 214.171875 312.667969 200.5625 C 312.667969 186.945312 323.703125 175.910156 337.3125 175.910156 C 350.929688 175.910156 361.964844 186.945312 361.964844 200.5625 " fill-opacity="1" fill-rule="nonzero"/><path fill="rgb(17.649841%, 26.269531%, 33.729553%)" d="M 337.3125 206.859375 L 265.601562 206.859375 C 262.121094 206.859375 259.304688 204.042969 259.304688 200.5625 C 259.304688 197.082031 262.121094 194.257812 265.601562 194.257812 L 337.3125 194.257812 C 340.800781 194.257812 343.617188 197.082031 343.617188 200.5625 C 343.617188 204.042969 340.800781 206.859375 337.3125 206.859375 " fill-opacity="1" fill-rule="nonzero"/><path fill="rgb(17.649841%, 26.269531%, 33.729553%)" d="M 91.894531 79.273438 C 101.519531 69.648438 117.128906 69.648438 126.753906 79.273438 C 136.382812 88.902344 136.382812 104.507812 126.753906 114.136719 C 117.128906 123.761719 101.519531 123.761719 91.894531 114.136719 C 82.269531 104.507812 82.269531 88.902344 91.894531 79.273438 " fill-opacity="1" fill-rule="nonzero"/><path fill="rgb(17.649841%, 26.269531%, 33.729553%)" d="M 159.191406 152.871094 C 157.582031 152.871094 155.96875 152.253906 154.738281 151.027344 L 104.871094 101.160156 C 102.410156 98.695312 102.410156 94.707031 104.871094 92.246094 C 107.332031 89.785156 111.324219 89.785156 113.777344 92.246094 L 163.648438 142.113281 C 166.109375 144.574219 166.109375 148.566406 163.648438 151.027344 C 162.417969 152.253906 160.804688 152.871094 159.191406 152.871094 " fill-opacity="1" fill-rule="nonzero"/><path fill="rgb(83.918762%, 94.898987%, 94.898987%)" d="M 101.753906 89.132812 C 105.933594 84.949219 112.714844 84.949219 116.898438 89.132812 C 121.085938 93.316406 121.085938 100.09375 116.898438 104.277344 C 112.714844 108.460938 105.933594 108.460938 101.753906 104.277344 C 97.570312 100.09375 97.570312 93.316406 101.753906 89.132812 " fill-opacity="1" fill-rule="nonzero"/><path fill="rgb(17.649841%, 26.269531%, 33.729553%)" d="M 112.15625 346.4375 C 110.996094 346.4375 109.816406 346.121094 108.769531 345.445312 C 105.839844 343.566406 104.980469 339.667969 106.851562 336.738281 L 164.851562 246.039062 C 166.726562 243.105469 170.625 242.246094 173.554688 244.125 C 176.488281 246 177.34375 249.898438 175.46875 252.828125 L 117.472656 343.527344 C 116.269531 345.414062 114.238281 346.4375 112.15625 346.4375 " fill-opacity="1" fill-rule="nonzero"/><path fill="rgb(17.649841%, 26.269531%, 33.729553%)" d="M 98.882812 360.902344 C 87.414062 353.566406 84.0625 338.328125 91.398438 326.855469 C 98.730469 315.386719 113.972656 312.035156 125.441406 319.367188 C 136.914062 326.703125 140.261719 341.945312 132.929688 353.414062 C 125.59375 364.886719 110.355469 368.234375 98.882812 360.902344 " fill-opacity="1" fill-rule="nonzero"/><path fill="rgb(58.039856%, 88.238525%, 89.408875%)" d="M 106.394531 349.160156 C 101.40625 345.972656 99.953125 339.347656 103.140625 334.367188 C 106.324219 329.378906 112.953125 327.925781 117.933594 331.113281 C 122.917969 334.296875 124.371094 340.925781 121.1875 345.90625 C 118 350.886719 111.375 352.34375 106.394531 349.160156 " fill-opacity="1" fill-rule="nonzero"/><path fill="rgb(22.749329%, 23.529053%, 28.239441%)" d="M 244.417969 193.324219 C 244.417969 216.855469 225.34375 235.929688 201.8125 235.929688 C 178.28125 235.929688 159.207031 216.855469 159.207031 193.324219 C 159.207031 169.792969 178.28125 150.71875 201.8125 150.71875 C 225.34375 150.71875 244.417969 169.792969 244.417969 193.324219 " fill-opacity="1" fill-rule="nonzero"/><path fill="rgb(87.059021%, 93.328857%, 97.24884%)" d="M 237.746094 193.324219 C 237.746094 213.167969 221.65625 229.257812 201.8125 229.257812 C 181.964844 229.257812 165.878906 213.167969 165.878906 193.324219 C 165.878906 173.476562 181.964844 157.390625 201.8125 157.390625 C 221.65625 157.390625 237.746094 173.476562 237.746094 193.324219 " fill-opacity="1" fill-rule="nonzero"/><path fill="rgb(87.059021%, 93.328857%, 97.24884%)" d="M 185.445312 196.84375 L 201.8125 220.136719 L 218.179688 196.84375 L 201.8125 206.898438 L 185.445312 196.84375 " fill-opacity="1" fill-rule="nonzero"/><path fill="rgb(87.059021%, 93.328857%, 97.24884%)" d="M 218.179688 193.175781 L 201.8125 166.511719 L 185.445312 193.175781 L 201.8125 203.042969 L 218.179688 193.175781 " fill-opacity="1" fill-rule="nonzero"/><path fill="rgb(32.548523%, 32.939148%, 46.269226%)" d="M 201.8125 203.042969 L 201.8125 166.511719 L 218.179688 193.175781 L 201.8125 203.042969 " fill-opacity="1" fill-rule="nonzero"/><path fill="rgb(56.469727%, 58.039856%, 80.389404%)" d="M 201.8125 166.511719 L 201.8125 203.042969 L 185.445312 193.175781 L 201.8125 166.511719 " fill-opacity="1" fill-rule="nonzero"/><path fill="rgb(32.548523%, 32.939148%, 46.269226%)" d="M 201.8125 206.898438 L 201.8125 220.136719 L 218.179688 196.84375 L 201.8125 206.898438 " fill-opacity="1" fill-rule="nonzero"/><path fill="rgb(56.469727%, 58.039856%, 80.389404%)" d="M 185.445312 196.84375 L 201.8125 206.898438 L 201.8125 220.136719 L 185.445312 196.84375 " fill-opacity="1" fill-rule="nonzero"/><path fill="rgb(22.749329%, 23.529053%, 28.239441%)" d="M 201.8125 203.042969 L 218.179688 193.175781 L 201.8125 184.777344 L 201.8125 203.042969 " fill-opacity="1" fill-rule="nonzero"/><path fill="rgb(32.548523%, 32.939148%, 46.269226%)" d="M 201.8125 184.777344 L 201.8125 203.042969 L 185.445312 193.175781 L 201.8125 184.777344 " fill-opacity="1" fill-rule="nonzero"/></svg>